%TF.GenerationSoftware,KiCad,Pcbnew,8.0.6*%
%TF.CreationDate,2025-03-21T04:24:16-04:00*%
%TF.ProjectId,earworm_hardware,65617277-6f72-46d5-9f68-617264776172,rev?*%
%TF.SameCoordinates,Original*%
%TF.FileFunction,Copper,L2,Inr*%
%TF.FilePolarity,Positive*%
%FSLAX46Y46*%
G04 Gerber Fmt 4.6, Leading zero omitted, Abs format (unit mm)*
G04 Created by KiCad (PCBNEW 8.0.6) date 2025-03-21 04:24:16*
%MOMM*%
%LPD*%
G01*
G04 APERTURE LIST*
%TA.AperFunction,ComponentPad*%
%ADD10R,1.700000X1.700000*%
%TD*%
%TA.AperFunction,ComponentPad*%
%ADD11O,1.700000X1.700000*%
%TD*%
%TA.AperFunction,ViaPad*%
%ADD12C,0.500000*%
%TD*%
%TA.AperFunction,ViaPad*%
%ADD13C,0.800000*%
%TD*%
G04 APERTURE END LIST*
D10*
%TO.N,Net-(J2-Pin_1)*%
%TO.C,J2*%
X108800000Y-86975000D03*
D11*
%TO.N,GND*%
X108800000Y-84435000D03*
%TD*%
D10*
%TO.N,GND*%
%TO.C,J1*%
X93560000Y-98600000D03*
D11*
%TO.N,VDD*%
X96100000Y-98600000D03*
%TO.N,/nRF54L15 RFSoC/NRST*%
X98640000Y-98600000D03*
%TO.N,/nRF54L15 RFSoC/SWDIO*%
X101180000Y-98600000D03*
%TO.N,/nRF54L15 RFSoC/SWCLK*%
X103720000Y-98600000D03*
%TD*%
D10*
%TO.N,/Thermal Energy Harvesting Chain/VSTORE*%
%TO.C,C19*%
X96660000Y-87200000D03*
D11*
%TO.N,GND*%
X99200000Y-87200000D03*
%TD*%
D12*
%TO.N,GND*%
X92900000Y-90600000D03*
X107800000Y-75800000D03*
X97200000Y-80900000D03*
X96490000Y-93770000D03*
X92000000Y-76500000D03*
X96490000Y-91710000D03*
X107800000Y-77800000D03*
X94800000Y-87800000D03*
X107150000Y-98300000D03*
X100500000Y-74400000D03*
X104750000Y-95050000D03*
X107800000Y-76800000D03*
X96475000Y-92687500D03*
X93800000Y-82000000D03*
X104900000Y-82300000D03*
X99855001Y-76429753D03*
X101100000Y-95200000D03*
X99000000Y-82700000D03*
X101200000Y-86000000D03*
X104500000Y-91000000D03*
X103300000Y-74400000D03*
X93800000Y-81300000D03*
X109350000Y-82800000D03*
X104200000Y-88300000D03*
X92900000Y-75400000D03*
X98000000Y-89250000D03*
X110250000Y-82800000D03*
X100400000Y-79200000D03*
X100800000Y-82800000D03*
X98900000Y-79200000D03*
X102750000Y-78050000D03*
X108900000Y-96100000D03*
X107800000Y-74800000D03*
X107800000Y-82500000D03*
X104200000Y-83450000D03*
X107800000Y-78600000D03*
X100800000Y-81000000D03*
X92100000Y-84500000D03*
X98900000Y-80900000D03*
X108500000Y-82800000D03*
%TO.N,VDD*%
X101950000Y-77400000D03*
X94600000Y-75432298D03*
D13*
X93400000Y-87700000D03*
D12*
X99600000Y-85700000D03*
X95400000Y-78200000D03*
D13*
X92300000Y-91700000D03*
D12*
X95200000Y-82100000D03*
%TO.N,Net-(U1-DECA)*%
X103100000Y-79800000D03*
X101000000Y-77211376D03*
%TO.N,Net-(U3-VAUX)*%
X95025000Y-90800000D03*
X94237500Y-93437500D03*
%TO.N,/nRF54L15 RFSoC/RF*%
X107700000Y-80700000D03*
%TO.N,/nRF54L15 RFSoC/SWDIO*%
X99400000Y-89395000D03*
%TO.N,/nRF54L15 RFSoC/NRST*%
X98800000Y-89900000D03*
%TO.N,/nRF54L15 RFSoC/SWCLK*%
X100300003Y-89395000D03*
%TO.N,Net-(U1-P2.06)*%
X98700000Y-85000000D03*
%TO.N,Net-(U1-P2.05)*%
X97996000Y-85003000D03*
%TO.N,Net-(U1-P2.01)*%
X95157089Y-82857089D03*
%TO.N,Net-(U1-P2.04)*%
X97400000Y-84700000D03*
%TO.N,Net-(U1-P2.02)*%
X95800000Y-84200000D03*
%TO.N,Net-(U3-VS2)*%
X96300000Y-94900000D03*
%TO.N,Net-(U3-VS1)*%
X96300000Y-95800000D03*
%TO.N,Net-(U1-P1.03)*%
X94940601Y-80144997D03*
%TO.N,Net-(U1-P1.05)*%
X94940601Y-80800000D03*
%TO.N,Net-(U1-P1.07)*%
X94940601Y-81498553D03*
%TD*%
%TA.AperFunction,Conductor*%
%TO.N,GND*%
G36*
X108043039Y-74019685D02*
G01*
X108088794Y-74072489D01*
X108100000Y-74124000D01*
X108100000Y-80194464D01*
X108080315Y-80261503D01*
X108027511Y-80307258D01*
X107958353Y-80317202D01*
X107908964Y-80298781D01*
X107889069Y-80285996D01*
X107889066Y-80285995D01*
X107889063Y-80285993D01*
X107764774Y-80249500D01*
X107764772Y-80249500D01*
X107635228Y-80249500D01*
X107635226Y-80249500D01*
X107510935Y-80285994D01*
X107510932Y-80285995D01*
X107510931Y-80285996D01*
X107477847Y-80307258D01*
X107401950Y-80356033D01*
X107317118Y-80453937D01*
X107317117Y-80453938D01*
X107263302Y-80571774D01*
X107244867Y-80700000D01*
X107263302Y-80828225D01*
X107308972Y-80928226D01*
X107317118Y-80946063D01*
X107401951Y-81043967D01*
X107510931Y-81114004D01*
X107635225Y-81150499D01*
X107635227Y-81150500D01*
X107635228Y-81150500D01*
X107764773Y-81150500D01*
X107764773Y-81150499D01*
X107889069Y-81114004D01*
X107908962Y-81101219D01*
X107975999Y-81081535D01*
X108043039Y-81101219D01*
X108088794Y-81154023D01*
X108100000Y-81205535D01*
X108100000Y-82500000D01*
X110576000Y-82500000D01*
X110643039Y-82519685D01*
X110688794Y-82572489D01*
X110700000Y-82624000D01*
X110700000Y-100176000D01*
X110680315Y-100243039D01*
X110627511Y-100288794D01*
X110576000Y-100300000D01*
X91724000Y-100300000D01*
X91656961Y-100280315D01*
X91611206Y-100227511D01*
X91600000Y-100176000D01*
X91600000Y-97702155D01*
X92210000Y-97702155D01*
X92210000Y-98350000D01*
X93126988Y-98350000D01*
X93094075Y-98407007D01*
X93060000Y-98534174D01*
X93060000Y-98665826D01*
X93094075Y-98792993D01*
X93126988Y-98850000D01*
X92210000Y-98850000D01*
X92210000Y-99497844D01*
X92216401Y-99557372D01*
X92216403Y-99557379D01*
X92266645Y-99692086D01*
X92266649Y-99692093D01*
X92352809Y-99807187D01*
X92352812Y-99807190D01*
X92467906Y-99893350D01*
X92467913Y-99893354D01*
X92602620Y-99943596D01*
X92602627Y-99943598D01*
X92662155Y-99949999D01*
X92662172Y-99950000D01*
X93310000Y-99950000D01*
X93310000Y-99033012D01*
X93367007Y-99065925D01*
X93494174Y-99100000D01*
X93625826Y-99100000D01*
X93752993Y-99065925D01*
X93810000Y-99033012D01*
X93810000Y-99950000D01*
X94457828Y-99950000D01*
X94457844Y-99949999D01*
X94517372Y-99943598D01*
X94517379Y-99943596D01*
X94652086Y-99893354D01*
X94652093Y-99893350D01*
X94767187Y-99807190D01*
X94767190Y-99807187D01*
X94853350Y-99692093D01*
X94853354Y-99692086D01*
X94903596Y-99557379D01*
X94903598Y-99557372D01*
X94909999Y-99497844D01*
X94910000Y-99497827D01*
X94910000Y-99097186D01*
X94929685Y-99030147D01*
X94982489Y-98984392D01*
X95051647Y-98974448D01*
X95115203Y-99003473D01*
X95143356Y-99038729D01*
X95222315Y-99186450D01*
X95222317Y-99186452D01*
X95353589Y-99346410D01*
X95450209Y-99425702D01*
X95513550Y-99477685D01*
X95696046Y-99575232D01*
X95894066Y-99635300D01*
X95894065Y-99635300D01*
X95912529Y-99637118D01*
X96100000Y-99655583D01*
X96305934Y-99635300D01*
X96503954Y-99575232D01*
X96686450Y-99477685D01*
X96846410Y-99346410D01*
X96977685Y-99186450D01*
X97075232Y-99003954D01*
X97135300Y-98805934D01*
X97155583Y-98600000D01*
X97584417Y-98600000D01*
X97604699Y-98805932D01*
X97604700Y-98805934D01*
X97664768Y-99003954D01*
X97762315Y-99186450D01*
X97762317Y-99186452D01*
X97893589Y-99346410D01*
X97990209Y-99425702D01*
X98053550Y-99477685D01*
X98236046Y-99575232D01*
X98434066Y-99635300D01*
X98434065Y-99635300D01*
X98452529Y-99637118D01*
X98640000Y-99655583D01*
X98845934Y-99635300D01*
X99043954Y-99575232D01*
X99226450Y-99477685D01*
X99386410Y-99346410D01*
X99517685Y-99186450D01*
X99615232Y-99003954D01*
X99675300Y-98805934D01*
X99695583Y-98600000D01*
X100124417Y-98600000D01*
X100144699Y-98805932D01*
X100144700Y-98805934D01*
X100204768Y-99003954D01*
X100302315Y-99186450D01*
X100302317Y-99186452D01*
X100433589Y-99346410D01*
X100530209Y-99425702D01*
X100593550Y-99477685D01*
X100776046Y-99575232D01*
X100974066Y-99635300D01*
X100974065Y-99635300D01*
X100992529Y-99637118D01*
X101180000Y-99655583D01*
X101385934Y-99635300D01*
X101583954Y-99575232D01*
X101766450Y-99477685D01*
X101926410Y-99346410D01*
X102057685Y-99186450D01*
X102155232Y-99003954D01*
X102215300Y-98805934D01*
X102235583Y-98600000D01*
X102664417Y-98600000D01*
X102684699Y-98805932D01*
X102684700Y-98805934D01*
X102744768Y-99003954D01*
X102842315Y-99186450D01*
X102842317Y-99186452D01*
X102973589Y-99346410D01*
X103070209Y-99425702D01*
X103133550Y-99477685D01*
X103316046Y-99575232D01*
X103514066Y-99635300D01*
X103514065Y-99635300D01*
X103532529Y-99637118D01*
X103720000Y-99655583D01*
X103925934Y-99635300D01*
X104123954Y-99575232D01*
X104306450Y-99477685D01*
X104466410Y-99346410D01*
X104597685Y-99186450D01*
X104695232Y-99003954D01*
X104755300Y-98805934D01*
X104775583Y-98600000D01*
X104755300Y-98394066D01*
X104695232Y-98196046D01*
X104597685Y-98013550D01*
X104545702Y-97950209D01*
X104466410Y-97853589D01*
X104306452Y-97722317D01*
X104306453Y-97722317D01*
X104306450Y-97722315D01*
X104123954Y-97624768D01*
X103925934Y-97564700D01*
X103925932Y-97564699D01*
X103925934Y-97564699D01*
X103720000Y-97544417D01*
X103514067Y-97564699D01*
X103316043Y-97624769D01*
X103282634Y-97642627D01*
X103133550Y-97722315D01*
X103133548Y-97722316D01*
X103133547Y-97722317D01*
X102973589Y-97853589D01*
X102842317Y-98013547D01*
X102744769Y-98196043D01*
X102684699Y-98394067D01*
X102664417Y-98600000D01*
X102235583Y-98600000D01*
X102215300Y-98394066D01*
X102155232Y-98196046D01*
X102057685Y-98013550D01*
X102005702Y-97950209D01*
X101926410Y-97853589D01*
X101766452Y-97722317D01*
X101766453Y-97722317D01*
X101766450Y-97722315D01*
X101583954Y-97624768D01*
X101385934Y-97564700D01*
X101385932Y-97564699D01*
X101385934Y-97564699D01*
X101180000Y-97544417D01*
X100974067Y-97564699D01*
X100776043Y-97624769D01*
X100742634Y-97642627D01*
X100593550Y-97722315D01*
X100593548Y-97722316D01*
X100593547Y-97722317D01*
X100433589Y-97853589D01*
X100302317Y-98013547D01*
X100204769Y-98196043D01*
X100144699Y-98394067D01*
X100124417Y-98600000D01*
X99695583Y-98600000D01*
X99675300Y-98394066D01*
X99615232Y-98196046D01*
X99517685Y-98013550D01*
X99465702Y-97950209D01*
X99386410Y-97853589D01*
X99226452Y-97722317D01*
X99226453Y-97722317D01*
X99226450Y-97722315D01*
X99043954Y-97624768D01*
X98845934Y-97564700D01*
X98845932Y-97564699D01*
X98845934Y-97564699D01*
X98640000Y-97544417D01*
X98434067Y-97564699D01*
X98236043Y-97624769D01*
X98202634Y-97642627D01*
X98053550Y-97722315D01*
X98053548Y-97722316D01*
X98053547Y-97722317D01*
X97893589Y-97853589D01*
X97762317Y-98013547D01*
X97664769Y-98196043D01*
X97604699Y-98394067D01*
X97584417Y-98600000D01*
X97155583Y-98600000D01*
X97135300Y-98394066D01*
X97075232Y-98196046D01*
X96977685Y-98013550D01*
X96925702Y-97950209D01*
X96846410Y-97853589D01*
X96686452Y-97722317D01*
X96686453Y-97722317D01*
X96686450Y-97722315D01*
X96503954Y-97624768D01*
X96305934Y-97564700D01*
X96305932Y-97564699D01*
X96305934Y-97564699D01*
X96100000Y-97544417D01*
X95894067Y-97564699D01*
X95696043Y-97624769D01*
X95662634Y-97642627D01*
X95513550Y-97722315D01*
X95513548Y-97722316D01*
X95513547Y-97722317D01*
X95353589Y-97853589D01*
X95222317Y-98013547D01*
X95222315Y-98013550D01*
X95150887Y-98147181D01*
X95143358Y-98161267D01*
X95094395Y-98211111D01*
X95026257Y-98226571D01*
X94960578Y-98202739D01*
X94918209Y-98147181D01*
X94910000Y-98102813D01*
X94910000Y-97702172D01*
X94909999Y-97702155D01*
X94903598Y-97642627D01*
X94903596Y-97642620D01*
X94853354Y-97507913D01*
X94853350Y-97507906D01*
X94767190Y-97392812D01*
X94767187Y-97392809D01*
X94652093Y-97306649D01*
X94652086Y-97306645D01*
X94517379Y-97256403D01*
X94517372Y-97256401D01*
X94457844Y-97250000D01*
X93810000Y-97250000D01*
X93810000Y-98166988D01*
X93752993Y-98134075D01*
X93625826Y-98100000D01*
X93494174Y-98100000D01*
X93367007Y-98134075D01*
X93310000Y-98166988D01*
X93310000Y-97250000D01*
X92662155Y-97250000D01*
X92602627Y-97256401D01*
X92602620Y-97256403D01*
X92467913Y-97306645D01*
X92467906Y-97306649D01*
X92352812Y-97392809D01*
X92352809Y-97392812D01*
X92266649Y-97507906D01*
X92266645Y-97507913D01*
X92216403Y-97642620D01*
X92216401Y-97642627D01*
X92210000Y-97702155D01*
X91600000Y-97702155D01*
X91600000Y-94900000D01*
X95844867Y-94900000D01*
X95863302Y-95028225D01*
X95917117Y-95146061D01*
X95917118Y-95146063D01*
X96001950Y-95243966D01*
X96001951Y-95243967D01*
X96004627Y-95245687D01*
X96006710Y-95248091D01*
X96008652Y-95249774D01*
X96008410Y-95250053D01*
X96050379Y-95298493D01*
X96060320Y-95367652D01*
X96031293Y-95431206D01*
X96004627Y-95454313D01*
X96001951Y-95456032D01*
X95917118Y-95553937D01*
X95917117Y-95553938D01*
X95863302Y-95671774D01*
X95844867Y-95800000D01*
X95863302Y-95928225D01*
X95917117Y-96046061D01*
X95917118Y-96046063D01*
X96001951Y-96143967D01*
X96110931Y-96214004D01*
X96235225Y-96250499D01*
X96235227Y-96250500D01*
X96235228Y-96250500D01*
X96364773Y-96250500D01*
X96364773Y-96250499D01*
X96489069Y-96214004D01*
X96598049Y-96143967D01*
X96682882Y-96046063D01*
X96736697Y-95928226D01*
X96755133Y-95800000D01*
X96736697Y-95671774D01*
X96682882Y-95553937D01*
X96598049Y-95456033D01*
X96595376Y-95454315D01*
X96593294Y-95451912D01*
X96591348Y-95450226D01*
X96591590Y-95449946D01*
X96549622Y-95401512D01*
X96539678Y-95332354D01*
X96568703Y-95268798D01*
X96595377Y-95245684D01*
X96598049Y-95243967D01*
X96682882Y-95146063D01*
X96736697Y-95028226D01*
X96755133Y-94900000D01*
X96736697Y-94771774D01*
X96682882Y-94653937D01*
X96598049Y-94556033D01*
X96489069Y-94485996D01*
X96489065Y-94485994D01*
X96489064Y-94485994D01*
X96364774Y-94449500D01*
X96364772Y-94449500D01*
X96235228Y-94449500D01*
X96235226Y-94449500D01*
X96110935Y-94485994D01*
X96110932Y-94485995D01*
X96110931Y-94485996D01*
X96059677Y-94518934D01*
X96001950Y-94556033D01*
X95917118Y-94653937D01*
X95917117Y-94653938D01*
X95863302Y-94771774D01*
X95844867Y-94900000D01*
X91600000Y-94900000D01*
X91600000Y-93437500D01*
X93782367Y-93437500D01*
X93800802Y-93565725D01*
X93854617Y-93683561D01*
X93854618Y-93683563D01*
X93939451Y-93781467D01*
X94048431Y-93851504D01*
X94172725Y-93887999D01*
X94172727Y-93888000D01*
X94172728Y-93888000D01*
X94302273Y-93888000D01*
X94302273Y-93887999D01*
X94426569Y-93851504D01*
X94535549Y-93781467D01*
X94620382Y-93683563D01*
X94674197Y-93565726D01*
X94692633Y-93437500D01*
X94674197Y-93309274D01*
X94620382Y-93191437D01*
X94535549Y-93093533D01*
X94426569Y-93023496D01*
X94426565Y-93023494D01*
X94426564Y-93023494D01*
X94302274Y-92987000D01*
X94302272Y-92987000D01*
X94172728Y-92987000D01*
X94172726Y-92987000D01*
X94048435Y-93023494D01*
X94048432Y-93023495D01*
X94048431Y-93023496D01*
X93997177Y-93056434D01*
X93939450Y-93093533D01*
X93854618Y-93191437D01*
X93854617Y-93191438D01*
X93800802Y-93309274D01*
X93782367Y-93437500D01*
X91600000Y-93437500D01*
X91600000Y-92139464D01*
X91619685Y-92072425D01*
X91672489Y-92026670D01*
X91741647Y-92016726D01*
X91805203Y-92045751D01*
X91822375Y-92063977D01*
X91871718Y-92128282D01*
X91997159Y-92224536D01*
X92143238Y-92285044D01*
X92221619Y-92295363D01*
X92299999Y-92305682D01*
X92300000Y-92305682D01*
X92300001Y-92305682D01*
X92352254Y-92298802D01*
X92456762Y-92285044D01*
X92602841Y-92224536D01*
X92728282Y-92128282D01*
X92824536Y-92002841D01*
X92885044Y-91856762D01*
X92905682Y-91700000D01*
X92885044Y-91543238D01*
X92824536Y-91397159D01*
X92728282Y-91271718D01*
X92602841Y-91175464D01*
X92456762Y-91114956D01*
X92456760Y-91114955D01*
X92300001Y-91094318D01*
X92299999Y-91094318D01*
X92143239Y-91114955D01*
X92143237Y-91114956D01*
X91997160Y-91175463D01*
X91871715Y-91271720D01*
X91822375Y-91336022D01*
X91765947Y-91377225D01*
X91696201Y-91381379D01*
X91635281Y-91347166D01*
X91602529Y-91285448D01*
X91600000Y-91260535D01*
X91600000Y-90800000D01*
X94569867Y-90800000D01*
X94588302Y-90928225D01*
X94642117Y-91046061D01*
X94642118Y-91046063D01*
X94726951Y-91143967D01*
X94835931Y-91214004D01*
X94960225Y-91250499D01*
X94960227Y-91250500D01*
X94960228Y-91250500D01*
X95089773Y-91250500D01*
X95089773Y-91250499D01*
X95214069Y-91214004D01*
X95323049Y-91143967D01*
X95407882Y-91046063D01*
X95461697Y-90928226D01*
X95480133Y-90800000D01*
X95461697Y-90671774D01*
X95407882Y-90553937D01*
X95323049Y-90456033D01*
X95214069Y-90385996D01*
X95214065Y-90385994D01*
X95214064Y-90385994D01*
X95089774Y-90349500D01*
X95089772Y-90349500D01*
X94960228Y-90349500D01*
X94960226Y-90349500D01*
X94835935Y-90385994D01*
X94835932Y-90385995D01*
X94835931Y-90385996D01*
X94784677Y-90418934D01*
X94726950Y-90456033D01*
X94642118Y-90553937D01*
X94642117Y-90553938D01*
X94588302Y-90671774D01*
X94569867Y-90800000D01*
X91600000Y-90800000D01*
X91600000Y-89900000D01*
X98344867Y-89900000D01*
X98363302Y-90028225D01*
X98417117Y-90146061D01*
X98417118Y-90146063D01*
X98501951Y-90243967D01*
X98610931Y-90314004D01*
X98735225Y-90350499D01*
X98735227Y-90350500D01*
X98735228Y-90350500D01*
X98864773Y-90350500D01*
X98864773Y-90350499D01*
X98989069Y-90314004D01*
X99098049Y-90243967D01*
X99182882Y-90146063D01*
X99236697Y-90028226D01*
X99247678Y-89951853D01*
X99276703Y-89888297D01*
X99335481Y-89850523D01*
X99370416Y-89845500D01*
X99464773Y-89845500D01*
X99464773Y-89845499D01*
X99589069Y-89809004D01*
X99698049Y-89738967D01*
X99756287Y-89671756D01*
X99815065Y-89633980D01*
X99884934Y-89633979D01*
X99943713Y-89671753D01*
X99943714Y-89671755D01*
X100001951Y-89738965D01*
X100001953Y-89738966D01*
X100001954Y-89738967D01*
X100110934Y-89809004D01*
X100143422Y-89818543D01*
X100235228Y-89845499D01*
X100235230Y-89845500D01*
X100235231Y-89845500D01*
X100364776Y-89845500D01*
X100364776Y-89845499D01*
X100489072Y-89809004D01*
X100598052Y-89738967D01*
X100682885Y-89641063D01*
X100736700Y-89523226D01*
X100755136Y-89395000D01*
X100736700Y-89266774D01*
X100682885Y-89148937D01*
X100598052Y-89051033D01*
X100489072Y-88980996D01*
X100489068Y-88980994D01*
X100489067Y-88980994D01*
X100364777Y-88944500D01*
X100364775Y-88944500D01*
X100235231Y-88944500D01*
X100235229Y-88944500D01*
X100110938Y-88980994D01*
X100110935Y-88980995D01*
X100110934Y-88980996D01*
X100077428Y-89002528D01*
X100001952Y-89051033D01*
X99943714Y-89118245D01*
X99884936Y-89156019D01*
X99815066Y-89156019D01*
X99756288Y-89118245D01*
X99756288Y-89118244D01*
X99698051Y-89051034D01*
X99677301Y-89037699D01*
X99589069Y-88980996D01*
X99589065Y-88980994D01*
X99589064Y-88980994D01*
X99464774Y-88944500D01*
X99464772Y-88944500D01*
X99335228Y-88944500D01*
X99335226Y-88944500D01*
X99210935Y-88980994D01*
X99210932Y-88980995D01*
X99210931Y-88980996D01*
X99159677Y-89013934D01*
X99101950Y-89051033D01*
X99017118Y-89148937D01*
X99017117Y-89148938D01*
X98963302Y-89266774D01*
X98952322Y-89343147D01*
X98923297Y-89406703D01*
X98864519Y-89444477D01*
X98829584Y-89449500D01*
X98735226Y-89449500D01*
X98610935Y-89485994D01*
X98610932Y-89485995D01*
X98610931Y-89485996D01*
X98559677Y-89518934D01*
X98501950Y-89556033D01*
X98417118Y-89653937D01*
X98417117Y-89653938D01*
X98363302Y-89771774D01*
X98344867Y-89900000D01*
X91600000Y-89900000D01*
X91600000Y-87699998D01*
X92794318Y-87699998D01*
X92794318Y-87700001D01*
X92814955Y-87856760D01*
X92814956Y-87856762D01*
X92875464Y-88002841D01*
X92971718Y-88128282D01*
X93097159Y-88224536D01*
X93243238Y-88285044D01*
X93321619Y-88295363D01*
X93399999Y-88305682D01*
X93400000Y-88305682D01*
X93400001Y-88305682D01*
X93452254Y-88298802D01*
X93556762Y-88285044D01*
X93702841Y-88224536D01*
X93828282Y-88128282D01*
X93924536Y-88002841D01*
X93985044Y-87856762D01*
X94005682Y-87700000D01*
X93985044Y-87543238D01*
X93924536Y-87397159D01*
X93828282Y-87271718D01*
X93702841Y-87175464D01*
X93556762Y-87114956D01*
X93556760Y-87114955D01*
X93400001Y-87094318D01*
X93399999Y-87094318D01*
X93243239Y-87114955D01*
X93243237Y-87114956D01*
X93097160Y-87175463D01*
X92971718Y-87271718D01*
X92875463Y-87397160D01*
X92814956Y-87543237D01*
X92814955Y-87543239D01*
X92794318Y-87699998D01*
X91600000Y-87699998D01*
X91600000Y-86330247D01*
X95609500Y-86330247D01*
X95609500Y-88069752D01*
X95621131Y-88128229D01*
X95621132Y-88128230D01*
X95665447Y-88194552D01*
X95731769Y-88238867D01*
X95731770Y-88238868D01*
X95790247Y-88250499D01*
X95790250Y-88250500D01*
X95790252Y-88250500D01*
X97529750Y-88250500D01*
X97529751Y-88250499D01*
X97544568Y-88247552D01*
X97588229Y-88238868D01*
X97588229Y-88238867D01*
X97588231Y-88238867D01*
X97654552Y-88194552D01*
X97698867Y-88128231D01*
X97698867Y-88128229D01*
X97698868Y-88128229D01*
X97707552Y-88084568D01*
X97710500Y-88069748D01*
X97710500Y-87759456D01*
X97730185Y-87692417D01*
X97782989Y-87646662D01*
X97852147Y-87636718D01*
X97915703Y-87665743D01*
X97946882Y-87707051D01*
X98026400Y-87877578D01*
X98161894Y-88071082D01*
X98328917Y-88238105D01*
X98522421Y-88373600D01*
X98736507Y-88473429D01*
X98736516Y-88473433D01*
X98950000Y-88530634D01*
X98950000Y-87633012D01*
X99007007Y-87665925D01*
X99134174Y-87700000D01*
X99265826Y-87700000D01*
X99392993Y-87665925D01*
X99450000Y-87633012D01*
X99450000Y-88530633D01*
X99663483Y-88473433D01*
X99663492Y-88473429D01*
X99877578Y-88373600D01*
X100071082Y-88238105D01*
X100238105Y-88071082D01*
X100373600Y-87877578D01*
X100473429Y-87663492D01*
X100473432Y-87663486D01*
X100530636Y-87450000D01*
X99633012Y-87450000D01*
X99665925Y-87392993D01*
X99700000Y-87265826D01*
X99700000Y-87134174D01*
X99665925Y-87007007D01*
X99633012Y-86950000D01*
X100530636Y-86950000D01*
X100530635Y-86949999D01*
X100473432Y-86736513D01*
X100473429Y-86736507D01*
X100373600Y-86522422D01*
X100373599Y-86522420D01*
X100238113Y-86328926D01*
X100238108Y-86328920D01*
X100071081Y-86161893D01*
X100012217Y-86120675D01*
X99968593Y-86066098D01*
X99961401Y-85996599D01*
X99979028Y-85952059D01*
X99982878Y-85946067D01*
X99982882Y-85946063D01*
X100036697Y-85828226D01*
X100055133Y-85700000D01*
X100036697Y-85571774D01*
X99982882Y-85453937D01*
X99898049Y-85356033D01*
X99789069Y-85285996D01*
X99789065Y-85285994D01*
X99789064Y-85285994D01*
X99664774Y-85249500D01*
X99664772Y-85249500D01*
X99535228Y-85249500D01*
X99535226Y-85249500D01*
X99410935Y-85285994D01*
X99410932Y-85285995D01*
X99410931Y-85285996D01*
X99377425Y-85307528D01*
X99301949Y-85356033D01*
X99297350Y-85361342D01*
X99238570Y-85399114D01*
X99217681Y-85399113D01*
X99219096Y-85402211D01*
X99209156Y-85471370D01*
X99209153Y-85471375D01*
X99163303Y-85571772D01*
X99163302Y-85571773D01*
X99144867Y-85700000D01*
X99147463Y-85718057D01*
X99137519Y-85787215D01*
X99091764Y-85840019D01*
X99035534Y-85859231D01*
X98964683Y-85865430D01*
X98964673Y-85865432D01*
X98736516Y-85926566D01*
X98736507Y-85926570D01*
X98522422Y-86026399D01*
X98522420Y-86026400D01*
X98328926Y-86161886D01*
X98328920Y-86161891D01*
X98161891Y-86328920D01*
X98161886Y-86328926D01*
X98026400Y-86522420D01*
X98026399Y-86522422D01*
X97946882Y-86692948D01*
X97900710Y-86745387D01*
X97833516Y-86764539D01*
X97766635Y-86744323D01*
X97721300Y-86691158D01*
X97710500Y-86640543D01*
X97710500Y-86330249D01*
X97710499Y-86330247D01*
X97698868Y-86271770D01*
X97698867Y-86271769D01*
X97654552Y-86205447D01*
X97588230Y-86161132D01*
X97588229Y-86161131D01*
X97529752Y-86149500D01*
X97529748Y-86149500D01*
X95790252Y-86149500D01*
X95790247Y-86149500D01*
X95731770Y-86161131D01*
X95731769Y-86161132D01*
X95665447Y-86205447D01*
X95621132Y-86271769D01*
X95621131Y-86271770D01*
X95609500Y-86330247D01*
X91600000Y-86330247D01*
X91600000Y-84700000D01*
X96944867Y-84700000D01*
X96963302Y-84828225D01*
X96983191Y-84871774D01*
X97017118Y-84946063D01*
X97101951Y-85043967D01*
X97210931Y-85114004D01*
X97335225Y-85150499D01*
X97335227Y-85150500D01*
X97335228Y-85150500D01*
X97464769Y-85150500D01*
X97464772Y-85150500D01*
X97464774Y-85150499D01*
X97469852Y-85149769D01*
X97539011Y-85159709D01*
X97591817Y-85205462D01*
X97600299Y-85220994D01*
X97613118Y-85249063D01*
X97686624Y-85333895D01*
X97695351Y-85343967D01*
X97697951Y-85346967D01*
X97806931Y-85417004D01*
X97921011Y-85450500D01*
X97931225Y-85453499D01*
X97931227Y-85453500D01*
X97931228Y-85453500D01*
X98060773Y-85453500D01*
X98060773Y-85453499D01*
X98185069Y-85417004D01*
X98283297Y-85353876D01*
X98350332Y-85334193D01*
X98417370Y-85353876D01*
X98510931Y-85414004D01*
X98521152Y-85417005D01*
X98635225Y-85450499D01*
X98635227Y-85450500D01*
X98635228Y-85450500D01*
X98764773Y-85450500D01*
X98764773Y-85450499D01*
X98889069Y-85414004D01*
X98998049Y-85343967D01*
X99002642Y-85338665D01*
X99061419Y-85300889D01*
X99082321Y-85300887D01*
X99080901Y-85297777D01*
X99090845Y-85228625D01*
X99136697Y-85128226D01*
X99155133Y-85000000D01*
X99136697Y-84871774D01*
X99082882Y-84753937D01*
X98998049Y-84656033D01*
X98889069Y-84585996D01*
X98889065Y-84585994D01*
X98889064Y-84585994D01*
X98764774Y-84549500D01*
X98764772Y-84549500D01*
X98635228Y-84549500D01*
X98635226Y-84549500D01*
X98510933Y-84585994D01*
X98510932Y-84585994D01*
X98412703Y-84649122D01*
X98345664Y-84668806D01*
X98278628Y-84649122D01*
X98185069Y-84588996D01*
X98185068Y-84588995D01*
X98185064Y-84588993D01*
X98060774Y-84552500D01*
X98060772Y-84552500D01*
X97931228Y-84552500D01*
X97931227Y-84552500D01*
X97926136Y-84553232D01*
X97856978Y-84543285D01*
X97804176Y-84497528D01*
X97795704Y-84482014D01*
X97782882Y-84453937D01*
X97698049Y-84356033D01*
X97589069Y-84285996D01*
X97589065Y-84285994D01*
X97589064Y-84285994D01*
X97464774Y-84249500D01*
X97464772Y-84249500D01*
X97335228Y-84249500D01*
X97335226Y-84249500D01*
X97210935Y-84285994D01*
X97210932Y-84285995D01*
X97210931Y-84285996D01*
X97159677Y-84318934D01*
X97101950Y-84356033D01*
X97017118Y-84453937D01*
X97017117Y-84453938D01*
X96963302Y-84571774D01*
X96944867Y-84700000D01*
X91600000Y-84700000D01*
X91600000Y-84200000D01*
X95344867Y-84200000D01*
X95363302Y-84328225D01*
X95417117Y-84446061D01*
X95417118Y-84446063D01*
X95501951Y-84543967D01*
X95610931Y-84614004D01*
X95730535Y-84649122D01*
X95735225Y-84650499D01*
X95735227Y-84650500D01*
X95735228Y-84650500D01*
X95864773Y-84650500D01*
X95864773Y-84650499D01*
X95989069Y-84614004D01*
X96098049Y-84543967D01*
X96182882Y-84446063D01*
X96236697Y-84328226D01*
X96255133Y-84200000D01*
X96252976Y-84184999D01*
X107469364Y-84184999D01*
X107469364Y-84185000D01*
X108366988Y-84185000D01*
X108334075Y-84242007D01*
X108300000Y-84369174D01*
X108300000Y-84500826D01*
X108334075Y-84627993D01*
X108366988Y-84685000D01*
X107469364Y-84685000D01*
X107526567Y-84898486D01*
X107526570Y-84898492D01*
X107626399Y-85112578D01*
X107761894Y-85306082D01*
X107928917Y-85473105D01*
X108122421Y-85608600D01*
X108292948Y-85688118D01*
X108345387Y-85734290D01*
X108364539Y-85801484D01*
X108344323Y-85868365D01*
X108291158Y-85913700D01*
X108240543Y-85924500D01*
X107930247Y-85924500D01*
X107871770Y-85936131D01*
X107871769Y-85936132D01*
X107805447Y-85980447D01*
X107761132Y-86046769D01*
X107761131Y-86046770D01*
X107749500Y-86105247D01*
X107749500Y-87844752D01*
X107761131Y-87903229D01*
X107761132Y-87903230D01*
X107805447Y-87969552D01*
X107871769Y-88013867D01*
X107871770Y-88013868D01*
X107930247Y-88025499D01*
X107930250Y-88025500D01*
X107930252Y-88025500D01*
X109669750Y-88025500D01*
X109669751Y-88025499D01*
X109684568Y-88022552D01*
X109728229Y-88013868D01*
X109728229Y-88013867D01*
X109728231Y-88013867D01*
X109794552Y-87969552D01*
X109838867Y-87903231D01*
X109838867Y-87903229D01*
X109838868Y-87903229D01*
X109850499Y-87844752D01*
X109850500Y-87844750D01*
X109850500Y-86105249D01*
X109850499Y-86105247D01*
X109838868Y-86046770D01*
X109838867Y-86046769D01*
X109794552Y-85980447D01*
X109728230Y-85936132D01*
X109728229Y-85936131D01*
X109669752Y-85924500D01*
X109669748Y-85924500D01*
X109359457Y-85924500D01*
X109292418Y-85904815D01*
X109246663Y-85852011D01*
X109236719Y-85782853D01*
X109265744Y-85719297D01*
X109307052Y-85688118D01*
X109477578Y-85608600D01*
X109671082Y-85473105D01*
X109838105Y-85306082D01*
X109973600Y-85112578D01*
X110073429Y-84898492D01*
X110073432Y-84898486D01*
X110130636Y-84685000D01*
X109233012Y-84685000D01*
X109265925Y-84627993D01*
X109300000Y-84500826D01*
X109300000Y-84369174D01*
X109265925Y-84242007D01*
X109233012Y-84185000D01*
X110130636Y-84185000D01*
X110130635Y-84184999D01*
X110073432Y-83971513D01*
X110073429Y-83971507D01*
X109973600Y-83757422D01*
X109973599Y-83757420D01*
X109838113Y-83563926D01*
X109838108Y-83563920D01*
X109671082Y-83396894D01*
X109477578Y-83261399D01*
X109263492Y-83161570D01*
X109263486Y-83161567D01*
X109050000Y-83104364D01*
X109050000Y-84001988D01*
X108992993Y-83969075D01*
X108865826Y-83935000D01*
X108734174Y-83935000D01*
X108607007Y-83969075D01*
X108550000Y-84001988D01*
X108550000Y-83104364D01*
X108549999Y-83104364D01*
X108336513Y-83161567D01*
X108336507Y-83161570D01*
X108122422Y-83261399D01*
X108122420Y-83261400D01*
X107928926Y-83396886D01*
X107928920Y-83396891D01*
X107761891Y-83563920D01*
X107761886Y-83563926D01*
X107626400Y-83757420D01*
X107626399Y-83757422D01*
X107526570Y-83971507D01*
X107526567Y-83971513D01*
X107469364Y-84184999D01*
X96252976Y-84184999D01*
X96236697Y-84071774D01*
X96182882Y-83953937D01*
X96098049Y-83856033D01*
X95989069Y-83785996D01*
X95989065Y-83785994D01*
X95989064Y-83785994D01*
X95864774Y-83749500D01*
X95864772Y-83749500D01*
X95735228Y-83749500D01*
X95735226Y-83749500D01*
X95610935Y-83785994D01*
X95610932Y-83785995D01*
X95610931Y-83785996D01*
X95559677Y-83818934D01*
X95501950Y-83856033D01*
X95417118Y-83953937D01*
X95417117Y-83953938D01*
X95363302Y-84071774D01*
X95344867Y-84200000D01*
X91600000Y-84200000D01*
X91600000Y-80144997D01*
X94485468Y-80144997D01*
X94503903Y-80273222D01*
X94557717Y-80391056D01*
X94557719Y-80391060D01*
X94557915Y-80391286D01*
X94557922Y-80391294D01*
X94558050Y-80391576D01*
X94562514Y-80398521D01*
X94561515Y-80399162D01*
X94586948Y-80454849D01*
X94577005Y-80524008D01*
X94557933Y-80553689D01*
X94557723Y-80553931D01*
X94557717Y-80553939D01*
X94503903Y-80671774D01*
X94485468Y-80800000D01*
X94503903Y-80928225D01*
X94512050Y-80946063D01*
X94557719Y-81046063D01*
X94576791Y-81068074D01*
X94605816Y-81131629D01*
X94595872Y-81200787D01*
X94576792Y-81230477D01*
X94557721Y-81252485D01*
X94557718Y-81252491D01*
X94503903Y-81370327D01*
X94485468Y-81498553D01*
X94503903Y-81626778D01*
X94526358Y-81675946D01*
X94557719Y-81744616D01*
X94642552Y-81842520D01*
X94703062Y-81881407D01*
X94748816Y-81934210D01*
X94758760Y-82003368D01*
X94744867Y-82099999D01*
X94763302Y-82228225D01*
X94817117Y-82346061D01*
X94817118Y-82346063D01*
X94840095Y-82372580D01*
X94869119Y-82436136D01*
X94859175Y-82505294D01*
X94840096Y-82534983D01*
X94774207Y-82611026D01*
X94774206Y-82611027D01*
X94720391Y-82728863D01*
X94701956Y-82857089D01*
X94720391Y-82985314D01*
X94774206Y-83103150D01*
X94774207Y-83103152D01*
X94859040Y-83201056D01*
X94968020Y-83271093D01*
X95092314Y-83307588D01*
X95092316Y-83307589D01*
X95092317Y-83307589D01*
X95221862Y-83307589D01*
X95221862Y-83307588D01*
X95346158Y-83271093D01*
X95455138Y-83201056D01*
X95539971Y-83103152D01*
X95593786Y-82985315D01*
X95612222Y-82857089D01*
X95593786Y-82728863D01*
X95539971Y-82611026D01*
X95530417Y-82600000D01*
X104600000Y-82600000D01*
X105200000Y-82600000D01*
X105200000Y-82000000D01*
X104600000Y-82000000D01*
X104600000Y-82600000D01*
X95530417Y-82600000D01*
X95516992Y-82584506D01*
X95487969Y-82520950D01*
X95497914Y-82451791D01*
X95516991Y-82422105D01*
X95582882Y-82346063D01*
X95636697Y-82228226D01*
X95655133Y-82100000D01*
X95636697Y-81971774D01*
X95582882Y-81853937D01*
X95498049Y-81756033D01*
X95437538Y-81717145D01*
X95391784Y-81664342D01*
X95381840Y-81595185D01*
X95395734Y-81498553D01*
X95377298Y-81370327D01*
X95323483Y-81252490D01*
X95304409Y-81230477D01*
X95275385Y-81166923D01*
X95285328Y-81097765D01*
X95304408Y-81068076D01*
X95323483Y-81046063D01*
X95377298Y-80928226D01*
X95395734Y-80800000D01*
X95377298Y-80671774D01*
X95323483Y-80553937D01*
X95323279Y-80553702D01*
X95323151Y-80553420D01*
X95318688Y-80546476D01*
X95319686Y-80545834D01*
X95294254Y-80490148D01*
X95304195Y-80420990D01*
X95323282Y-80391291D01*
X95323483Y-80391060D01*
X95377298Y-80273223D01*
X95395734Y-80144997D01*
X95377298Y-80016771D01*
X95323483Y-79898934D01*
X95238650Y-79801030D01*
X95237047Y-79800000D01*
X102644867Y-79800000D01*
X102663302Y-79928225D01*
X102717117Y-80046061D01*
X102717118Y-80046063D01*
X102801951Y-80143967D01*
X102910931Y-80214004D01*
X103035225Y-80250499D01*
X103035227Y-80250500D01*
X103035228Y-80250500D01*
X103164773Y-80250500D01*
X103164773Y-80250499D01*
X103289069Y-80214004D01*
X103398049Y-80143967D01*
X103482882Y-80046063D01*
X103536697Y-79928226D01*
X103555133Y-79800000D01*
X103536697Y-79671774D01*
X103482882Y-79553937D01*
X103398049Y-79456033D01*
X103289069Y-79385996D01*
X103289065Y-79385994D01*
X103289064Y-79385994D01*
X103164774Y-79349500D01*
X103164772Y-79349500D01*
X103035228Y-79349500D01*
X103035226Y-79349500D01*
X102910935Y-79385994D01*
X102910932Y-79385995D01*
X102910931Y-79385996D01*
X102859677Y-79418934D01*
X102801950Y-79456033D01*
X102717118Y-79553937D01*
X102717117Y-79553938D01*
X102663302Y-79671774D01*
X102644867Y-79800000D01*
X95237047Y-79800000D01*
X95129670Y-79730993D01*
X95129666Y-79730991D01*
X95129665Y-79730991D01*
X95005375Y-79694497D01*
X95005373Y-79694497D01*
X94875829Y-79694497D01*
X94875827Y-79694497D01*
X94751536Y-79730991D01*
X94751533Y-79730992D01*
X94751532Y-79730993D01*
X94700278Y-79763931D01*
X94642551Y-79801030D01*
X94557719Y-79898934D01*
X94557718Y-79898935D01*
X94503903Y-80016771D01*
X94485468Y-80144997D01*
X91600000Y-80144997D01*
X91600000Y-78200000D01*
X94944867Y-78200000D01*
X94963302Y-78328225D01*
X95017117Y-78446061D01*
X95017118Y-78446063D01*
X95101951Y-78543967D01*
X95210931Y-78614004D01*
X95335225Y-78650499D01*
X95335227Y-78650500D01*
X95335228Y-78650500D01*
X95464773Y-78650500D01*
X95464773Y-78650499D01*
X95589069Y-78614004D01*
X95698049Y-78543967D01*
X95782882Y-78446063D01*
X95836697Y-78328226D01*
X95855133Y-78200000D01*
X95836697Y-78071774D01*
X95782882Y-77953937D01*
X95698049Y-77856033D01*
X95589069Y-77785996D01*
X95589065Y-77785994D01*
X95589064Y-77785994D01*
X95464774Y-77749500D01*
X95464772Y-77749500D01*
X95335228Y-77749500D01*
X95335226Y-77749500D01*
X95210935Y-77785994D01*
X95210932Y-77785995D01*
X95210931Y-77785996D01*
X95167350Y-77814004D01*
X95101950Y-77856033D01*
X95017118Y-77953937D01*
X95017117Y-77953938D01*
X94963302Y-78071774D01*
X94944867Y-78200000D01*
X91600000Y-78200000D01*
X91600000Y-77211376D01*
X100544867Y-77211376D01*
X100563302Y-77339601D01*
X100590886Y-77400000D01*
X100617118Y-77457439D01*
X100701951Y-77555343D01*
X100810931Y-77625380D01*
X100881373Y-77646063D01*
X100935225Y-77661875D01*
X100935227Y-77661876D01*
X100935228Y-77661876D01*
X101064773Y-77661876D01*
X101064773Y-77661875D01*
X101189069Y-77625380D01*
X101298049Y-77555343D01*
X101320766Y-77529125D01*
X101379541Y-77491352D01*
X101449411Y-77491350D01*
X101508190Y-77529123D01*
X101527273Y-77558816D01*
X101567118Y-77646063D01*
X101651951Y-77743967D01*
X101760931Y-77814004D01*
X101885225Y-77850499D01*
X101885227Y-77850500D01*
X101885228Y-77850500D01*
X102014773Y-77850500D01*
X102014773Y-77850499D01*
X102139069Y-77814004D01*
X102248049Y-77743967D01*
X102332882Y-77646063D01*
X102386697Y-77528226D01*
X102405133Y-77400000D01*
X102386697Y-77271774D01*
X102332882Y-77153937D01*
X102248049Y-77056033D01*
X102139069Y-76985996D01*
X102139065Y-76985994D01*
X102139064Y-76985994D01*
X102014774Y-76949500D01*
X102014772Y-76949500D01*
X101885228Y-76949500D01*
X101885226Y-76949500D01*
X101760935Y-76985994D01*
X101760932Y-76985995D01*
X101760931Y-76985996D01*
X101688277Y-77032687D01*
X101651949Y-77056034D01*
X101629232Y-77082251D01*
X101570454Y-77120024D01*
X101500584Y-77120024D01*
X101441806Y-77082249D01*
X101422726Y-77052558D01*
X101382884Y-76965316D01*
X101382882Y-76965314D01*
X101382882Y-76965313D01*
X101298049Y-76867409D01*
X101189069Y-76797372D01*
X101189065Y-76797370D01*
X101189064Y-76797370D01*
X101064774Y-76760876D01*
X101064772Y-76760876D01*
X100935228Y-76760876D01*
X100935226Y-76760876D01*
X100810935Y-76797370D01*
X100810932Y-76797371D01*
X100810931Y-76797372D01*
X100759677Y-76830310D01*
X100701950Y-76867409D01*
X100617118Y-76965313D01*
X100617117Y-76965314D01*
X100563302Y-77083150D01*
X100544867Y-77211376D01*
X91600000Y-77211376D01*
X91600000Y-75432298D01*
X94144867Y-75432298D01*
X94163302Y-75560523D01*
X94217117Y-75678359D01*
X94217118Y-75678361D01*
X94301951Y-75776265D01*
X94410931Y-75846302D01*
X94535225Y-75882797D01*
X94535227Y-75882798D01*
X94535228Y-75882798D01*
X94664773Y-75882798D01*
X94664773Y-75882797D01*
X94789069Y-75846302D01*
X94898049Y-75776265D01*
X94982882Y-75678361D01*
X95036697Y-75560524D01*
X95055133Y-75432298D01*
X95036697Y-75304072D01*
X94982882Y-75186235D01*
X94898049Y-75088331D01*
X94789069Y-75018294D01*
X94789065Y-75018292D01*
X94789064Y-75018292D01*
X94664774Y-74981798D01*
X94664772Y-74981798D01*
X94535228Y-74981798D01*
X94535226Y-74981798D01*
X94410935Y-75018292D01*
X94410932Y-75018293D01*
X94410931Y-75018294D01*
X94359677Y-75051232D01*
X94301950Y-75088331D01*
X94217118Y-75186235D01*
X94217117Y-75186236D01*
X94163302Y-75304072D01*
X94144867Y-75432298D01*
X91600000Y-75432298D01*
X91600000Y-74124000D01*
X91619685Y-74056961D01*
X91672489Y-74011206D01*
X91724000Y-74000000D01*
X107976000Y-74000000D01*
X108043039Y-74019685D01*
G37*
%TD.AperFunction*%
%TD*%
M02*
