%TF.GenerationSoftware,KiCad,Pcbnew,8.0.6*%
%TF.CreationDate,2025-03-21T04:24:19-04:00*%
%TF.ProjectId,earworm_hardware,65617277-6f72-46d5-9f68-617264776172,rev?*%
%TF.SameCoordinates,Original*%
%TF.FileFunction,Legend,Bot*%
%TF.FilePolarity,Positive*%
%FSLAX46Y46*%
G04 Gerber Fmt 4.6, Leading zero omitted, Abs format (unit mm)*
G04 Created by KiCad (PCBNEW 8.0.6) date 2025-03-21 04:24:19*
%MOMM*%
%LPD*%
G01*
G04 APERTURE LIST*
%ADD10C,0.150000*%
%ADD11C,0.152400*%
%ADD12C,0.000000*%
%ADD13C,0.120000*%
G04 APERTURE END LIST*
D10*
X96200000Y-75000000D02*
X96200000Y-76000000D01*
X99939411Y-96269819D02*
X100510839Y-96269819D01*
X100225125Y-96269819D02*
X100225125Y-95269819D01*
X100225125Y-95269819D02*
X100320363Y-95412676D01*
X100320363Y-95412676D02*
X100415601Y-95507914D01*
X100415601Y-95507914D02*
X100510839Y-95555533D01*
X99510839Y-95888866D02*
X98748935Y-95888866D01*
X100510839Y-94065057D02*
X100463220Y-94017438D01*
X100463220Y-94017438D02*
X100367982Y-93969819D01*
X100367982Y-93969819D02*
X100129887Y-93969819D01*
X100129887Y-93969819D02*
X100034649Y-94017438D01*
X100034649Y-94017438D02*
X99987030Y-94065057D01*
X99987030Y-94065057D02*
X99939411Y-94160295D01*
X99939411Y-94160295D02*
X99939411Y-94255533D01*
X99939411Y-94255533D02*
X99987030Y-94398390D01*
X99987030Y-94398390D02*
X100558458Y-94969819D01*
X100558458Y-94969819D02*
X99939411Y-94969819D01*
X99510839Y-94588866D02*
X98748935Y-94588866D01*
X93610839Y-93965057D02*
X93563220Y-93917438D01*
X93563220Y-93917438D02*
X93467982Y-93869819D01*
X93467982Y-93869819D02*
X93229887Y-93869819D01*
X93229887Y-93869819D02*
X93134649Y-93917438D01*
X93134649Y-93917438D02*
X93087030Y-93965057D01*
X93087030Y-93965057D02*
X93039411Y-94060295D01*
X93039411Y-94060295D02*
X93039411Y-94155533D01*
X93039411Y-94155533D02*
X93087030Y-94298390D01*
X93087030Y-94298390D02*
X93658458Y-94869819D01*
X93658458Y-94869819D02*
X93039411Y-94869819D01*
X92610839Y-94488866D02*
X91848935Y-94488866D01*
X92229887Y-94869819D02*
X92229887Y-94107914D01*
X109729887Y-74494295D02*
X110110839Y-74494295D01*
X110110839Y-74494295D02*
X110148935Y-74875247D01*
X110148935Y-74875247D02*
X110110839Y-74837152D01*
X110110839Y-74837152D02*
X110034649Y-74799057D01*
X110034649Y-74799057D02*
X109844173Y-74799057D01*
X109844173Y-74799057D02*
X109767982Y-74837152D01*
X109767982Y-74837152D02*
X109729887Y-74875247D01*
X109729887Y-74875247D02*
X109691792Y-74951438D01*
X109691792Y-74951438D02*
X109691792Y-75141914D01*
X109691792Y-75141914D02*
X109729887Y-75218104D01*
X109729887Y-75218104D02*
X109767982Y-75256200D01*
X109767982Y-75256200D02*
X109844173Y-75294295D01*
X109844173Y-75294295D02*
X110034649Y-75294295D01*
X110034649Y-75294295D02*
X110110839Y-75256200D01*
X110110839Y-75256200D02*
X110148935Y-75218104D01*
X109310839Y-75294295D02*
X109158458Y-75294295D01*
X109158458Y-75294295D02*
X109082268Y-75256200D01*
X109082268Y-75256200D02*
X109044172Y-75218104D01*
X109044172Y-75218104D02*
X108967982Y-75103819D01*
X108967982Y-75103819D02*
X108929887Y-74951438D01*
X108929887Y-74951438D02*
X108929887Y-74646676D01*
X108929887Y-74646676D02*
X108967982Y-74570485D01*
X108967982Y-74570485D02*
X109006077Y-74532390D01*
X109006077Y-74532390D02*
X109082268Y-74494295D01*
X109082268Y-74494295D02*
X109234649Y-74494295D01*
X109234649Y-74494295D02*
X109310839Y-74532390D01*
X109310839Y-74532390D02*
X109348934Y-74570485D01*
X109348934Y-74570485D02*
X109387030Y-74646676D01*
X109387030Y-74646676D02*
X109387030Y-74837152D01*
X109387030Y-74837152D02*
X109348934Y-74913342D01*
X109348934Y-74913342D02*
X109310839Y-74951438D01*
X109310839Y-74951438D02*
X109234649Y-74989533D01*
X109234649Y-74989533D02*
X109082268Y-74989533D01*
X109082268Y-74989533D02*
X109006077Y-74951438D01*
X109006077Y-74951438D02*
X108967982Y-74913342D01*
X108967982Y-74913342D02*
X108929887Y-74837152D01*
X108472744Y-74837152D02*
X108548934Y-74799057D01*
X108548934Y-74799057D02*
X108587029Y-74760961D01*
X108587029Y-74760961D02*
X108625125Y-74684771D01*
X108625125Y-74684771D02*
X108625125Y-74646676D01*
X108625125Y-74646676D02*
X108587029Y-74570485D01*
X108587029Y-74570485D02*
X108548934Y-74532390D01*
X108548934Y-74532390D02*
X108472744Y-74494295D01*
X108472744Y-74494295D02*
X108320363Y-74494295D01*
X108320363Y-74494295D02*
X108244172Y-74532390D01*
X108244172Y-74532390D02*
X108206077Y-74570485D01*
X108206077Y-74570485D02*
X108167982Y-74646676D01*
X108167982Y-74646676D02*
X108167982Y-74684771D01*
X108167982Y-74684771D02*
X108206077Y-74760961D01*
X108206077Y-74760961D02*
X108244172Y-74799057D01*
X108244172Y-74799057D02*
X108320363Y-74837152D01*
X108320363Y-74837152D02*
X108472744Y-74837152D01*
X108472744Y-74837152D02*
X108548934Y-74875247D01*
X108548934Y-74875247D02*
X108587029Y-74913342D01*
X108587029Y-74913342D02*
X108625125Y-74989533D01*
X108625125Y-74989533D02*
X108625125Y-75141914D01*
X108625125Y-75141914D02*
X108587029Y-75218104D01*
X108587029Y-75218104D02*
X108548934Y-75256200D01*
X108548934Y-75256200D02*
X108472744Y-75294295D01*
X108472744Y-75294295D02*
X108320363Y-75294295D01*
X108320363Y-75294295D02*
X108244172Y-75256200D01*
X108244172Y-75256200D02*
X108206077Y-75218104D01*
X108206077Y-75218104D02*
X108167982Y-75141914D01*
X108167982Y-75141914D02*
X108167982Y-74989533D01*
X108167982Y-74989533D02*
X108206077Y-74913342D01*
X108206077Y-74913342D02*
X108244172Y-74875247D01*
X108244172Y-74875247D02*
X108320363Y-74837152D01*
X107215600Y-74989533D02*
X106606077Y-74989533D01*
X105615600Y-74875247D02*
X105348934Y-74875247D01*
X105234648Y-75294295D02*
X105615600Y-75294295D01*
X105615600Y-75294295D02*
X105615600Y-74494295D01*
X105615600Y-74494295D02*
X105234648Y-74494295D01*
X104929886Y-75065723D02*
X104548933Y-75065723D01*
X105006076Y-75294295D02*
X104739409Y-74494295D01*
X104739409Y-74494295D02*
X104472743Y-75294295D01*
X103748933Y-75294295D02*
X104015600Y-74913342D01*
X104206076Y-75294295D02*
X104206076Y-74494295D01*
X104206076Y-74494295D02*
X103901314Y-74494295D01*
X103901314Y-74494295D02*
X103825124Y-74532390D01*
X103825124Y-74532390D02*
X103787029Y-74570485D01*
X103787029Y-74570485D02*
X103748933Y-74646676D01*
X103748933Y-74646676D02*
X103748933Y-74760961D01*
X103748933Y-74760961D02*
X103787029Y-74837152D01*
X103787029Y-74837152D02*
X103825124Y-74875247D01*
X103825124Y-74875247D02*
X103901314Y-74913342D01*
X103901314Y-74913342D02*
X104206076Y-74913342D01*
X103482267Y-74494295D02*
X103291791Y-75294295D01*
X103291791Y-75294295D02*
X103139410Y-74722866D01*
X103139410Y-74722866D02*
X102987029Y-75294295D01*
X102987029Y-75294295D02*
X102796553Y-74494295D01*
X102339409Y-74494295D02*
X102187028Y-74494295D01*
X102187028Y-74494295D02*
X102110838Y-74532390D01*
X102110838Y-74532390D02*
X102034647Y-74608580D01*
X102034647Y-74608580D02*
X101996552Y-74760961D01*
X101996552Y-74760961D02*
X101996552Y-75027628D01*
X101996552Y-75027628D02*
X102034647Y-75180009D01*
X102034647Y-75180009D02*
X102110838Y-75256200D01*
X102110838Y-75256200D02*
X102187028Y-75294295D01*
X102187028Y-75294295D02*
X102339409Y-75294295D01*
X102339409Y-75294295D02*
X102415600Y-75256200D01*
X102415600Y-75256200D02*
X102491790Y-75180009D01*
X102491790Y-75180009D02*
X102529886Y-75027628D01*
X102529886Y-75027628D02*
X102529886Y-74760961D01*
X102529886Y-74760961D02*
X102491790Y-74608580D01*
X102491790Y-74608580D02*
X102415600Y-74532390D01*
X102415600Y-74532390D02*
X102339409Y-74494295D01*
X101196552Y-75294295D02*
X101463219Y-74913342D01*
X101653695Y-75294295D02*
X101653695Y-74494295D01*
X101653695Y-74494295D02*
X101348933Y-74494295D01*
X101348933Y-74494295D02*
X101272743Y-74532390D01*
X101272743Y-74532390D02*
X101234648Y-74570485D01*
X101234648Y-74570485D02*
X101196552Y-74646676D01*
X101196552Y-74646676D02*
X101196552Y-74760961D01*
X101196552Y-74760961D02*
X101234648Y-74837152D01*
X101234648Y-74837152D02*
X101272743Y-74875247D01*
X101272743Y-74875247D02*
X101348933Y-74913342D01*
X101348933Y-74913342D02*
X101653695Y-74913342D01*
X100853695Y-75294295D02*
X100853695Y-74494295D01*
X100853695Y-74494295D02*
X100587029Y-75065723D01*
X100587029Y-75065723D02*
X100320362Y-74494295D01*
X100320362Y-74494295D02*
X100320362Y-75294295D01*
X93139411Y-96169819D02*
X93710839Y-96169819D01*
X93425125Y-96169819D02*
X93425125Y-95169819D01*
X93425125Y-95169819D02*
X93520363Y-95312676D01*
X93520363Y-95312676D02*
X93615601Y-95407914D01*
X93615601Y-95407914D02*
X93710839Y-95455533D01*
X92710839Y-95788866D02*
X91948935Y-95788866D01*
X92329887Y-96169819D02*
X92329887Y-95407914D01*
X93997895Y-78777899D02*
X94188371Y-78777899D01*
X94112180Y-78587423D02*
X94188371Y-78777899D01*
X94188371Y-78777899D02*
X94112180Y-78968376D01*
X94340752Y-78663614D02*
X94188371Y-78777899D01*
X94188371Y-78777899D02*
X94340752Y-78892185D01*
X94980780Y-78777899D02*
X94742685Y-78777899D01*
X94837923Y-79015994D02*
X94742685Y-78777899D01*
X94742685Y-78777899D02*
X94837923Y-78539804D01*
X94552209Y-78920756D02*
X94742685Y-78777899D01*
X94742685Y-78777899D02*
X94552209Y-78635042D01*
X107320180Y-87899018D02*
X107082085Y-87899018D01*
X107177323Y-87660923D02*
X107082085Y-87899018D01*
X107082085Y-87899018D02*
X107177323Y-88137113D01*
X106891609Y-87756161D02*
X107082085Y-87899018D01*
X107082085Y-87899018D02*
X106891609Y-88041875D01*
X100861904Y-82654819D02*
X100290476Y-82654819D01*
X100576190Y-83654819D02*
X100576190Y-82654819D01*
X99957142Y-83654819D02*
X99957142Y-82654819D01*
X99957142Y-82654819D02*
X99576190Y-82654819D01*
X99576190Y-82654819D02*
X99480952Y-82702438D01*
X99480952Y-82702438D02*
X99433333Y-82750057D01*
X99433333Y-82750057D02*
X99385714Y-82845295D01*
X99385714Y-82845295D02*
X99385714Y-82988152D01*
X99385714Y-82988152D02*
X99433333Y-83083390D01*
X99433333Y-83083390D02*
X99480952Y-83131009D01*
X99480952Y-83131009D02*
X99576190Y-83178628D01*
X99576190Y-83178628D02*
X99957142Y-83178628D01*
X99052380Y-82654819D02*
X98433333Y-82654819D01*
X98433333Y-82654819D02*
X98766666Y-83035771D01*
X98766666Y-83035771D02*
X98623809Y-83035771D01*
X98623809Y-83035771D02*
X98528571Y-83083390D01*
X98528571Y-83083390D02*
X98480952Y-83131009D01*
X98480952Y-83131009D02*
X98433333Y-83226247D01*
X98433333Y-83226247D02*
X98433333Y-83464342D01*
X98433333Y-83464342D02*
X98480952Y-83559580D01*
X98480952Y-83559580D02*
X98528571Y-83607200D01*
X98528571Y-83607200D02*
X98623809Y-83654819D01*
X98623809Y-83654819D02*
X98909523Y-83654819D01*
X98909523Y-83654819D02*
X99004761Y-83607200D01*
X99004761Y-83607200D02*
X99052380Y-83559580D01*
X102661904Y-77354819D02*
X102090476Y-77354819D01*
X102376190Y-78354819D02*
X102376190Y-77354819D01*
X101757142Y-78354819D02*
X101757142Y-77354819D01*
X101757142Y-77354819D02*
X101376190Y-77354819D01*
X101376190Y-77354819D02*
X101280952Y-77402438D01*
X101280952Y-77402438D02*
X101233333Y-77450057D01*
X101233333Y-77450057D02*
X101185714Y-77545295D01*
X101185714Y-77545295D02*
X101185714Y-77688152D01*
X101185714Y-77688152D02*
X101233333Y-77783390D01*
X101233333Y-77783390D02*
X101280952Y-77831009D01*
X101280952Y-77831009D02*
X101376190Y-77878628D01*
X101376190Y-77878628D02*
X101757142Y-77878628D01*
X100804761Y-77450057D02*
X100757142Y-77402438D01*
X100757142Y-77402438D02*
X100661904Y-77354819D01*
X100661904Y-77354819D02*
X100423809Y-77354819D01*
X100423809Y-77354819D02*
X100328571Y-77402438D01*
X100328571Y-77402438D02*
X100280952Y-77450057D01*
X100280952Y-77450057D02*
X100233333Y-77545295D01*
X100233333Y-77545295D02*
X100233333Y-77640533D01*
X100233333Y-77640533D02*
X100280952Y-77783390D01*
X100280952Y-77783390D02*
X100852380Y-78354819D01*
X100852380Y-78354819D02*
X100233333Y-78354819D01*
X99361904Y-79454819D02*
X98790476Y-79454819D01*
X99076190Y-80454819D02*
X99076190Y-79454819D01*
X98457142Y-80454819D02*
X98457142Y-79454819D01*
X98457142Y-79454819D02*
X98076190Y-79454819D01*
X98076190Y-79454819D02*
X97980952Y-79502438D01*
X97980952Y-79502438D02*
X97933333Y-79550057D01*
X97933333Y-79550057D02*
X97885714Y-79645295D01*
X97885714Y-79645295D02*
X97885714Y-79788152D01*
X97885714Y-79788152D02*
X97933333Y-79883390D01*
X97933333Y-79883390D02*
X97980952Y-79931009D01*
X97980952Y-79931009D02*
X98076190Y-79978628D01*
X98076190Y-79978628D02*
X98457142Y-79978628D01*
X96933333Y-80454819D02*
X97504761Y-80454819D01*
X97219047Y-80454819D02*
X97219047Y-79454819D01*
X97219047Y-79454819D02*
X97314285Y-79597676D01*
X97314285Y-79597676D02*
X97409523Y-79692914D01*
X97409523Y-79692914D02*
X97504761Y-79740533D01*
D11*
%TO.C,U2*%
X92364800Y-77604685D02*
X92364800Y-78219100D01*
X95006400Y-78219100D02*
X95006400Y-77604685D01*
X92364800Y-75653700D02*
X92364800Y-76268115D01*
X95006400Y-76268115D02*
X95006400Y-75653700D01*
D12*
G36*
X94626101Y-75628300D02*
G01*
X94245101Y-75628300D01*
X94245101Y-75374300D01*
X94626101Y-75374300D01*
X94626101Y-75628300D01*
G37*
D13*
%TO.C,R6*%
X97536359Y-95420000D02*
X97843641Y-95420000D01*
X97536359Y-96180000D02*
X97843641Y-96180000D01*
%TO.C,R8*%
X94746359Y-95420000D02*
X95053641Y-95420000D01*
X94746359Y-96180000D02*
X95053641Y-96180000D01*
%TO.C,TP3*%
X97950000Y-83100000D02*
G75*
G02*
X96050000Y-83100000I-950000J0D01*
G01*
X96050000Y-83100000D02*
G75*
G02*
X97950000Y-83100000I950000J0D01*
G01*
%TO.C,R7*%
X94736359Y-94320000D02*
X95043641Y-94320000D01*
X94736359Y-95080000D02*
X95043641Y-95080000D01*
%TO.C,R5*%
X97536359Y-94320000D02*
X97843641Y-94320000D01*
X97536359Y-95080000D02*
X97843641Y-95080000D01*
%TO.C,TP2*%
X99850000Y-77800000D02*
G75*
G02*
X97950000Y-77800000I-950000J0D01*
G01*
X97950000Y-77800000D02*
G75*
G02*
X99850000Y-77800000I950000J0D01*
G01*
%TO.C,TP1*%
X96750000Y-79700000D02*
G75*
G02*
X94850000Y-79700000I-950000J0D01*
G01*
X94850000Y-79700000D02*
G75*
G02*
X96750000Y-79700000I950000J0D01*
G01*
%TO.C,C13*%
X92972164Y-74340000D02*
X93187836Y-74340000D01*
X92972164Y-75060000D02*
X93187836Y-75060000D01*
%TO.C,J3*%
X103745000Y-80740000D02*
X103745000Y-78860000D01*
X110455000Y-80740000D02*
X110455000Y-78860000D01*
%TO.C,C19*%
X95330000Y-85870000D02*
X96660000Y-85870000D01*
X95330000Y-87200000D02*
X95330000Y-85870000D01*
X97930000Y-88530000D02*
X97930000Y-85870000D01*
X100530000Y-85870000D02*
X97930000Y-85870000D01*
X100530000Y-88530000D02*
X97930000Y-88530000D01*
X100530000Y-88530000D02*
X100530000Y-85870000D01*
%TO.C,C10*%
X97665580Y-74990000D02*
X97384420Y-74990000D01*
X97665580Y-76010000D02*
X97384420Y-76010000D01*
%TO.C,R2*%
X96763641Y-76320000D02*
X96456359Y-76320000D01*
X96763641Y-77080000D02*
X96456359Y-77080000D01*
%TO.C,C11*%
X96727836Y-77340000D02*
X96512164Y-77340000D01*
X96727836Y-78060000D02*
X96512164Y-78060000D01*
%TD*%
M02*
