%TF.GenerationSoftware,KiCad,Pcbnew,8.0.6*%
%TF.CreationDate,2025-03-21T04:24:17-04:00*%
%TF.ProjectId,earworm_hardware,65617277-6f72-46d5-9f68-617264776172,rev?*%
%TF.SameCoordinates,Original*%
%TF.FileFunction,Copper,L4,Bot*%
%TF.FilePolarity,Positive*%
%FSLAX46Y46*%
G04 Gerber Fmt 4.6, Leading zero omitted, Abs format (unit mm)*
G04 Created by KiCad (PCBNEW 8.0.6) date 2025-03-21 04:24:17*
%MOMM*%
%LPD*%
G01*
G04 APERTURE LIST*
G04 Aperture macros list*
%AMRoundRect*
0 Rectangle with rounded corners*
0 $1 Rounding radius*
0 $2 $3 $4 $5 $6 $7 $8 $9 X,Y pos of 4 corners*
0 Add a 4 corners polygon primitive as box body*
4,1,4,$2,$3,$4,$5,$6,$7,$8,$9,$2,$3,0*
0 Add four circle primitives for the rounded corners*
1,1,$1+$1,$2,$3*
1,1,$1+$1,$4,$5*
1,1,$1+$1,$6,$7*
1,1,$1+$1,$8,$9*
0 Add four rect primitives between the rounded corners*
20,1,$1+$1,$2,$3,$4,$5,0*
20,1,$1+$1,$4,$5,$6,$7,0*
20,1,$1+$1,$6,$7,$8,$9,0*
20,1,$1+$1,$8,$9,$2,$3,0*%
%AMFreePoly0*
4,1,25,3.555000,-1.595000,1.645000,-1.595000,1.500000,-1.420000,1.360000,-1.280000,1.205000,-1.155000,1.035000,-1.045000,0.860000,-0.950000,0.675000,-0.875000,0.480000,-0.820000,0.280000,-0.780000,0.085000,-0.765000,-0.085000,-0.765000,-0.280000,-0.780000,-0.480000,-0.820000,-0.675000,-0.875000,-0.860000,-0.950000,-1.035000,-1.045000,-1.205000,-1.155000,-1.360000,-1.280000,-1.500000,-1.420000,
-1.645000,-1.595000,-3.555000,-1.595000,-3.555000,0.755000,3.555000,0.755000,3.555000,-1.595000,3.555000,-1.595000,$1*%
G04 Aperture macros list end*
%TA.AperFunction,Conductor*%
%ADD10C,0.200000*%
%TD*%
%TA.AperFunction,SMDPad,CuDef*%
%ADD11R,0.310200X0.381000*%
%TD*%
%TA.AperFunction,SMDPad,CuDef*%
%ADD12R,0.381000X0.310000*%
%TD*%
%TA.AperFunction,SMDPad,CuDef*%
%ADD13R,0.381000X0.310200*%
%TD*%
%TA.AperFunction,ComponentPad*%
%ADD14R,1.700000X1.700000*%
%TD*%
%TA.AperFunction,ComponentPad*%
%ADD15O,1.700000X1.700000*%
%TD*%
%TA.AperFunction,SMDPad,CuDef*%
%ADD16RoundRect,0.135000X0.135000X0.185000X-0.135000X0.185000X-0.135000X-0.185000X0.135000X-0.185000X0*%
%TD*%
%TA.AperFunction,SMDPad,CuDef*%
%ADD17RoundRect,0.147500X-0.147500X-0.172500X0.147500X-0.172500X0.147500X0.172500X-0.147500X0.172500X0*%
%TD*%
%TA.AperFunction,SMDPad,CuDef*%
%ADD18C,1.500000*%
%TD*%
%TA.AperFunction,SMDPad,CuDef*%
%ADD19RoundRect,0.140000X0.140000X0.170000X-0.140000X0.170000X-0.140000X-0.170000X0.140000X-0.170000X0*%
%TD*%
%TA.AperFunction,SMDPad,CuDef*%
%ADD20C,1.730000*%
%TD*%
%TA.AperFunction,SMDPad,CuDef*%
%ADD21FreePoly0,180.000000*%
%TD*%
%TA.AperFunction,SMDPad,CuDef*%
%ADD22FreePoly0,0.000000*%
%TD*%
%TA.AperFunction,SMDPad,CuDef*%
%ADD23RoundRect,0.225000X-0.225000X-0.250000X0.225000X-0.250000X0.225000X0.250000X-0.225000X0.250000X0*%
%TD*%
%TA.AperFunction,SMDPad,CuDef*%
%ADD24RoundRect,0.135000X-0.135000X-0.185000X0.135000X-0.185000X0.135000X0.185000X-0.135000X0.185000X0*%
%TD*%
%TA.AperFunction,SMDPad,CuDef*%
%ADD25RoundRect,0.140000X-0.140000X-0.170000X0.140000X-0.170000X0.140000X0.170000X-0.140000X0.170000X0*%
%TD*%
%TA.AperFunction,ViaPad*%
%ADD26C,0.500000*%
%TD*%
%TA.AperFunction,ViaPad*%
%ADD27C,0.800000*%
%TD*%
%TA.AperFunction,Conductor*%
%ADD28C,0.250000*%
%TD*%
G04 APERTURE END LIST*
D10*
%TO.N,/nRF54L15 RFSoC/RF*%
X107700000Y-80700000D02*
X107800000Y-79900000D01*
X107700000Y-80700000D02*
X106800000Y-80500000D01*
%TD*%
D11*
%TO.P,U2,1,SCLK*%
%TO.N,Net-(U1-P2.01)*%
X94435601Y-77800000D03*
%TO.P,U2,2,MOSI/SDA*%
%TO.N,Net-(U1-P2.02)*%
X93935600Y-77800000D03*
%TO.P,U2,3,MISO/ASEL*%
%TO.N,Net-(U1-P2.04)*%
X93435600Y-77800000D03*
%TO.P,U2,4,\u002ACS/SCL*%
%TO.N,Net-(U1-P2.05)*%
X92935599Y-77800000D03*
D12*
%TO.P,U2,5,INT1*%
%TO.N,Net-(U1-P2.06)*%
X92771200Y-77186400D03*
D13*
%TO.P,U2,6,INT2*%
%TO.N,unconnected-(U2-INT2-Pad6)*%
X92771200Y-76686400D03*
D11*
%TO.P,U2,7,GND*%
%TO.N,GND*%
X92935599Y-76072800D03*
%TO.P,U2,8,ADC_IN*%
X93435600Y-76072800D03*
%TO.P,U2,9,VREG_OUT*%
%TO.N,Net-(U2-VREG_OUT)*%
X93935600Y-76072800D03*
%TO.P,U2,10,VS*%
%TO.N,Net-(U2-VS)*%
X94435601Y-76072800D03*
D13*
%TO.P,U2,11,GND*%
%TO.N,GND*%
X94600000Y-76686400D03*
%TO.P,U2,12,VDDIO*%
%TO.N,Net-(U2-VDDIO)*%
X94600000Y-77186400D03*
%TD*%
D14*
%TO.P,J2,1,Pin_1*%
%TO.N,Net-(J2-Pin_1)*%
X108800000Y-86975000D03*
D15*
%TO.P,J2,2,Pin_2*%
%TO.N,GND*%
X108800000Y-84435000D03*
%TD*%
D14*
%TO.P,J1,1,Pin_1*%
%TO.N,GND*%
X93560000Y-98600000D03*
D15*
%TO.P,J1,2,Pin_2*%
%TO.N,VDD*%
X96100000Y-98600000D03*
%TO.P,J1,3,Pin_3*%
%TO.N,/nRF54L15 RFSoC/NRST*%
X98640000Y-98600000D03*
%TO.P,J1,4,Pin_4*%
%TO.N,/nRF54L15 RFSoC/SWDIO*%
X101180000Y-98600000D03*
%TO.P,J1,5,Pin_5*%
%TO.N,/nRF54L15 RFSoC/SWCLK*%
X103720000Y-98600000D03*
%TD*%
D16*
%TO.P,R6,1*%
%TO.N,GND*%
X98200000Y-95800000D03*
%TO.P,R6,2*%
%TO.N,Net-(U3-VS1)*%
X97180000Y-95800000D03*
%TD*%
%TO.P,R8,1*%
%TO.N,Net-(U3-VS1)*%
X95410000Y-95800000D03*
%TO.P,R8,2*%
%TO.N,Net-(U3-VAUX)*%
X94390000Y-95800000D03*
%TD*%
D17*
%TO.P,FB1,1*%
%TO.N,VDD*%
X94600000Y-74700000D03*
%TO.P,FB1,2*%
%TO.N,Net-(U2-VS)*%
X95570000Y-74700000D03*
%TD*%
D18*
%TO.P,TP3,1,1*%
%TO.N,Net-(U1-P1.07)*%
X97000000Y-83100000D03*
%TD*%
D16*
%TO.P,R7,1*%
%TO.N,Net-(U3-VS2)*%
X95400000Y-94700000D03*
%TO.P,R7,2*%
%TO.N,Net-(U3-VAUX)*%
X94380000Y-94700000D03*
%TD*%
%TO.P,R5,1*%
%TO.N,GND*%
X98200000Y-94700000D03*
%TO.P,R5,2*%
%TO.N,Net-(U3-VS2)*%
X97180000Y-94700000D03*
%TD*%
D18*
%TO.P,TP2,1,1*%
%TO.N,Net-(U1-P1.05)*%
X98900000Y-77800000D03*
%TD*%
%TO.P,TP1,1,1*%
%TO.N,Net-(U1-P1.03)*%
X95800000Y-79700000D03*
%TD*%
D19*
%TO.P,C13,1*%
%TO.N,Net-(U2-VREG_OUT)*%
X93560000Y-74700000D03*
%TO.P,C13,2*%
%TO.N,GND*%
X92600000Y-74700000D03*
%TD*%
D20*
%TO.P,J3,1,In*%
%TO.N,/nRF54L15 RFSoC/RF*%
X107100000Y-79800000D03*
D21*
%TO.P,J3,2,Ext*%
%TO.N,GND*%
X107100000Y-82600000D03*
D22*
X107100000Y-77000000D03*
%TD*%
D14*
%TO.P,C19,1*%
%TO.N,/Thermal Energy Harvesting Chain/VSTORE*%
X96660000Y-87200000D03*
D15*
%TO.P,C19,2*%
%TO.N,GND*%
X99200000Y-87200000D03*
%TD*%
D23*
%TO.P,C10,1*%
%TO.N,Net-(U2-VS)*%
X96750000Y-75500000D03*
%TO.P,C10,2*%
%TO.N,GND*%
X98300000Y-75500000D03*
%TD*%
D24*
%TO.P,R2,1*%
%TO.N,Net-(U2-VS)*%
X96100000Y-76700000D03*
%TO.P,R2,2*%
%TO.N,Net-(U2-VDDIO)*%
X97120000Y-76700000D03*
%TD*%
D25*
%TO.P,C11,1*%
%TO.N,Net-(U2-VDDIO)*%
X96140000Y-77700000D03*
%TO.P,C11,2*%
%TO.N,GND*%
X97100000Y-77700000D03*
%TD*%
D26*
%TO.N,GND*%
X92900000Y-90600000D03*
X107800000Y-75800000D03*
X97200000Y-80900000D03*
X96490000Y-93770000D03*
X92000000Y-76500000D03*
X96490000Y-91710000D03*
X107800000Y-77800000D03*
X94800000Y-87800000D03*
X107150000Y-98300000D03*
X100500000Y-74400000D03*
X104750000Y-95050000D03*
X107800000Y-76800000D03*
X96475000Y-92687500D03*
X93800000Y-82000000D03*
X104900000Y-82300000D03*
X99855001Y-76429753D03*
X101100000Y-95200000D03*
X99000000Y-82700000D03*
X101200000Y-86000000D03*
X104500000Y-91000000D03*
X103300000Y-74400000D03*
X93800000Y-81300000D03*
X109350000Y-82800000D03*
X104200000Y-88300000D03*
X92900000Y-75400000D03*
X98000000Y-89250000D03*
X110250000Y-82800000D03*
X100400000Y-79200000D03*
X100800000Y-82800000D03*
X98900000Y-79200000D03*
X102750000Y-78050000D03*
X108900000Y-96100000D03*
X107800000Y-74800000D03*
X107800000Y-82500000D03*
X104200000Y-83450000D03*
X107800000Y-78600000D03*
X100800000Y-81000000D03*
X92100000Y-84500000D03*
X98900000Y-80900000D03*
X108500000Y-82800000D03*
%TO.N,VDD*%
X101950000Y-77400000D03*
X94600000Y-75432298D03*
D27*
X93400000Y-87700000D03*
D26*
X99600000Y-85700000D03*
X95400000Y-78200000D03*
D27*
X92300000Y-91700000D03*
D26*
X95200000Y-82100000D03*
%TO.N,Net-(U1-DECA)*%
X103100000Y-79800000D03*
X101000000Y-77211376D03*
%TO.N,Net-(U3-VAUX)*%
X95025000Y-90800000D03*
X94237500Y-93437500D03*
%TO.N,/nRF54L15 RFSoC/RF*%
X107700000Y-80700000D03*
%TO.N,/nRF54L15 RFSoC/SWDIO*%
X99400000Y-89395000D03*
%TO.N,/nRF54L15 RFSoC/NRST*%
X98800000Y-89900000D03*
%TO.N,/nRF54L15 RFSoC/SWCLK*%
X100300003Y-89395000D03*
%TO.N,Net-(U1-P2.06)*%
X98700000Y-85000000D03*
%TO.N,Net-(U1-P2.05)*%
X97996000Y-85003000D03*
%TO.N,Net-(U1-P2.01)*%
X95157089Y-82857089D03*
%TO.N,Net-(U1-P2.04)*%
X97400000Y-84700000D03*
%TO.N,Net-(U1-P2.02)*%
X95800000Y-84200000D03*
%TO.N,Net-(U3-VS2)*%
X96300000Y-94900000D03*
%TO.N,Net-(U3-VS1)*%
X96300000Y-95800000D03*
%TO.N,Net-(U1-P1.03)*%
X94940601Y-80144997D03*
%TO.N,Net-(U1-P1.05)*%
X94940601Y-80800000D03*
%TO.N,Net-(U1-P1.07)*%
X94940601Y-81498553D03*
%TD*%
D10*
%TO.N,/nRF54L15 RFSoC/NRST*%
X98800000Y-89900000D02*
X98900000Y-89900000D01*
X98900000Y-89900000D02*
X101700000Y-92700000D01*
X101700000Y-92700000D02*
X101700000Y-95540000D01*
X101700000Y-95540000D02*
X98700000Y-98540000D01*
%TO.N,/nRF54L15 RFSoC/SWCLK*%
X100300003Y-89395000D02*
X100300003Y-89500003D01*
X100300003Y-89500003D02*
X102900000Y-92100000D01*
X102900000Y-92100000D02*
X102900000Y-97020000D01*
X102900000Y-97020000D02*
X103780000Y-97900000D01*
%TO.N,/nRF54L15 RFSoC/SWDIO*%
X99400000Y-89395000D02*
X102300000Y-92295000D01*
X102300000Y-92295000D02*
X102300000Y-97480000D01*
X102300000Y-97480000D02*
X101180000Y-98600000D01*
%TO.N,Net-(U1-P2.04)*%
X95000000Y-84600000D02*
X92900000Y-82500000D01*
X92900000Y-82500000D02*
X92900000Y-78700000D01*
X92900000Y-78700000D02*
X93435600Y-78164400D01*
X93435600Y-78164400D02*
X93435600Y-77800000D01*
%TO.N,Net-(U1-P1.05)*%
X94940601Y-80800000D02*
X96200000Y-80800000D01*
X96200000Y-80800000D02*
X98900000Y-78100000D01*
%TO.N,VDD*%
X94600000Y-75432298D02*
X94600000Y-74700000D01*
%TO.N,Net-(U2-VREG_OUT)*%
X93935600Y-75075600D02*
X93560000Y-74700000D01*
X93935600Y-75972800D02*
X93935600Y-75075600D01*
%TO.N,Net-(U2-VDDIO)*%
X96140000Y-77680000D02*
X97120000Y-76700000D01*
X96140000Y-77700000D02*
X95700000Y-77700000D01*
X95700000Y-77700000D02*
X95186400Y-77186400D01*
X95186400Y-77186400D02*
X94600000Y-77186400D01*
X96140000Y-77700000D02*
X96140000Y-77680000D01*
%TO.N,Net-(U1-DECA)*%
X101100000Y-77311376D02*
X101000000Y-77211376D01*
X101100000Y-79400000D02*
X101100000Y-77311376D01*
X103100000Y-79800000D02*
X101500000Y-79800000D01*
X101500000Y-79800000D02*
X101100000Y-79400000D01*
D28*
%TO.N,Net-(U3-VAUX)*%
X94300000Y-93500000D02*
X94237500Y-93437500D01*
D10*
X94300000Y-93375000D02*
X94237500Y-93437500D01*
D28*
X94380000Y-94700000D02*
X94300000Y-94620000D01*
X94290000Y-95800000D02*
X94290000Y-94685000D01*
X94300000Y-94620000D02*
X94300000Y-93500000D01*
D10*
X95025000Y-90800000D02*
X94300000Y-91525000D01*
X94300000Y-91525000D02*
X94300000Y-93375000D01*
%TO.N,/nRF54L15 RFSoC/RF*%
X107700000Y-80700000D02*
X107500000Y-80500000D01*
%TO.N,Net-(U1-P2.06)*%
X98700000Y-85100000D02*
X98150000Y-85650000D01*
X92100000Y-77400000D02*
X92313600Y-77186400D01*
X92313600Y-77186400D02*
X92771200Y-77186400D01*
X94650000Y-85650000D02*
X92100000Y-83100000D01*
X98150000Y-85650000D02*
X94650000Y-85650000D01*
X98700000Y-85000000D02*
X98700000Y-85100000D01*
X92100000Y-83100000D02*
X92100000Y-77400000D01*
%TO.N,Net-(U1-P2.05)*%
X97996000Y-85003000D02*
X97729000Y-85270000D01*
X92500000Y-82800000D02*
X92500000Y-78235599D01*
X92500000Y-78235599D02*
X92935599Y-77800000D01*
X94970000Y-85270000D02*
X92500000Y-82800000D01*
X97729000Y-85270000D02*
X94970000Y-85270000D01*
%TO.N,Net-(U1-P2.01)*%
X94905000Y-82605000D02*
X94890822Y-82605000D01*
X95157089Y-82857089D02*
X94905000Y-82605000D01*
X94435601Y-82149779D02*
X94435601Y-77800000D01*
X94890822Y-82605000D02*
X94435601Y-82149779D01*
%TO.N,Net-(U1-P2.04)*%
X97340000Y-84760000D02*
X95150000Y-84760000D01*
X95150000Y-84760000D02*
X94990000Y-84600000D01*
X97400000Y-84700000D02*
X97340000Y-84760000D01*
%TO.N,Net-(U1-P2.02)*%
X95135822Y-84200000D02*
X93295000Y-82359178D01*
X93295000Y-79004999D02*
X93935600Y-78364399D01*
X93295000Y-82359178D02*
X93295000Y-79004999D01*
X95800000Y-84200000D02*
X95135822Y-84200000D01*
X93935600Y-78364399D02*
X93935600Y-77800000D01*
D28*
%TO.N,Net-(U3-VS2)*%
X96300000Y-94900000D02*
X96980000Y-94900000D01*
X96980000Y-94900000D02*
X97180000Y-94700000D01*
X96300000Y-94900000D02*
X95600000Y-94900000D01*
X95600000Y-94900000D02*
X95400000Y-94700000D01*
%TO.N,Net-(U3-VS1)*%
X95310000Y-95800000D02*
X97180000Y-95800000D01*
%TO.N,Net-(U1-P1.03)*%
X95272823Y-80144997D02*
X95717820Y-79700000D01*
X94940601Y-80144997D02*
X95272823Y-80144997D01*
%TO.N,Net-(U1-P1.07)*%
X94940601Y-81498553D02*
X95398553Y-81498553D01*
X95398553Y-81498553D02*
X97000000Y-83100000D01*
%TD*%
%TA.AperFunction,Conductor*%
%TO.N,GND*%
G36*
X93367804Y-74018907D02*
G01*
X93403768Y-74068407D01*
X93403768Y-74129593D01*
X93367804Y-74179093D01*
X93337315Y-74194045D01*
X93330511Y-74196027D01*
X93221686Y-74246774D01*
X93136774Y-74331686D01*
X93086029Y-74440510D01*
X93086028Y-74440511D01*
X93079500Y-74490100D01*
X93079500Y-74909896D01*
X93079501Y-74909907D01*
X93086027Y-74959486D01*
X93086027Y-74959488D01*
X93136774Y-75068313D01*
X93136775Y-75068314D01*
X93136776Y-75068316D01*
X93221684Y-75153224D01*
X93221685Y-75153224D01*
X93221686Y-75153225D01*
X93232655Y-75158340D01*
X93330513Y-75203972D01*
X93380099Y-75210500D01*
X93536100Y-75210499D01*
X93594290Y-75229406D01*
X93630254Y-75278906D01*
X93635100Y-75309499D01*
X93635100Y-75708985D01*
X93618415Y-75763987D01*
X93591634Y-75804066D01*
X93591632Y-75804072D01*
X93580001Y-75862541D01*
X93580000Y-75862553D01*
X93580000Y-76283046D01*
X93580001Y-76283058D01*
X93591632Y-76341527D01*
X93591634Y-76341533D01*
X93634376Y-76405500D01*
X93635948Y-76407852D01*
X93702269Y-76452167D01*
X93746731Y-76461011D01*
X93760741Y-76463798D01*
X93760746Y-76463798D01*
X93760752Y-76463800D01*
X93760753Y-76463800D01*
X94110447Y-76463800D01*
X94110448Y-76463800D01*
X94110449Y-76463799D01*
X94110455Y-76463799D01*
X94134428Y-76459029D01*
X94166287Y-76452693D01*
X94204914Y-76452693D01*
X94221096Y-76455911D01*
X94260744Y-76463799D01*
X94260751Y-76463799D01*
X94260753Y-76463800D01*
X94260754Y-76463800D01*
X94610448Y-76463800D01*
X94610449Y-76463800D01*
X94668932Y-76452167D01*
X94698784Y-76432219D01*
X94713803Y-76422185D01*
X94768805Y-76405500D01*
X95173872Y-76405500D01*
X95232063Y-76424407D01*
X95243876Y-76434496D01*
X95265504Y-76456124D01*
X95293281Y-76510641D01*
X95294500Y-76526128D01*
X95294500Y-76786900D01*
X95275593Y-76845091D01*
X95226093Y-76881055D01*
X95195500Y-76885900D01*
X94963815Y-76885900D01*
X94908813Y-76869215D01*
X94868733Y-76842434D01*
X94868731Y-76842433D01*
X94868728Y-76842432D01*
X94868727Y-76842432D01*
X94810258Y-76830801D01*
X94810248Y-76830800D01*
X94389752Y-76830800D01*
X94389751Y-76830800D01*
X94389741Y-76830801D01*
X94331272Y-76842432D01*
X94331266Y-76842434D01*
X94264951Y-76886745D01*
X94264945Y-76886751D01*
X94220634Y-76953066D01*
X94220632Y-76953072D01*
X94209001Y-77011541D01*
X94209000Y-77011553D01*
X94209000Y-77310000D01*
X94190093Y-77368191D01*
X94140593Y-77404155D01*
X94110000Y-77409000D01*
X93760749Y-77409000D01*
X93720126Y-77417081D01*
X93704913Y-77420107D01*
X93666287Y-77420107D01*
X93651074Y-77417081D01*
X93610450Y-77409000D01*
X93610448Y-77409000D01*
X93261200Y-77409000D01*
X93203009Y-77390093D01*
X93167045Y-77340593D01*
X93162200Y-77310000D01*
X93162200Y-77011653D01*
X93162199Y-77011644D01*
X93154546Y-76973173D01*
X93151083Y-76955763D01*
X93151083Y-76917136D01*
X93158260Y-76881055D01*
X93162199Y-76861255D01*
X93162200Y-76861246D01*
X93162200Y-76511553D01*
X93162198Y-76511541D01*
X93156942Y-76485120D01*
X93150567Y-76453069D01*
X93106252Y-76386748D01*
X93106248Y-76386745D01*
X93039933Y-76342434D01*
X93039931Y-76342433D01*
X93039928Y-76342432D01*
X93039927Y-76342432D01*
X92981458Y-76330801D01*
X92981448Y-76330800D01*
X92560952Y-76330800D01*
X92560951Y-76330800D01*
X92560941Y-76330801D01*
X92502472Y-76342432D01*
X92502466Y-76342434D01*
X92436151Y-76386745D01*
X92436145Y-76386751D01*
X92391834Y-76453066D01*
X92391832Y-76453072D01*
X92380201Y-76511541D01*
X92380200Y-76511553D01*
X92380200Y-76786900D01*
X92361293Y-76845091D01*
X92311793Y-76881055D01*
X92281200Y-76885900D01*
X92274035Y-76885900D01*
X92197614Y-76906377D01*
X92197609Y-76906379D01*
X92154350Y-76931355D01*
X92129089Y-76945939D01*
X91859539Y-77215489D01*
X91819980Y-77284007D01*
X91819978Y-77284011D01*
X91799500Y-77360435D01*
X91799500Y-83139564D01*
X91819977Y-83215985D01*
X91819978Y-83215987D01*
X91819979Y-83215989D01*
X91851793Y-83271093D01*
X91859540Y-83284511D01*
X94465489Y-85890460D01*
X94465491Y-85890461D01*
X94465493Y-85890463D01*
X94534008Y-85930020D01*
X94534006Y-85930020D01*
X94534010Y-85930021D01*
X94534012Y-85930022D01*
X94610438Y-85950500D01*
X94610440Y-85950500D01*
X98189563Y-85950500D01*
X98189563Y-85950499D01*
X98265989Y-85930021D01*
X98334511Y-85890460D01*
X98368878Y-85856093D01*
X98390461Y-85834511D01*
X98653196Y-85571774D01*
X98760636Y-85464333D01*
X98802744Y-85439350D01*
X98889069Y-85414004D01*
X98998049Y-85343967D01*
X99082882Y-85246063D01*
X99136697Y-85128226D01*
X99155133Y-85000000D01*
X99145787Y-84935000D01*
X99136697Y-84871774D01*
X99082882Y-84753938D01*
X99082882Y-84753937D01*
X98998049Y-84656033D01*
X98998048Y-84656032D01*
X98998047Y-84656031D01*
X98889073Y-84585998D01*
X98889070Y-84585996D01*
X98889069Y-84585996D01*
X98889066Y-84585995D01*
X98764774Y-84549500D01*
X98764772Y-84549500D01*
X98635228Y-84549500D01*
X98635225Y-84549500D01*
X98510933Y-84585995D01*
X98510931Y-84585996D01*
X98399188Y-84657808D01*
X98340012Y-84673361D01*
X98292142Y-84657807D01*
X98185073Y-84588998D01*
X98185070Y-84588996D01*
X98185069Y-84588996D01*
X98174852Y-84585996D01*
X98060774Y-84552500D01*
X98060772Y-84552500D01*
X97931228Y-84552500D01*
X97931223Y-84552500D01*
X97922414Y-84555087D01*
X97861254Y-84553335D01*
X97812803Y-84515969D01*
X97804480Y-84501231D01*
X97782882Y-84453937D01*
X97698049Y-84356033D01*
X97698048Y-84356032D01*
X97698047Y-84356031D01*
X97589073Y-84285998D01*
X97589070Y-84285996D01*
X97589069Y-84285996D01*
X97589066Y-84285995D01*
X97464774Y-84249500D01*
X97464772Y-84249500D01*
X97335228Y-84249500D01*
X97335225Y-84249500D01*
X97210933Y-84285995D01*
X97210926Y-84285998D01*
X97101952Y-84356031D01*
X97041905Y-84425331D01*
X96989509Y-84456927D01*
X96967085Y-84459500D01*
X96330400Y-84459500D01*
X96272209Y-84440593D01*
X96236245Y-84391093D01*
X96235411Y-84332605D01*
X96236694Y-84328230D01*
X96236697Y-84328226D01*
X96236698Y-84328220D01*
X96255133Y-84200002D01*
X96255133Y-84199997D01*
X96252977Y-84185000D01*
X107469364Y-84185000D01*
X108366988Y-84185000D01*
X108334075Y-84242007D01*
X108300000Y-84369174D01*
X108300000Y-84500826D01*
X108334075Y-84627993D01*
X108366988Y-84685000D01*
X107469364Y-84685000D01*
X107526569Y-84898489D01*
X107626399Y-85112577D01*
X107761886Y-85306073D01*
X107928926Y-85473113D01*
X108122422Y-85608600D01*
X108336510Y-85708430D01*
X108416533Y-85729873D01*
X108467847Y-85763197D01*
X108489774Y-85820319D01*
X108473938Y-85879419D01*
X108426388Y-85917924D01*
X108390910Y-85924500D01*
X107930252Y-85924500D01*
X107930251Y-85924500D01*
X107930241Y-85924501D01*
X107871772Y-85936132D01*
X107871766Y-85936134D01*
X107805451Y-85980445D01*
X107805445Y-85980451D01*
X107761134Y-86046766D01*
X107761132Y-86046772D01*
X107749501Y-86105241D01*
X107749500Y-86105253D01*
X107749500Y-87844746D01*
X107749501Y-87844758D01*
X107756030Y-87877577D01*
X107761133Y-87903231D01*
X107805448Y-87969552D01*
X107871769Y-88013867D01*
X107916231Y-88022711D01*
X107930241Y-88025498D01*
X107930246Y-88025498D01*
X107930252Y-88025500D01*
X107930253Y-88025500D01*
X109669747Y-88025500D01*
X109669748Y-88025500D01*
X109728231Y-88013867D01*
X109794552Y-87969552D01*
X109838867Y-87903231D01*
X109850500Y-87844748D01*
X109850500Y-86105252D01*
X109838867Y-86046769D01*
X109794552Y-85980448D01*
X109794548Y-85980445D01*
X109728233Y-85936134D01*
X109728231Y-85936133D01*
X109728228Y-85936132D01*
X109728227Y-85936132D01*
X109669758Y-85924501D01*
X109669748Y-85924500D01*
X109209090Y-85924500D01*
X109150899Y-85905593D01*
X109114935Y-85856093D01*
X109114935Y-85794907D01*
X109150899Y-85745407D01*
X109183467Y-85729873D01*
X109263489Y-85708430D01*
X109477577Y-85608600D01*
X109671073Y-85473113D01*
X109838113Y-85306073D01*
X109973600Y-85112577D01*
X110073430Y-84898489D01*
X110130636Y-84685000D01*
X109233012Y-84685000D01*
X109265925Y-84627993D01*
X109300000Y-84500826D01*
X109300000Y-84369174D01*
X109265925Y-84242007D01*
X109233012Y-84185000D01*
X110130636Y-84185000D01*
X110073429Y-83971505D01*
X109973605Y-83757432D01*
X109973601Y-83757424D01*
X109838113Y-83563926D01*
X109671073Y-83396886D01*
X109477577Y-83261399D01*
X109263489Y-83161569D01*
X109050000Y-83104364D01*
X109050000Y-84001988D01*
X108992993Y-83969075D01*
X108865826Y-83935000D01*
X108734174Y-83935000D01*
X108607007Y-83969075D01*
X108550000Y-84001988D01*
X108550000Y-83104364D01*
X108336505Y-83161570D01*
X108122432Y-83261394D01*
X108122424Y-83261398D01*
X107928926Y-83396886D01*
X107761886Y-83563926D01*
X107626398Y-83757424D01*
X107626394Y-83757432D01*
X107526570Y-83971505D01*
X107469364Y-84185000D01*
X96252977Y-84185000D01*
X96236697Y-84071774D01*
X96220701Y-84036748D01*
X96182882Y-83953937D01*
X96098049Y-83856033D01*
X96098048Y-83856032D01*
X96098047Y-83856031D01*
X95989073Y-83785998D01*
X95989070Y-83785996D01*
X95989069Y-83785996D01*
X95989066Y-83785995D01*
X95864774Y-83749500D01*
X95864772Y-83749500D01*
X95735228Y-83749500D01*
X95735225Y-83749500D01*
X95610933Y-83785995D01*
X95610926Y-83785998D01*
X95501951Y-83856032D01*
X95501950Y-83856033D01*
X95493895Y-83865330D01*
X95441500Y-83896927D01*
X95419075Y-83899500D01*
X95301301Y-83899500D01*
X95243110Y-83880593D01*
X95231297Y-83870504D01*
X93624496Y-82263703D01*
X93596719Y-82209186D01*
X93595500Y-82193699D01*
X93595500Y-79170478D01*
X93614407Y-79112287D01*
X93624496Y-79100474D01*
X93966097Y-78758873D01*
X94020614Y-78731096D01*
X94081046Y-78740667D01*
X94124311Y-78783932D01*
X94135101Y-78828877D01*
X94135101Y-82189343D01*
X94155578Y-82265764D01*
X94155578Y-82265765D01*
X94155580Y-82265768D01*
X94184286Y-82315489D01*
X94184287Y-82315490D01*
X94195139Y-82334288D01*
X94195141Y-82334290D01*
X94675972Y-82815122D01*
X94703749Y-82869638D01*
X94703960Y-82871035D01*
X94720391Y-82985314D01*
X94772769Y-83100004D01*
X94774207Y-83103152D01*
X94805756Y-83139562D01*
X94859041Y-83201057D01*
X94968015Y-83271090D01*
X94968020Y-83271093D01*
X95092317Y-83307589D01*
X95092319Y-83307589D01*
X95221859Y-83307589D01*
X95221861Y-83307589D01*
X95346158Y-83271093D01*
X95455138Y-83201056D01*
X95539971Y-83103152D01*
X95593786Y-82985315D01*
X95612222Y-82857089D01*
X95593786Y-82728863D01*
X95539971Y-82611026D01*
X95503881Y-82569375D01*
X95502807Y-82568135D01*
X95478990Y-82511776D01*
X95492849Y-82452181D01*
X95502804Y-82438478D01*
X95582882Y-82346063D01*
X95587245Y-82336508D01*
X95628617Y-82291430D01*
X95688583Y-82279279D01*
X95744240Y-82304696D01*
X95747303Y-82307630D01*
X96088811Y-82649138D01*
X96116588Y-82703655D01*
X96113544Y-82747880D01*
X96063252Y-82913668D01*
X96063251Y-82913674D01*
X96044901Y-83099995D01*
X96044901Y-83100004D01*
X96063251Y-83286325D01*
X96063252Y-83286328D01*
X96117605Y-83465504D01*
X96117606Y-83465506D01*
X96205859Y-83630617D01*
X96205862Y-83630622D01*
X96205864Y-83630625D01*
X96255395Y-83690978D01*
X96324638Y-83775352D01*
X96324647Y-83775361D01*
X96392145Y-83830755D01*
X96469375Y-83894136D01*
X96469380Y-83894138D01*
X96469382Y-83894140D01*
X96581257Y-83953938D01*
X96634499Y-83982396D01*
X96813669Y-84036747D01*
X96813671Y-84036747D01*
X96813674Y-84036748D01*
X96999996Y-84055099D01*
X97000000Y-84055099D01*
X97000004Y-84055099D01*
X97186325Y-84036748D01*
X97186326Y-84036747D01*
X97186331Y-84036747D01*
X97365501Y-83982396D01*
X97530625Y-83894136D01*
X97675357Y-83775357D01*
X97794136Y-83630625D01*
X97882396Y-83465501D01*
X97936747Y-83286331D01*
X97936927Y-83284511D01*
X97955099Y-83100004D01*
X97955099Y-83099995D01*
X97936748Y-82913674D01*
X97936747Y-82913671D01*
X97936747Y-82913669D01*
X97882396Y-82734499D01*
X97794136Y-82569375D01*
X97686708Y-82438474D01*
X97675361Y-82424647D01*
X97675352Y-82424638D01*
X97590978Y-82355395D01*
X97530625Y-82305864D01*
X97530622Y-82305862D01*
X97530617Y-82305859D01*
X97365506Y-82217606D01*
X97365504Y-82217605D01*
X97186328Y-82163252D01*
X97186325Y-82163251D01*
X97000004Y-82144901D01*
X96999996Y-82144901D01*
X96813674Y-82163251D01*
X96813668Y-82163252D01*
X96647880Y-82213544D01*
X96586706Y-82212343D01*
X96549138Y-82188811D01*
X96262967Y-81902640D01*
X95629828Y-81269501D01*
X95602053Y-81214987D01*
X95611624Y-81154555D01*
X95654889Y-81111290D01*
X95699834Y-81100500D01*
X96239563Y-81100500D01*
X96239563Y-81100499D01*
X96315989Y-81080021D01*
X96384511Y-81040460D01*
X96440460Y-80984511D01*
X98657396Y-78767573D01*
X98711913Y-78739797D01*
X98737102Y-78739055D01*
X98790931Y-78744356D01*
X98899997Y-78755099D01*
X98900000Y-78755099D01*
X98900004Y-78755099D01*
X99086325Y-78736748D01*
X99086326Y-78736747D01*
X99086331Y-78736747D01*
X99265501Y-78682396D01*
X99430625Y-78594136D01*
X99575357Y-78475357D01*
X99694136Y-78330625D01*
X99782396Y-78165501D01*
X99836747Y-77986331D01*
X99839938Y-77953938D01*
X99855099Y-77800004D01*
X99855099Y-77799995D01*
X99836748Y-77613674D01*
X99836747Y-77613671D01*
X99836747Y-77613669D01*
X99782396Y-77434499D01*
X99774985Y-77420633D01*
X99694140Y-77269382D01*
X99694138Y-77269380D01*
X99694136Y-77269375D01*
X99646535Y-77211373D01*
X100544867Y-77211373D01*
X100544867Y-77211378D01*
X100563302Y-77339601D01*
X100617117Y-77457437D01*
X100617118Y-77457439D01*
X100701951Y-77555343D01*
X100754022Y-77588807D01*
X100792754Y-77636172D01*
X100799500Y-77672091D01*
X100799500Y-79439562D01*
X100814871Y-79496927D01*
X100819979Y-79515989D01*
X100819979Y-79515991D01*
X100822282Y-79519978D01*
X100822283Y-79519979D01*
X100859540Y-79584511D01*
X100859542Y-79584513D01*
X101259539Y-79984511D01*
X101315489Y-80040460D01*
X101384007Y-80080019D01*
X101384011Y-80080021D01*
X101460435Y-80100499D01*
X101460437Y-80100500D01*
X101460438Y-80100500D01*
X101539562Y-80100500D01*
X102719075Y-80100500D01*
X102777266Y-80119407D01*
X102793895Y-80134670D01*
X102801950Y-80143966D01*
X102801951Y-80143967D01*
X102904272Y-80209725D01*
X102910931Y-80214004D01*
X103035228Y-80250500D01*
X103035230Y-80250500D01*
X103164770Y-80250500D01*
X103164772Y-80250500D01*
X103289069Y-80214004D01*
X103398049Y-80143967D01*
X103482882Y-80046063D01*
X103536697Y-79928226D01*
X103555133Y-79800000D01*
X103555132Y-79799996D01*
X103536697Y-79671774D01*
X103499868Y-79591131D01*
X103482882Y-79553937D01*
X103398049Y-79456033D01*
X103398048Y-79456032D01*
X103398047Y-79456031D01*
X103289073Y-79385998D01*
X103289070Y-79385996D01*
X103289069Y-79385996D01*
X103289066Y-79385995D01*
X103164774Y-79349500D01*
X103164772Y-79349500D01*
X103035228Y-79349500D01*
X103035225Y-79349500D01*
X102910933Y-79385995D01*
X102910926Y-79385998D01*
X102801951Y-79456032D01*
X102801950Y-79456033D01*
X102793895Y-79465330D01*
X102741500Y-79496927D01*
X102719075Y-79499500D01*
X101665479Y-79499500D01*
X101607288Y-79480593D01*
X101595475Y-79470504D01*
X101429496Y-79304525D01*
X101401719Y-79250008D01*
X101400500Y-79234521D01*
X101400500Y-77719205D01*
X101419407Y-77661014D01*
X101468907Y-77625050D01*
X101530093Y-77625050D01*
X101574318Y-77654373D01*
X101609454Y-77694922D01*
X101651952Y-77743968D01*
X101760926Y-77814001D01*
X101760931Y-77814004D01*
X101885228Y-77850500D01*
X101885230Y-77850500D01*
X102014770Y-77850500D01*
X102014772Y-77850500D01*
X102139069Y-77814004D01*
X102248049Y-77743967D01*
X102332882Y-77646063D01*
X102386697Y-77528226D01*
X102400173Y-77434499D01*
X102405133Y-77400002D01*
X102405133Y-77399997D01*
X102386697Y-77271774D01*
X102363837Y-77221719D01*
X102332882Y-77153937D01*
X102248049Y-77056033D01*
X102248048Y-77056032D01*
X102248047Y-77056031D01*
X102139073Y-76985998D01*
X102139070Y-76985996D01*
X102139069Y-76985996D01*
X102139066Y-76985995D01*
X102014774Y-76949500D01*
X102014772Y-76949500D01*
X101885228Y-76949500D01*
X101885225Y-76949500D01*
X101760933Y-76985995D01*
X101760926Y-76985998D01*
X101651951Y-77056032D01*
X101651949Y-77056034D01*
X101603759Y-77111649D01*
X101551363Y-77143245D01*
X101490402Y-77138009D01*
X101444162Y-77097942D01*
X101438887Y-77087945D01*
X101404045Y-77011653D01*
X101382882Y-76965313D01*
X101298049Y-76867409D01*
X101298048Y-76867408D01*
X101298047Y-76867407D01*
X101189073Y-76797374D01*
X101189070Y-76797372D01*
X101189069Y-76797372D01*
X101189066Y-76797371D01*
X101064774Y-76760876D01*
X101064772Y-76760876D01*
X100935228Y-76760876D01*
X100935225Y-76760876D01*
X100810933Y-76797371D01*
X100810926Y-76797374D01*
X100701952Y-76867407D01*
X100617117Y-76965314D01*
X100563302Y-77083150D01*
X100544867Y-77211373D01*
X99646535Y-77211373D01*
X99607710Y-77164065D01*
X99575361Y-77124647D01*
X99575352Y-77124638D01*
X99490978Y-77055395D01*
X99430625Y-77005864D01*
X99430622Y-77005862D01*
X99430617Y-77005859D01*
X99265506Y-76917606D01*
X99265504Y-76917605D01*
X99263951Y-76917134D01*
X99105985Y-76869215D01*
X99086328Y-76863252D01*
X99086325Y-76863251D01*
X98900004Y-76844901D01*
X98899996Y-76844901D01*
X98713674Y-76863251D01*
X98713671Y-76863252D01*
X98534495Y-76917605D01*
X98534493Y-76917606D01*
X98369382Y-77005859D01*
X98369376Y-77005863D01*
X98224647Y-77124638D01*
X98224638Y-77124647D01*
X98105863Y-77269376D01*
X98105859Y-77269382D01*
X98017606Y-77434493D01*
X98017605Y-77434495D01*
X97963252Y-77613671D01*
X97963251Y-77613674D01*
X97944901Y-77799995D01*
X97944901Y-77800004D01*
X97963251Y-77986325D01*
X97963252Y-77986328D01*
X98017605Y-78165504D01*
X98017606Y-78165506D01*
X98105860Y-78330618D01*
X98105866Y-78330628D01*
X98111387Y-78337355D01*
X98133687Y-78394331D01*
X98118239Y-78453534D01*
X98104863Y-78470164D01*
X96913862Y-79661165D01*
X96859345Y-79688942D01*
X96798913Y-79679371D01*
X96755648Y-79636106D01*
X96745335Y-79600864D01*
X96736748Y-79513674D01*
X96736747Y-79513671D01*
X96736747Y-79513669D01*
X96682396Y-79334499D01*
X96613278Y-79205187D01*
X96594140Y-79169382D01*
X96594138Y-79169380D01*
X96594136Y-79169375D01*
X96490371Y-79042937D01*
X96475361Y-79024647D01*
X96475352Y-79024638D01*
X96335400Y-78909783D01*
X96330625Y-78905864D01*
X96330622Y-78905862D01*
X96330617Y-78905859D01*
X96165506Y-78817606D01*
X96165504Y-78817605D01*
X96143219Y-78810845D01*
X96041845Y-78780093D01*
X95986328Y-78763252D01*
X95986325Y-78763251D01*
X95800004Y-78744901D01*
X95799995Y-78744901D01*
X95719118Y-78752866D01*
X95659354Y-78739753D01*
X95618712Y-78694016D01*
X95612715Y-78633126D01*
X95643655Y-78580339D01*
X95655884Y-78571064D01*
X95698049Y-78543967D01*
X95782882Y-78446063D01*
X95836697Y-78328226D01*
X95841679Y-78293574D01*
X95868674Y-78238669D01*
X95922787Y-78210114D01*
X95952595Y-78209512D01*
X95960099Y-78210500D01*
X96319900Y-78210499D01*
X96369487Y-78203972D01*
X96369488Y-78203972D01*
X96451977Y-78165506D01*
X96478316Y-78153224D01*
X96563224Y-78068316D01*
X96613972Y-77959487D01*
X96620500Y-77909901D01*
X96620499Y-77665476D01*
X96639406Y-77607287D01*
X96649489Y-77595480D01*
X96995475Y-77249496D01*
X97049991Y-77221719D01*
X97065478Y-77220500D01*
X97294314Y-77220500D01*
X97294316Y-77220500D01*
X97343173Y-77214068D01*
X97450404Y-77164065D01*
X97534065Y-77080404D01*
X97584068Y-76973173D01*
X97590500Y-76924316D01*
X97590500Y-76475684D01*
X97584068Y-76426827D01*
X97581903Y-76422185D01*
X97534066Y-76319598D01*
X97534065Y-76319597D01*
X97534065Y-76319596D01*
X97450404Y-76235935D01*
X97450402Y-76235934D01*
X97450401Y-76235933D01*
X97336309Y-76182731D01*
X97337361Y-76180474D01*
X97296447Y-76152602D01*
X97275786Y-76095011D01*
X97292923Y-76036274D01*
X97304734Y-76022013D01*
X97323528Y-76003220D01*
X97384719Y-75883126D01*
X97400500Y-75783488D01*
X97400500Y-75216512D01*
X97384719Y-75116874D01*
X97384716Y-75116869D01*
X97384716Y-75116867D01*
X97323529Y-74996782D01*
X97323528Y-74996780D01*
X97228220Y-74901472D01*
X97228217Y-74901470D01*
X97108132Y-74840283D01*
X97108127Y-74840281D01*
X97108126Y-74840281D01*
X97074913Y-74835020D01*
X97008490Y-74824500D01*
X97008488Y-74824500D01*
X96880507Y-74824500D01*
X96822316Y-74805593D01*
X96786352Y-74756093D01*
X96781507Y-74725400D01*
X96781614Y-74619381D01*
X96781568Y-74618185D01*
X96780993Y-74603210D01*
X96779783Y-74587681D01*
X96758053Y-74510442D01*
X96730303Y-74455912D01*
X96730302Y-74455910D01*
X96730300Y-74455907D01*
X96709196Y-74426830D01*
X96692538Y-74403878D01*
X96550743Y-74261939D01*
X96538868Y-74250953D01*
X96532876Y-74245832D01*
X96527026Y-74240832D01*
X96527023Y-74240830D01*
X96457015Y-74201610D01*
X96430992Y-74193155D01*
X96381491Y-74157191D01*
X96362584Y-74099000D01*
X96381491Y-74040809D01*
X96430991Y-74004845D01*
X96461584Y-74000000D01*
X108001000Y-74000000D01*
X108059191Y-74018907D01*
X108095155Y-74068407D01*
X108100000Y-74099000D01*
X108100000Y-79062260D01*
X108081093Y-79120451D01*
X108031593Y-79156415D01*
X107970407Y-79156415D01*
X107924472Y-79125065D01*
X107857071Y-79042937D01*
X107857062Y-79042928D01*
X107762480Y-78965307D01*
X107694824Y-78909783D01*
X107694821Y-78909781D01*
X107694812Y-78909775D01*
X107509727Y-78810846D01*
X107509725Y-78810845D01*
X107308871Y-78749916D01*
X107308868Y-78749915D01*
X107100003Y-78729345D01*
X107099997Y-78729345D01*
X106891131Y-78749915D01*
X106891128Y-78749916D01*
X106690274Y-78810845D01*
X106690272Y-78810846D01*
X106505187Y-78909775D01*
X106505177Y-78909782D01*
X106342937Y-79042928D01*
X106342928Y-79042937D01*
X106209782Y-79205177D01*
X106209775Y-79205187D01*
X106110846Y-79390272D01*
X106110845Y-79390274D01*
X106049916Y-79591128D01*
X106049915Y-79591131D01*
X106029345Y-79799996D01*
X106029345Y-79800003D01*
X106049915Y-80008868D01*
X106049916Y-80008871D01*
X106110845Y-80209725D01*
X106110846Y-80209727D01*
X106209775Y-80394812D01*
X106209781Y-80394821D01*
X106209783Y-80394824D01*
X106217501Y-80404228D01*
X106342928Y-80557062D01*
X106342937Y-80557071D01*
X106418602Y-80619167D01*
X106505176Y-80690217D01*
X106505180Y-80690219D01*
X106505187Y-80690224D01*
X106690272Y-80789153D01*
X106690278Y-80789156D01*
X106870516Y-80843831D01*
X106891129Y-80850084D01*
X107062999Y-80867010D01*
X107074771Y-80868889D01*
X107260168Y-80910089D01*
X107312872Y-80941170D01*
X107313512Y-80941901D01*
X107401952Y-81043968D01*
X107489918Y-81100500D01*
X107510931Y-81114004D01*
X107635228Y-81150500D01*
X107635230Y-81150500D01*
X107764770Y-81150500D01*
X107764772Y-81150500D01*
X107889069Y-81114004D01*
X107947479Y-81076466D01*
X108006651Y-81060912D01*
X108063668Y-81083110D01*
X108096747Y-81134583D01*
X108100000Y-81159751D01*
X108100000Y-82500000D01*
X108100001Y-82500000D01*
X110601000Y-82500000D01*
X110659191Y-82518907D01*
X110695155Y-82568407D01*
X110700000Y-82599000D01*
X110700000Y-100058992D01*
X110681093Y-100117183D01*
X110671004Y-100128996D01*
X110528996Y-100271004D01*
X110474479Y-100298781D01*
X110458992Y-100300000D01*
X91841008Y-100300000D01*
X91782817Y-100281093D01*
X91771004Y-100271004D01*
X91628996Y-100128996D01*
X91601219Y-100074479D01*
X91600000Y-100058992D01*
X91600000Y-99497824D01*
X92209999Y-99497824D01*
X92216401Y-99557370D01*
X92216403Y-99557381D01*
X92266646Y-99692088D01*
X92266647Y-99692090D01*
X92352807Y-99807184D01*
X92352815Y-99807192D01*
X92467909Y-99893352D01*
X92467911Y-99893353D01*
X92602618Y-99943596D01*
X92602629Y-99943598D01*
X92662176Y-99950000D01*
X93309999Y-99950000D01*
X93310000Y-99949999D01*
X93310000Y-99033012D01*
X93367007Y-99065925D01*
X93494174Y-99100000D01*
X93625826Y-99100000D01*
X93752993Y-99065925D01*
X93810000Y-99033012D01*
X93810000Y-99949999D01*
X93810001Y-99950000D01*
X94457824Y-99950000D01*
X94517370Y-99943598D01*
X94517381Y-99943596D01*
X94652088Y-99893353D01*
X94652090Y-99893352D01*
X94767184Y-99807192D01*
X94767192Y-99807184D01*
X94853352Y-99692090D01*
X94853353Y-99692088D01*
X94903596Y-99557381D01*
X94903598Y-99557370D01*
X94910000Y-99497824D01*
X94910000Y-98963361D01*
X94928907Y-98905170D01*
X94978407Y-98869206D01*
X95039593Y-98869206D01*
X95089093Y-98905170D01*
X95103737Y-98934623D01*
X95124768Y-99003954D01*
X95222316Y-99186452D01*
X95353585Y-99346404D01*
X95353590Y-99346410D01*
X95353595Y-99346414D01*
X95513547Y-99477683D01*
X95513548Y-99477683D01*
X95513550Y-99477685D01*
X95696046Y-99575232D01*
X95833997Y-99617078D01*
X95894065Y-99635300D01*
X95894070Y-99635301D01*
X96099997Y-99655583D01*
X96100000Y-99655583D01*
X96100003Y-99655583D01*
X96305929Y-99635301D01*
X96305934Y-99635300D01*
X96503954Y-99575232D01*
X96686450Y-99477685D01*
X96846410Y-99346410D01*
X96977685Y-99186450D01*
X97075232Y-99003954D01*
X97135300Y-98805934D01*
X97135301Y-98805929D01*
X97155583Y-98600003D01*
X97155583Y-98599996D01*
X97584417Y-98599996D01*
X97584417Y-98600003D01*
X97604698Y-98805929D01*
X97604699Y-98805934D01*
X97664768Y-99003954D01*
X97762316Y-99186452D01*
X97893585Y-99346404D01*
X97893590Y-99346410D01*
X97893595Y-99346414D01*
X98053547Y-99477683D01*
X98053548Y-99477683D01*
X98053550Y-99477685D01*
X98236046Y-99575232D01*
X98373997Y-99617078D01*
X98434065Y-99635300D01*
X98434070Y-99635301D01*
X98639997Y-99655583D01*
X98640000Y-99655583D01*
X98640003Y-99655583D01*
X98845929Y-99635301D01*
X98845934Y-99635300D01*
X99043954Y-99575232D01*
X99226450Y-99477685D01*
X99386410Y-99346410D01*
X99517685Y-99186450D01*
X99615232Y-99003954D01*
X99675300Y-98805934D01*
X99675301Y-98805929D01*
X99695583Y-98600003D01*
X99695583Y-98599996D01*
X99675301Y-98394070D01*
X99675300Y-98394065D01*
X99637384Y-98269073D01*
X99615232Y-98196046D01*
X99615229Y-98196040D01*
X99598881Y-98165454D01*
X99588125Y-98105221D01*
X99614827Y-98050170D01*
X99616137Y-98048832D01*
X101830497Y-95834473D01*
X101885013Y-95806697D01*
X101945445Y-95816268D01*
X101988710Y-95859533D01*
X101999500Y-95904478D01*
X101999500Y-97314521D01*
X101980593Y-97372712D01*
X101970503Y-97384525D01*
X101731215Y-97623812D01*
X101676699Y-97651589D01*
X101616267Y-97642018D01*
X101614544Y-97641118D01*
X101583959Y-97624770D01*
X101583954Y-97624768D01*
X101385934Y-97564699D01*
X101385929Y-97564698D01*
X101180003Y-97544417D01*
X101179997Y-97544417D01*
X100974070Y-97564698D01*
X100974065Y-97564699D01*
X100776045Y-97624768D01*
X100593547Y-97722316D01*
X100433595Y-97853585D01*
X100433585Y-97853595D01*
X100302316Y-98013547D01*
X100204768Y-98196045D01*
X100144699Y-98394065D01*
X100144698Y-98394070D01*
X100124417Y-98599996D01*
X100124417Y-98600003D01*
X100144698Y-98805929D01*
X100144699Y-98805934D01*
X100204768Y-99003954D01*
X100302316Y-99186452D01*
X100433585Y-99346404D01*
X100433590Y-99346410D01*
X100433595Y-99346414D01*
X100593547Y-99477683D01*
X100593548Y-99477683D01*
X100593550Y-99477685D01*
X100776046Y-99575232D01*
X100913997Y-99617078D01*
X100974065Y-99635300D01*
X100974070Y-99635301D01*
X101179997Y-99655583D01*
X101180000Y-99655583D01*
X101180003Y-99655583D01*
X101385929Y-99635301D01*
X101385934Y-99635300D01*
X101583954Y-99575232D01*
X101766450Y-99477685D01*
X101926410Y-99346410D01*
X102057685Y-99186450D01*
X102155232Y-99003954D01*
X102215300Y-98805934D01*
X102215301Y-98805929D01*
X102235583Y-98600003D01*
X102235583Y-98599996D01*
X102215301Y-98394070D01*
X102215300Y-98394065D01*
X102177384Y-98269073D01*
X102155232Y-98196046D01*
X102138880Y-98165455D01*
X102128123Y-98105223D01*
X102154824Y-98050171D01*
X102156128Y-98048841D01*
X102540460Y-97664511D01*
X102580021Y-97595989D01*
X102600500Y-97519562D01*
X102600500Y-97384478D01*
X102619407Y-97326287D01*
X102668907Y-97290323D01*
X102730093Y-97290323D01*
X102769504Y-97314475D01*
X103080366Y-97625338D01*
X103108143Y-97679854D01*
X103098572Y-97740286D01*
X103073167Y-97771869D01*
X102973595Y-97853585D01*
X102973585Y-97853595D01*
X102842316Y-98013547D01*
X102744768Y-98196045D01*
X102684699Y-98394065D01*
X102684698Y-98394070D01*
X102664417Y-98599996D01*
X102664417Y-98600003D01*
X102684698Y-98805929D01*
X102684699Y-98805934D01*
X102744768Y-99003954D01*
X102842316Y-99186452D01*
X102973585Y-99346404D01*
X102973590Y-99346410D01*
X102973595Y-99346414D01*
X103133547Y-99477683D01*
X103133548Y-99477683D01*
X103133550Y-99477685D01*
X103316046Y-99575232D01*
X103453997Y-99617078D01*
X103514065Y-99635300D01*
X103514070Y-99635301D01*
X103719997Y-99655583D01*
X103720000Y-99655583D01*
X103720003Y-99655583D01*
X103925929Y-99635301D01*
X103925934Y-99635300D01*
X104123954Y-99575232D01*
X104306450Y-99477685D01*
X104466410Y-99346410D01*
X104597685Y-99186450D01*
X104695232Y-99003954D01*
X104755300Y-98805934D01*
X104755301Y-98805929D01*
X104775583Y-98600003D01*
X104775583Y-98599996D01*
X104755301Y-98394070D01*
X104755300Y-98394065D01*
X104717384Y-98269073D01*
X104695232Y-98196046D01*
X104597685Y-98013550D01*
X104466410Y-97853590D01*
X104466404Y-97853585D01*
X104306452Y-97722316D01*
X104123954Y-97624768D01*
X103925934Y-97564699D01*
X103925929Y-97564698D01*
X103898775Y-97562024D01*
X103842718Y-97537503D01*
X103838476Y-97533505D01*
X103229496Y-96924525D01*
X103201719Y-96870008D01*
X103200500Y-96854521D01*
X103200500Y-92060437D01*
X103200499Y-92060435D01*
X103180021Y-91984011D01*
X103180019Y-91984007D01*
X103140460Y-91915489D01*
X103084511Y-91859539D01*
X103084511Y-91859540D01*
X100773185Y-89548214D01*
X100745408Y-89493697D01*
X100745197Y-89464126D01*
X100755136Y-89395000D01*
X100750004Y-89359309D01*
X100736700Y-89266774D01*
X100693256Y-89171646D01*
X100682885Y-89148937D01*
X100598052Y-89051033D01*
X100598051Y-89051032D01*
X100598050Y-89051031D01*
X100489076Y-88980998D01*
X100489073Y-88980996D01*
X100489072Y-88980996D01*
X100489069Y-88980995D01*
X100364777Y-88944500D01*
X100364775Y-88944500D01*
X100235231Y-88944500D01*
X100235228Y-88944500D01*
X100110936Y-88980995D01*
X100110929Y-88980998D01*
X100001954Y-89051032D01*
X100001952Y-89051034D01*
X99924820Y-89140050D01*
X99872424Y-89171646D01*
X99811463Y-89166410D01*
X99775181Y-89140050D01*
X99698047Y-89051031D01*
X99589073Y-88980998D01*
X99589070Y-88980996D01*
X99589069Y-88980996D01*
X99589066Y-88980995D01*
X99464774Y-88944500D01*
X99464772Y-88944500D01*
X99335228Y-88944500D01*
X99335225Y-88944500D01*
X99210933Y-88980995D01*
X99210926Y-88980998D01*
X99101952Y-89051031D01*
X99017117Y-89148938D01*
X98963302Y-89266774D01*
X98949239Y-89364589D01*
X98922243Y-89419497D01*
X98868129Y-89448050D01*
X98851247Y-89449500D01*
X98735225Y-89449500D01*
X98610933Y-89485995D01*
X98610926Y-89485998D01*
X98501952Y-89556031D01*
X98417117Y-89653938D01*
X98363302Y-89771774D01*
X98344867Y-89899997D01*
X98344867Y-89900002D01*
X98363302Y-90028225D01*
X98417117Y-90146061D01*
X98417118Y-90146063D01*
X98501951Y-90243967D01*
X98501952Y-90243968D01*
X98610926Y-90314001D01*
X98610931Y-90314004D01*
X98735228Y-90350500D01*
X98735230Y-90350500D01*
X98864766Y-90350500D01*
X98864772Y-90350500D01*
X98864777Y-90350498D01*
X98868833Y-90349915D01*
X98929123Y-90360345D01*
X98952932Y-90377903D01*
X101370504Y-92795475D01*
X101398281Y-92849992D01*
X101399500Y-92865479D01*
X101399500Y-95374520D01*
X101380593Y-95432711D01*
X101370504Y-95444524D01*
X99191215Y-97623812D01*
X99136698Y-97651589D01*
X99076266Y-97642018D01*
X99074583Y-97641139D01*
X99043954Y-97624768D01*
X98845934Y-97564699D01*
X98845929Y-97564698D01*
X98640003Y-97544417D01*
X98639997Y-97544417D01*
X98434070Y-97564698D01*
X98434065Y-97564699D01*
X98236045Y-97624768D01*
X98053547Y-97722316D01*
X97893595Y-97853585D01*
X97893585Y-97853595D01*
X97762316Y-98013547D01*
X97664768Y-98196045D01*
X97604699Y-98394065D01*
X97604698Y-98394070D01*
X97584417Y-98599996D01*
X97155583Y-98599996D01*
X97135301Y-98394070D01*
X97135300Y-98394065D01*
X97097384Y-98269073D01*
X97075232Y-98196046D01*
X96977685Y-98013550D01*
X96846410Y-97853590D01*
X96846404Y-97853585D01*
X96686452Y-97722316D01*
X96503954Y-97624768D01*
X96305934Y-97564699D01*
X96305929Y-97564698D01*
X96100003Y-97544417D01*
X96099997Y-97544417D01*
X95894070Y-97564698D01*
X95894065Y-97564699D01*
X95696045Y-97624768D01*
X95513547Y-97722316D01*
X95353595Y-97853585D01*
X95353585Y-97853595D01*
X95222316Y-98013547D01*
X95124768Y-98196045D01*
X95103737Y-98265376D01*
X95068752Y-98315573D01*
X95010943Y-98335619D01*
X94952393Y-98317858D01*
X94915464Y-98269073D01*
X94910000Y-98236638D01*
X94910000Y-97702175D01*
X94903598Y-97642629D01*
X94903596Y-97642618D01*
X94853353Y-97507911D01*
X94853352Y-97507909D01*
X94767192Y-97392815D01*
X94767184Y-97392807D01*
X94652090Y-97306647D01*
X94652088Y-97306646D01*
X94517381Y-97256403D01*
X94517370Y-97256401D01*
X94457824Y-97250000D01*
X93810001Y-97250000D01*
X93810000Y-97250001D01*
X93810000Y-98166988D01*
X93752993Y-98134075D01*
X93625826Y-98100000D01*
X93494174Y-98100000D01*
X93367007Y-98134075D01*
X93310000Y-98166988D01*
X93310000Y-97250001D01*
X93309999Y-97250000D01*
X92662176Y-97250000D01*
X92602629Y-97256401D01*
X92602618Y-97256403D01*
X92467911Y-97306646D01*
X92467909Y-97306647D01*
X92352815Y-97392807D01*
X92352807Y-97392815D01*
X92266647Y-97507909D01*
X92266646Y-97507911D01*
X92216403Y-97642618D01*
X92216401Y-97642629D01*
X92210000Y-97702175D01*
X92210000Y-98349999D01*
X92210001Y-98350000D01*
X93126988Y-98350000D01*
X93094075Y-98407007D01*
X93060000Y-98534174D01*
X93060000Y-98665826D01*
X93094075Y-98792993D01*
X93126988Y-98850000D01*
X92210001Y-98850000D01*
X92210000Y-98850001D01*
X92210000Y-99497824D01*
X92209999Y-99497824D01*
X91600000Y-99497824D01*
X91600000Y-93437497D01*
X93782367Y-93437497D01*
X93782367Y-93437502D01*
X93800802Y-93565725D01*
X93840553Y-93652765D01*
X93854618Y-93683563D01*
X93926379Y-93766380D01*
X93939450Y-93781466D01*
X93940331Y-93782229D01*
X93940832Y-93783061D01*
X93944088Y-93786818D01*
X93943437Y-93787381D01*
X93971927Y-93834625D01*
X93974500Y-93857049D01*
X93974500Y-94279280D01*
X93965225Y-94321119D01*
X93915932Y-94426827D01*
X93909500Y-94475685D01*
X93909500Y-94924314D01*
X93915932Y-94973173D01*
X93955224Y-95057433D01*
X93964500Y-95099273D01*
X93964500Y-95422171D01*
X93955224Y-95464010D01*
X93925932Y-95526824D01*
X93925932Y-95526825D01*
X93919500Y-95575685D01*
X93919500Y-96024314D01*
X93925932Y-96073174D01*
X93925932Y-96073175D01*
X93975933Y-96180401D01*
X93975934Y-96180402D01*
X93975935Y-96180404D01*
X94059596Y-96264065D01*
X94059597Y-96264065D01*
X94059598Y-96264066D01*
X94166824Y-96314067D01*
X94166825Y-96314067D01*
X94166827Y-96314068D01*
X94215684Y-96320500D01*
X94215685Y-96320500D01*
X94564314Y-96320500D01*
X94564316Y-96320500D01*
X94613173Y-96314068D01*
X94720404Y-96264065D01*
X94804065Y-96180404D01*
X94810275Y-96167085D01*
X94852003Y-96122337D01*
X94912064Y-96110662D01*
X94967517Y-96136519D01*
X94989724Y-96167084D01*
X94995935Y-96180404D01*
X95079596Y-96264065D01*
X95079597Y-96264065D01*
X95079598Y-96264066D01*
X95186824Y-96314067D01*
X95186825Y-96314067D01*
X95186827Y-96314068D01*
X95235684Y-96320500D01*
X95235685Y-96320500D01*
X95584314Y-96320500D01*
X95584316Y-96320500D01*
X95633173Y-96314068D01*
X95740404Y-96264065D01*
X95824065Y-96180404D01*
X95824067Y-96180400D01*
X95829033Y-96173309D01*
X95830666Y-96174453D01*
X95864740Y-96137913D01*
X95912737Y-96125500D01*
X95944147Y-96125500D01*
X95997670Y-96141216D01*
X96058645Y-96180402D01*
X96110931Y-96214004D01*
X96235228Y-96250500D01*
X96235230Y-96250500D01*
X96364770Y-96250500D01*
X96364772Y-96250500D01*
X96489069Y-96214004D01*
X96563495Y-96166173D01*
X96602330Y-96141216D01*
X96655853Y-96125500D01*
X96677263Y-96125500D01*
X96735454Y-96144407D01*
X96759896Y-96174058D01*
X96760967Y-96173309D01*
X96765932Y-96180400D01*
X96765934Y-96180402D01*
X96765935Y-96180404D01*
X96849596Y-96264065D01*
X96849597Y-96264065D01*
X96849598Y-96264066D01*
X96956824Y-96314067D01*
X96956825Y-96314067D01*
X96956827Y-96314068D01*
X97005684Y-96320500D01*
X97005685Y-96320500D01*
X97354314Y-96320500D01*
X97354316Y-96320500D01*
X97403173Y-96314068D01*
X97510404Y-96264065D01*
X97594065Y-96180404D01*
X97644068Y-96073173D01*
X97650500Y-96024316D01*
X97650500Y-95575684D01*
X97644068Y-95526827D01*
X97621142Y-95477663D01*
X97594066Y-95419598D01*
X97594065Y-95419597D01*
X97594065Y-95419596D01*
X97510404Y-95335935D01*
X97510402Y-95335934D01*
X97510400Y-95335932D01*
X97503493Y-95331096D01*
X97466671Y-95282232D01*
X97465603Y-95221056D01*
X97500697Y-95170935D01*
X97503493Y-95168904D01*
X97510400Y-95164067D01*
X97510400Y-95164066D01*
X97510404Y-95164065D01*
X97594065Y-95080404D01*
X97644068Y-94973173D01*
X97650500Y-94924316D01*
X97650500Y-94475684D01*
X97644068Y-94426827D01*
X97621142Y-94377663D01*
X97594066Y-94319598D01*
X97594065Y-94319597D01*
X97594065Y-94319596D01*
X97510404Y-94235935D01*
X97510402Y-94235934D01*
X97510401Y-94235933D01*
X97403175Y-94185932D01*
X97370601Y-94181644D01*
X97354316Y-94179500D01*
X97005684Y-94179500D01*
X96989398Y-94181644D01*
X96956825Y-94185932D01*
X96956824Y-94185932D01*
X96849598Y-94235933D01*
X96765933Y-94319598D01*
X96715932Y-94426824D01*
X96715932Y-94426825D01*
X96711425Y-94461059D01*
X96685083Y-94516284D01*
X96631311Y-94545478D01*
X96570649Y-94537490D01*
X96559749Y-94531419D01*
X96489073Y-94485998D01*
X96489070Y-94485996D01*
X96489069Y-94485996D01*
X96486195Y-94485152D01*
X96364774Y-94449500D01*
X96364772Y-94449500D01*
X96235228Y-94449500D01*
X96235225Y-94449500D01*
X96110933Y-94485995D01*
X96110931Y-94485996D01*
X96021810Y-94543270D01*
X95962634Y-94558823D01*
X95905618Y-94536624D01*
X95872539Y-94485152D01*
X95870134Y-94472907D01*
X95864068Y-94426827D01*
X95841142Y-94377663D01*
X95814066Y-94319598D01*
X95814065Y-94319597D01*
X95814065Y-94319596D01*
X95730404Y-94235935D01*
X95730402Y-94235934D01*
X95730401Y-94235933D01*
X95623175Y-94185932D01*
X95590601Y-94181644D01*
X95574316Y-94179500D01*
X95225684Y-94179500D01*
X95209398Y-94181644D01*
X95176825Y-94185932D01*
X95176824Y-94185932D01*
X95069598Y-94235933D01*
X94985933Y-94319598D01*
X94979724Y-94332915D01*
X94937995Y-94377663D01*
X94877934Y-94389337D01*
X94822482Y-94363478D01*
X94800276Y-94332915D01*
X94794066Y-94319598D01*
X94794065Y-94319597D01*
X94794065Y-94319596D01*
X94710404Y-94235935D01*
X94682659Y-94222997D01*
X94637912Y-94181268D01*
X94625500Y-94133273D01*
X94625500Y-93693892D01*
X94634447Y-93652765D01*
X94674197Y-93565725D01*
X94692633Y-93437502D01*
X94692633Y-93437497D01*
X94674197Y-93309274D01*
X94620382Y-93191436D01*
X94616554Y-93185480D01*
X94619302Y-93183713D01*
X94600855Y-93139942D01*
X94600500Y-93131566D01*
X94600500Y-91690479D01*
X94619407Y-91632288D01*
X94629496Y-91620475D01*
X94970475Y-91279496D01*
X95024992Y-91251719D01*
X95040479Y-91250500D01*
X95089770Y-91250500D01*
X95089772Y-91250500D01*
X95214069Y-91214004D01*
X95323049Y-91143967D01*
X95407882Y-91046063D01*
X95461697Y-90928226D01*
X95480133Y-90800000D01*
X95461697Y-90671774D01*
X95407882Y-90553937D01*
X95323049Y-90456033D01*
X95323048Y-90456032D01*
X95323047Y-90456031D01*
X95214073Y-90385998D01*
X95214070Y-90385996D01*
X95214069Y-90385996D01*
X95214066Y-90385995D01*
X95089774Y-90349500D01*
X95089772Y-90349500D01*
X94960228Y-90349500D01*
X94960225Y-90349500D01*
X94835933Y-90385995D01*
X94835926Y-90385998D01*
X94726952Y-90456031D01*
X94642117Y-90553938D01*
X94588302Y-90671774D01*
X94569491Y-90802610D01*
X94542495Y-90857518D01*
X94541503Y-90858524D01*
X94115489Y-91284539D01*
X94059539Y-91340489D01*
X94019980Y-91409007D01*
X94019978Y-91409011D01*
X93999500Y-91485435D01*
X93999500Y-93000883D01*
X93980593Y-93059074D01*
X93954027Y-93084165D01*
X93939451Y-93093532D01*
X93854617Y-93191438D01*
X93800802Y-93309274D01*
X93782367Y-93437497D01*
X91600000Y-93437497D01*
X91600000Y-92065815D01*
X91618907Y-92007624D01*
X91668407Y-91971660D01*
X91729593Y-91971660D01*
X91777540Y-92005546D01*
X91871718Y-92128282D01*
X91997159Y-92224536D01*
X92143238Y-92285044D01*
X92260809Y-92300522D01*
X92299999Y-92305682D01*
X92300000Y-92305682D01*
X92300001Y-92305682D01*
X92331352Y-92301554D01*
X92456762Y-92285044D01*
X92602841Y-92224536D01*
X92728282Y-92128282D01*
X92824536Y-92002841D01*
X92885044Y-91856762D01*
X92905682Y-91700000D01*
X92885044Y-91543238D01*
X92885042Y-91543233D01*
X92824537Y-91397161D01*
X92824537Y-91397160D01*
X92728286Y-91271723D01*
X92728285Y-91271722D01*
X92728282Y-91271718D01*
X92728277Y-91271714D01*
X92728276Y-91271713D01*
X92602838Y-91175462D01*
X92456766Y-91114957D01*
X92456758Y-91114955D01*
X92300001Y-91094318D01*
X92299999Y-91094318D01*
X92143241Y-91114955D01*
X92143233Y-91114957D01*
X91997161Y-91175462D01*
X91997160Y-91175462D01*
X91871723Y-91271713D01*
X91871713Y-91271723D01*
X91777542Y-91394451D01*
X91727118Y-91429107D01*
X91665953Y-91427506D01*
X91617412Y-91390258D01*
X91600000Y-91334184D01*
X91600000Y-87699999D01*
X92794318Y-87699999D01*
X92794318Y-87700000D01*
X92814955Y-87856758D01*
X92814957Y-87856766D01*
X92875462Y-88002838D01*
X92875462Y-88002839D01*
X92971680Y-88128233D01*
X92971718Y-88128282D01*
X93097159Y-88224536D01*
X93097160Y-88224536D01*
X93097161Y-88224537D01*
X93243233Y-88285042D01*
X93243238Y-88285044D01*
X93360809Y-88300522D01*
X93399999Y-88305682D01*
X93400000Y-88305682D01*
X93400001Y-88305682D01*
X93431352Y-88301554D01*
X93556762Y-88285044D01*
X93702841Y-88224536D01*
X93828282Y-88128282D01*
X93924536Y-88002841D01*
X93985044Y-87856762D01*
X94005682Y-87700000D01*
X93985044Y-87543238D01*
X93946424Y-87450001D01*
X93924537Y-87397161D01*
X93924537Y-87397160D01*
X93828286Y-87271723D01*
X93828285Y-87271722D01*
X93828282Y-87271718D01*
X93828277Y-87271714D01*
X93828276Y-87271713D01*
X93702838Y-87175462D01*
X93556766Y-87114957D01*
X93556758Y-87114955D01*
X93400001Y-87094318D01*
X93399999Y-87094318D01*
X93243241Y-87114955D01*
X93243233Y-87114957D01*
X93097161Y-87175462D01*
X93097160Y-87175462D01*
X92971723Y-87271713D01*
X92971713Y-87271723D01*
X92875462Y-87397160D01*
X92875462Y-87397161D01*
X92814957Y-87543233D01*
X92814955Y-87543241D01*
X92794318Y-87699999D01*
X91600000Y-87699999D01*
X91600000Y-86330253D01*
X95609500Y-86330253D01*
X95609500Y-88069746D01*
X95609501Y-88069758D01*
X95621132Y-88128227D01*
X95621134Y-88128233D01*
X95665445Y-88194548D01*
X95665448Y-88194552D01*
X95731769Y-88238867D01*
X95776231Y-88247711D01*
X95790241Y-88250498D01*
X95790246Y-88250498D01*
X95790252Y-88250500D01*
X95790253Y-88250500D01*
X97529747Y-88250500D01*
X97529748Y-88250500D01*
X97588231Y-88238867D01*
X97654552Y-88194552D01*
X97698867Y-88128231D01*
X97710500Y-88069748D01*
X97710500Y-87609089D01*
X97729407Y-87550898D01*
X97778907Y-87514934D01*
X97840093Y-87514934D01*
X97889593Y-87550898D01*
X97905127Y-87583466D01*
X97926569Y-87663490D01*
X98026399Y-87877577D01*
X98161886Y-88071073D01*
X98328926Y-88238113D01*
X98522422Y-88373600D01*
X98736509Y-88473430D01*
X98950000Y-88530634D01*
X98950000Y-87633012D01*
X99007007Y-87665925D01*
X99134174Y-87700000D01*
X99265826Y-87700000D01*
X99392993Y-87665925D01*
X99450000Y-87633012D01*
X99450000Y-88530633D01*
X99663490Y-88473430D01*
X99877577Y-88373600D01*
X100071073Y-88238113D01*
X100238113Y-88071073D01*
X100373600Y-87877577D01*
X100473430Y-87663489D01*
X100530636Y-87450000D01*
X99633012Y-87450000D01*
X99665925Y-87392993D01*
X99700000Y-87265826D01*
X99700000Y-87134174D01*
X99665925Y-87007007D01*
X99633012Y-86950000D01*
X100530636Y-86950000D01*
X100473429Y-86736505D01*
X100373605Y-86522432D01*
X100373601Y-86522424D01*
X100238113Y-86328926D01*
X100071073Y-86161886D01*
X99989714Y-86104918D01*
X99952892Y-86056053D01*
X99951824Y-85994877D01*
X99971678Y-85958993D01*
X99982882Y-85946063D01*
X100036697Y-85828226D01*
X100046047Y-85763197D01*
X100055133Y-85700002D01*
X100055133Y-85699997D01*
X100036697Y-85571774D01*
X99991639Y-85473113D01*
X99982882Y-85453937D01*
X99898049Y-85356033D01*
X99898048Y-85356032D01*
X99898047Y-85356031D01*
X99789073Y-85285998D01*
X99789070Y-85285996D01*
X99789069Y-85285996D01*
X99789066Y-85285995D01*
X99664774Y-85249500D01*
X99664772Y-85249500D01*
X99535228Y-85249500D01*
X99535225Y-85249500D01*
X99410933Y-85285995D01*
X99410926Y-85285998D01*
X99301952Y-85356031D01*
X99217117Y-85453938D01*
X99163302Y-85571774D01*
X99144867Y-85699997D01*
X99144867Y-85700000D01*
X99146079Y-85708430D01*
X99151224Y-85744216D01*
X99140789Y-85804505D01*
X99096911Y-85847147D01*
X99061860Y-85856927D01*
X98964687Y-85865429D01*
X98736505Y-85926570D01*
X98522432Y-86026394D01*
X98522424Y-86026398D01*
X98328926Y-86161886D01*
X98161886Y-86328926D01*
X98026398Y-86522424D01*
X98026394Y-86522432D01*
X97926570Y-86736505D01*
X97905127Y-86816533D01*
X97871803Y-86867847D01*
X97814681Y-86889774D01*
X97755581Y-86873938D01*
X97717076Y-86826388D01*
X97710500Y-86790910D01*
X97710500Y-86330253D01*
X97710498Y-86330241D01*
X97707711Y-86316231D01*
X97698867Y-86271769D01*
X97654552Y-86205448D01*
X97589358Y-86161886D01*
X97588233Y-86161134D01*
X97588231Y-86161133D01*
X97588228Y-86161132D01*
X97588227Y-86161132D01*
X97529758Y-86149501D01*
X97529748Y-86149500D01*
X95790252Y-86149500D01*
X95790251Y-86149500D01*
X95790241Y-86149501D01*
X95731772Y-86161132D01*
X95731766Y-86161134D01*
X95665451Y-86205445D01*
X95665445Y-86205451D01*
X95621134Y-86271766D01*
X95621132Y-86271772D01*
X95609501Y-86330241D01*
X95609500Y-86330253D01*
X91600000Y-86330253D01*
X91600000Y-74241008D01*
X91618907Y-74182817D01*
X91628996Y-74171004D01*
X91771004Y-74028996D01*
X91825521Y-74001219D01*
X91841008Y-74000000D01*
X93309613Y-74000000D01*
X93367804Y-74018907D01*
G37*
%TD.AperFunction*%
%TD*%
%TA.AperFunction,Conductor*%
%TO.N,Net-(U2-VS)*%
G36*
X96393515Y-74397054D02*
G01*
X96405359Y-74407176D01*
X96547154Y-74549115D01*
X96574904Y-74603645D01*
X96576114Y-74619174D01*
X96575794Y-74934407D01*
X96573917Y-76780203D01*
X96554950Y-76838374D01*
X96544921Y-76850106D01*
X96234523Y-77160504D01*
X96180006Y-77188281D01*
X96164519Y-77189500D01*
X95960104Y-77189500D01*
X95960092Y-77189501D01*
X95910515Y-77196027D01*
X95897867Y-77201925D01*
X95852905Y-77211149D01*
X95739970Y-77207581D01*
X95682408Y-77186846D01*
X95672009Y-77177529D01*
X95527898Y-77028793D01*
X95500986Y-76973847D01*
X95500000Y-76959906D01*
X95500000Y-76541422D01*
X95500000Y-76541421D01*
X95500000Y-76400000D01*
X95300000Y-76200000D01*
X95158579Y-76200000D01*
X95158577Y-76200000D01*
X94539311Y-76200000D01*
X94481120Y-76181093D01*
X94471397Y-76173033D01*
X94349930Y-76058511D01*
X94320561Y-76004835D01*
X94328350Y-75944147D01*
X94345803Y-75918574D01*
X94371636Y-75891175D01*
X94425307Y-75861809D01*
X94471553Y-75864101D01*
X94535228Y-75882798D01*
X94535229Y-75882798D01*
X94664770Y-75882798D01*
X94664772Y-75882798D01*
X94789069Y-75846302D01*
X94890373Y-75781198D01*
X94900000Y-75781198D01*
X95100000Y-75600000D01*
X95091731Y-75191589D01*
X95091712Y-75189489D01*
X95092304Y-74934387D01*
X95093336Y-74920380D01*
X95095500Y-74905528D01*
X95095500Y-74676847D01*
X95095531Y-74674386D01*
X95096904Y-74619183D01*
X95096924Y-74618358D01*
X95117271Y-74560658D01*
X95126759Y-74549960D01*
X95274063Y-74406277D01*
X95328921Y-74379181D01*
X95343190Y-74378147D01*
X96335324Y-74378147D01*
X96393515Y-74397054D01*
G37*
%TD.AperFunction*%
%TD*%
M02*
