%TF.GenerationSoftware,KiCad,Pcbnew,8.0.6*%
%TF.CreationDate,2025-03-21T04:24:16-04:00*%
%TF.ProjectId,earworm_hardware,65617277-6f72-46d5-9f68-617264776172,rev?*%
%TF.SameCoordinates,Original*%
%TF.FileFunction,Copper,L1,Top*%
%TF.FilePolarity,Positive*%
%FSLAX46Y46*%
G04 Gerber Fmt 4.6, Leading zero omitted, Abs format (unit mm)*
G04 Created by KiCad (PCBNEW 8.0.6) date 2025-03-21 04:24:16*
%MOMM*%
%LPD*%
G01*
G04 APERTURE LIST*
G04 Aperture macros list*
%AMRoundRect*
0 Rectangle with rounded corners*
0 $1 Rounding radius*
0 $2 $3 $4 $5 $6 $7 $8 $9 X,Y pos of 4 corners*
0 Add a 4 corners polygon primitive as box body*
4,1,4,$2,$3,$4,$5,$6,$7,$8,$9,$2,$3,0*
0 Add four circle primitives for the rounded corners*
1,1,$1+$1,$2,$3*
1,1,$1+$1,$4,$5*
1,1,$1+$1,$6,$7*
1,1,$1+$1,$8,$9*
0 Add four rect primitives between the rounded corners*
20,1,$1+$1,$2,$3,$4,$5,0*
20,1,$1+$1,$4,$5,$6,$7,0*
20,1,$1+$1,$6,$7,$8,$9,0*
20,1,$1+$1,$8,$9,$2,$3,0*%
%AMFreePoly0*
4,1,7,1.608668,0.053033,0.760140,-0.795495,-0.795495,-0.795495,-1.644023,0.053033,-0.848528,0.848528,0.813173,0.848528,1.608668,0.053033,1.608668,0.053033,$1*%
%AMFreePoly1*
4,1,7,0.795495,0.760140,0.795495,-0.795495,-0.053033,-1.644023,-0.848528,-0.848528,-0.848528,0.813173,-0.053033,1.608668,0.795495,0.760140,0.795495,0.760140,$1*%
%AMFreePoly2*
4,1,7,1.686924,-0.008743,0.891429,-0.804239,-0.770272,-0.804239,-1.565767,-0.008743,-0.717239,0.839785,0.838396,0.839785,1.686924,-0.008743,1.686924,-0.008743,$1*%
%AMFreePoly3*
4,1,7,1.200000,0.000000,1.200000,-1.125000,0.000000,-1.125000,-1.100000,-0.025000,-1.100000,1.175000,0.025000,1.175000,1.200000,0.000000,1.200000,0.000000,$1*%
G04 Aperture macros list end*
%TA.AperFunction,Conductor*%
%ADD10C,0.330000*%
%TD*%
%TA.AperFunction,SMDPad,CuDef*%
%ADD11R,1.300000X0.800000*%
%TD*%
%TA.AperFunction,SMDPad,CuDef*%
%ADD12C,0.330000*%
%TD*%
%TA.AperFunction,SMDPad,CuDef*%
%ADD13RoundRect,0.140000X-0.140000X-0.170000X0.140000X-0.170000X0.140000X0.170000X-0.140000X0.170000X0*%
%TD*%
%TA.AperFunction,SMDPad,CuDef*%
%ADD14RoundRect,0.100000X0.100000X-0.130000X0.100000X0.130000X-0.100000X0.130000X-0.100000X-0.130000X0*%
%TD*%
%TA.AperFunction,SMDPad,CuDef*%
%ADD15RoundRect,0.135000X-0.135000X-0.185000X0.135000X-0.185000X0.135000X0.185000X-0.135000X0.185000X0*%
%TD*%
%TA.AperFunction,SMDPad,CuDef*%
%ADD16RoundRect,0.100000X-0.130000X-0.100000X0.130000X-0.100000X0.130000X0.100000X-0.130000X0.100000X0*%
%TD*%
%TA.AperFunction,SMDPad,CuDef*%
%ADD17RoundRect,0.140000X0.140000X0.170000X-0.140000X0.170000X-0.140000X-0.170000X0.140000X-0.170000X0*%
%TD*%
%TA.AperFunction,SMDPad,CuDef*%
%ADD18R,0.800000X0.900000*%
%TD*%
%TA.AperFunction,SMDPad,CuDef*%
%ADD19RoundRect,0.250000X0.425000X-0.537500X0.425000X0.537500X-0.425000X0.537500X-0.425000X-0.537500X0*%
%TD*%
%TA.AperFunction,SMDPad,CuDef*%
%ADD20RoundRect,0.225000X0.225000X0.250000X-0.225000X0.250000X-0.225000X-0.250000X0.225000X-0.250000X0*%
%TD*%
%TA.AperFunction,SMDPad,CuDef*%
%ADD21RoundRect,0.140000X0.170000X-0.140000X0.170000X0.140000X-0.170000X0.140000X-0.170000X-0.140000X0*%
%TD*%
%TA.AperFunction,SMDPad,CuDef*%
%ADD22R,0.700000X0.250000*%
%TD*%
%TA.AperFunction,SMDPad,CuDef*%
%ADD23R,1.700000X3.300000*%
%TD*%
%TA.AperFunction,SMDPad,CuDef*%
%ADD24RoundRect,0.218750X0.256250X-0.218750X0.256250X0.218750X-0.256250X0.218750X-0.256250X-0.218750X0*%
%TD*%
%TA.AperFunction,SMDPad,CuDef*%
%ADD25RoundRect,0.135000X0.135000X0.185000X-0.135000X0.185000X-0.135000X-0.185000X0.135000X-0.185000X0*%
%TD*%
%TA.AperFunction,ComponentPad*%
%ADD26R,1.700000X1.700000*%
%TD*%
%TA.AperFunction,ComponentPad*%
%ADD27O,1.700000X1.700000*%
%TD*%
%TA.AperFunction,SMDPad,CuDef*%
%ADD28RoundRect,0.100000X-0.100000X0.130000X-0.100000X-0.130000X0.100000X-0.130000X0.100000X0.130000X0*%
%TD*%
%TA.AperFunction,SMDPad,CuDef*%
%ADD29RoundRect,0.250001X-0.924999X0.499999X-0.924999X-0.499999X0.924999X-0.499999X0.924999X0.499999X0*%
%TD*%
%TA.AperFunction,SMDPad,CuDef*%
%ADD30RoundRect,0.050000X-0.350000X-0.050000X0.350000X-0.050000X0.350000X0.050000X-0.350000X0.050000X0*%
%TD*%
%TA.AperFunction,SMDPad,CuDef*%
%ADD31RoundRect,0.050000X-0.050000X-0.350000X0.050000X-0.350000X0.050000X0.350000X-0.050000X0.350000X0*%
%TD*%
%TA.AperFunction,HeatsinkPad*%
%ADD32R,4.600000X4.600000*%
%TD*%
%TA.AperFunction,SMDPad,CuDef*%
%ADD33RoundRect,0.147500X-0.147500X-0.172500X0.147500X-0.172500X0.147500X0.172500X-0.147500X0.172500X0*%
%TD*%
%TA.AperFunction,SMDPad,CuDef*%
%ADD34FreePoly0,315.000000*%
%TD*%
%TA.AperFunction,SMDPad,CuDef*%
%ADD35FreePoly1,315.000000*%
%TD*%
%TA.AperFunction,SMDPad,CuDef*%
%ADD36FreePoly2,315.000000*%
%TD*%
%TA.AperFunction,SMDPad,CuDef*%
%ADD37FreePoly3,270.000000*%
%TD*%
%TA.AperFunction,ViaPad*%
%ADD38C,0.500000*%
%TD*%
%TA.AperFunction,ViaPad*%
%ADD39C,0.800000*%
%TD*%
%TA.AperFunction,Conductor*%
%ADD40C,0.200000*%
%TD*%
%TA.AperFunction,Conductor*%
%ADD41C,0.250000*%
%TD*%
%TA.AperFunction,Conductor*%
%ADD42C,0.350000*%
%TD*%
%TA.AperFunction,Conductor*%
%ADD43C,0.400000*%
%TD*%
G04 APERTURE END LIST*
D10*
%TO.N,/nRF54L15 RFSoC/RF*%
X108460000Y-81850000D02*
X109800000Y-81850000D01*
X109800000Y-79100000D02*
X109800000Y-78500000D01*
X108600000Y-76700000D02*
X109800000Y-76700000D01*
X109800000Y-76100000D02*
X108600000Y-76100000D01*
X108600000Y-77300000D02*
X108600000Y-76700000D01*
X109800000Y-79700000D02*
X109800000Y-80700000D01*
X109800000Y-77900000D02*
X109800000Y-77300000D01*
X108600000Y-78500000D02*
X108600000Y-77900000D01*
X109800000Y-77300000D02*
X108600000Y-77300000D01*
X109800000Y-79700000D02*
X108600000Y-79700000D01*
X108600000Y-79100000D02*
X109800000Y-79100000D01*
X109800000Y-81850000D02*
X109800000Y-80700000D01*
X107100000Y-80700000D02*
X109800000Y-80700000D01*
X109800000Y-76700000D02*
X109800000Y-76100000D01*
X109800000Y-75500000D02*
X109800000Y-74300000D01*
X108600000Y-77900000D02*
X109800000Y-77900000D01*
X108600000Y-79700000D02*
X108600000Y-79100000D01*
X109800000Y-78500000D02*
X108600000Y-78500000D01*
X108600000Y-75500000D02*
X109800000Y-75500000D01*
X108600000Y-76100000D02*
X108600000Y-75500000D01*
%TA.AperFunction,EtchedComponent*%
%TD*%
%TO.C,NT1*%
G36*
X107800000Y-81685000D02*
G01*
X108460000Y-81685000D01*
X108460000Y-82015000D01*
X107800000Y-82015000D01*
X107800000Y-81685000D01*
G37*
%TD.AperFunction*%
D11*
%TO.P,X1,1,1*%
%TO.N,Net-(U1-P1.01)*%
X93200000Y-80200000D03*
%TO.P,X1,2,2*%
%TO.N,Net-(U1-P1.00)*%
X93200000Y-78800000D03*
%TD*%
D12*
%TO.P,NT1,1,1*%
%TO.N,GND*%
X107800000Y-81850000D03*
%TO.P,NT1,2,2*%
%TO.N,/nRF54L15 RFSoC/RF*%
X108460000Y-81850000D03*
%TD*%
D13*
%TO.P,C12,1*%
%TO.N,Net-(U1-DECD)*%
X98220000Y-76550000D03*
%TO.P,C12,2*%
%TO.N,GND*%
X99180000Y-76550000D03*
%TD*%
D14*
%TO.P,C7,1*%
%TO.N,Net-(C7-Pad1)*%
X104800000Y-79900000D03*
%TO.P,C7,2*%
%TO.N,GND*%
X104800000Y-79260000D03*
%TD*%
D15*
%TO.P,R3,1*%
%TO.N,Net-(U3-C2)*%
X99422597Y-91562145D03*
%TO.P,R3,2*%
%TO.N,Net-(T1-SB)*%
X100442597Y-91562145D03*
%TD*%
D13*
%TO.P,C16,1*%
%TO.N,Net-(U1-DECA)*%
X100540000Y-75400000D03*
%TO.P,C16,2*%
%TO.N,GND*%
X101500000Y-75400000D03*
%TD*%
D16*
%TO.P,L3,1,1*%
%TO.N,Net-(C8-Pad1)*%
X106300000Y-80756509D03*
%TO.P,L3,2,2*%
%TO.N,/nRF54L15 RFSoC/RF*%
X106940000Y-80756509D03*
%TD*%
D17*
%TO.P,C17,1*%
%TO.N,Net-(T1-SB)*%
X100448361Y-93579098D03*
%TO.P,C17,2*%
%TO.N,Net-(U3-C1)*%
X99488361Y-93579098D03*
%TD*%
D18*
%TO.P,X2,1,1*%
%TO.N,Net-(U1-XC2)*%
X104200000Y-75900000D03*
%TO.P,X2,2,2*%
%TO.N,GND*%
X104200000Y-77300000D03*
%TO.P,X2,3,3*%
%TO.N,Net-(U1-XC1)*%
X105300000Y-77300000D03*
%TO.P,X2,4,4*%
%TO.N,GND*%
X105300000Y-75900000D03*
%TD*%
D19*
%TO.P,C18,1*%
%TO.N,Net-(J2-Pin_1)*%
X105900000Y-86950000D03*
%TO.P,C18,2*%
%TO.N,GND*%
X105900000Y-84075000D03*
%TD*%
D20*
%TO.P,C4,1*%
%TO.N,VDD*%
X94400000Y-76500000D03*
%TO.P,C4,2*%
%TO.N,GND*%
X92850000Y-76500000D03*
%TD*%
D13*
%TO.P,C5,1*%
%TO.N,VDD*%
X100320000Y-85100000D03*
%TO.P,C5,2*%
%TO.N,GND*%
X101280000Y-85100000D03*
%TD*%
D21*
%TO.P,C3,1*%
%TO.N,VDD*%
X102550000Y-76400000D03*
%TO.P,C3,2*%
%TO.N,GND*%
X102550000Y-75440000D03*
%TD*%
D22*
%TO.P,U3,1,VAUX*%
%TO.N,Net-(U3-VAUX)*%
X95025000Y-91437500D03*
%TO.P,U3,2,VSTORE*%
%TO.N,/Thermal Energy Harvesting Chain/VSTORE*%
X95025000Y-91937500D03*
%TO.P,U3,3,VOUT*%
%TO.N,Net-(U3-VOUT)*%
X95025000Y-92437500D03*
%TO.P,U3,4,VOUT2*%
X95025000Y-92937500D03*
%TO.P,U3,5,VLDO*%
%TO.N,Net-(U3-VAUX)*%
X95025000Y-93437500D03*
%TO.P,U3,6,PGD*%
%TO.N,unconnected-(U3-PGD-Pad6)*%
X95025000Y-93937500D03*
%TO.P,U3,7,VS2*%
%TO.N,Net-(U3-VS2)*%
X97925000Y-93937500D03*
%TO.P,U3,8,VS1*%
%TO.N,Net-(U3-VS1)*%
X97925000Y-93437500D03*
%TO.P,U3,9,VOUT2_EN*%
%TO.N,GND*%
X97925000Y-92937500D03*
%TO.P,U3,10,C1*%
%TO.N,Net-(U3-C1)*%
X97925000Y-92437500D03*
%TO.P,U3,11,C2*%
%TO.N,Net-(U3-C2)*%
X97925000Y-91937500D03*
%TO.P,U3,12,SW*%
%TO.N,Net-(T1-AB)*%
X97925000Y-91437500D03*
D23*
%TO.P,U3,13,EPAD/GND*%
%TO.N,GND*%
X96475000Y-92687500D03*
%TD*%
D13*
%TO.P,C6,1*%
%TO.N,Net-(U1-~{RESET})*%
X103270000Y-84300000D03*
%TO.P,C6,2*%
%TO.N,GND*%
X104230000Y-84300000D03*
%TD*%
D17*
%TO.P,C14,1*%
%TO.N,Net-(U1-DECA)*%
X99600000Y-75600000D03*
%TO.P,C14,2*%
%TO.N,GND*%
X98640000Y-75600000D03*
%TD*%
D13*
%TO.P,C15,1*%
%TO.N,Net-(U1-DECA)*%
X100540000Y-76400000D03*
%TO.P,C15,2*%
%TO.N,GND*%
X101500000Y-76400000D03*
%TD*%
D24*
%TO.P,L4,1,1*%
%TO.N,Net-(U1-DCC)*%
X97000000Y-76387500D03*
%TO.P,L4,2,2*%
%TO.N,Net-(U1-DECD)*%
X97000000Y-74812500D03*
%TD*%
D25*
%TO.P,R4,1*%
%TO.N,Net-(U3-VOUT)*%
X93810000Y-92700000D03*
%TO.P,R4,2*%
%TO.N,VDD*%
X92790000Y-92700000D03*
%TD*%
D26*
%TO.P,J2,1,Pin_1*%
%TO.N,Net-(J2-Pin_1)*%
X108800000Y-86975000D03*
D27*
%TO.P,J2,2,Pin_2*%
%TO.N,GND*%
X108800000Y-84435000D03*
%TD*%
D26*
%TO.P,J1,1,Pin_1*%
%TO.N,GND*%
X93560000Y-98600000D03*
D27*
%TO.P,J1,2,Pin_2*%
%TO.N,VDD*%
X96100000Y-98600000D03*
%TO.P,J1,3,Pin_3*%
%TO.N,/nRF54L15 RFSoC/NRST*%
X98640000Y-98600000D03*
%TO.P,J1,4,Pin_4*%
%TO.N,/nRF54L15 RFSoC/SWDIO*%
X101180000Y-98600000D03*
%TO.P,J1,5,Pin_5*%
%TO.N,/nRF54L15 RFSoC/SWCLK*%
X103720000Y-98600000D03*
%TD*%
D28*
%TO.P,C9,1*%
%TO.N,/nRF54L15 RFSoC/RF*%
X107000000Y-81580000D03*
%TO.P,C9,2*%
%TO.N,GND*%
X107000000Y-82220000D03*
%TD*%
D29*
%TO.P,C21,1*%
%TO.N,VDD*%
X93400000Y-86050000D03*
%TO.P,C21,2*%
%TO.N,GND*%
X93400000Y-89300000D03*
%TD*%
D13*
%TO.P,C22,1*%
%TO.N,Net-(U3-VAUX)*%
X96220000Y-89850000D03*
%TO.P,C22,2*%
%TO.N,GND*%
X97180000Y-89850000D03*
%TD*%
D30*
%TO.P,U1,1,P1.00*%
%TO.N,Net-(U1-P1.00)*%
X96050000Y-78750000D03*
%TO.P,U1,2,P1.01*%
%TO.N,Net-(U1-P1.01)*%
X96050000Y-79150000D03*
%TO.P,U1,3,P1.02*%
%TO.N,unconnected-(U1-P1.02-Pad3)*%
X96050000Y-79550000D03*
%TO.P,U1,4,P1.03*%
%TO.N,Net-(U1-P1.03)*%
X96050000Y-79950000D03*
%TO.P,U1,5,P1.04*%
%TO.N,unconnected-(U1-P1.04-Pad5)*%
X96050000Y-80350000D03*
%TO.P,U1,6,P1.05*%
%TO.N,Net-(U1-P1.05)*%
X96050000Y-80750000D03*
%TO.P,U1,7,P1.06*%
%TO.N,unconnected-(U1-P1.06-Pad7)*%
X96050000Y-81150000D03*
%TO.P,U1,8,P1.07*%
%TO.N,Net-(U1-P1.07)*%
X96050000Y-81550000D03*
%TO.P,U1,9,P1.08*%
%TO.N,unconnected-(U1-P1.08-Pad9)*%
X96050000Y-81950000D03*
%TO.P,U1,10,VDD*%
%TO.N,VDD*%
X96050000Y-82350000D03*
%TO.P,U1,11,P2.00*%
%TO.N,unconnected-(U1-P2.00-Pad11)*%
X96050000Y-82750000D03*
%TO.P,U1,12,P2.01*%
%TO.N,Net-(U1-P2.01)*%
X96050000Y-83150000D03*
D31*
%TO.P,U1,13,P2.02*%
%TO.N,Net-(U1-P2.02)*%
X96800000Y-83900000D03*
%TO.P,U1,14,P2.03*%
%TO.N,unconnected-(U1-P2.03-Pad14)*%
X97200000Y-83900000D03*
%TO.P,U1,15,P2.04*%
%TO.N,Net-(U1-P2.04)*%
X97600000Y-83900000D03*
%TO.P,U1,16,P2.05*%
%TO.N,Net-(U1-P2.05)*%
X98000000Y-83900000D03*
%TO.P,U1,17,P2.06*%
%TO.N,Net-(U1-P2.06)*%
X98400000Y-83900000D03*
%TO.P,U1,18,P2.07*%
%TO.N,unconnected-(U1-P2.07-Pad18)*%
X98800000Y-83900000D03*
%TO.P,U1,19,P2.08*%
%TO.N,unconnected-(U1-P2.08-Pad19)*%
X99200000Y-83900000D03*
%TO.P,U1,20,P2.09*%
%TO.N,unconnected-(U1-P2.09-Pad20)*%
X99600000Y-83900000D03*
%TO.P,U1,21,P2.10*%
%TO.N,/Thermal Energy Harvesting Chain/VSTORE*%
X100000000Y-83900000D03*
%TO.P,U1,22,VDD*%
%TO.N,VDD*%
X100400000Y-83900000D03*
%TO.P,U1,23,P0.00*%
%TO.N,unconnected-(U1-P0.00-Pad23)*%
X100800000Y-83900000D03*
%TO.P,U1,24,P0.01*%
%TO.N,unconnected-(U1-P0.01-Pad24)*%
X101200000Y-83900000D03*
D30*
%TO.P,U1,25,SWDIO*%
%TO.N,/nRF54L15 RFSoC/SWDIO*%
X101950000Y-83150000D03*
%TO.P,U1,26,SWDCLK*%
%TO.N,/nRF54L15 RFSoC/SWCLK*%
X101950000Y-82750000D03*
%TO.P,U1,27,P0.02*%
%TO.N,unconnected-(U1-P0.02-Pad27)*%
X101950000Y-82350000D03*
%TO.P,U1,28,P0.03*%
%TO.N,unconnected-(U1-P0.03-Pad28)*%
X101950000Y-81950000D03*
%TO.P,U1,29,P0.04*%
%TO.N,unconnected-(U1-P0.04-Pad29)*%
X101950000Y-81550000D03*
%TO.P,U1,30,~{RESET}*%
%TO.N,Net-(U1-~{RESET})*%
X101950000Y-81150000D03*
%TO.P,U1,31,ANT*%
%TO.N,Net-(U1-ANT)*%
X101950000Y-80750000D03*
%TO.P,U1,32,VSS_PA*%
%TO.N,GND*%
X101950000Y-80350000D03*
%TO.P,U1,33,DECRF*%
%TO.N,Net-(U1-DECA)*%
X101950000Y-79950000D03*
%TO.P,U1,34,XC1*%
%TO.N,Net-(U1-XC1)*%
X101950000Y-79550000D03*
%TO.P,U1,35,XC2*%
%TO.N,Net-(U1-XC2)*%
X101950000Y-79150000D03*
%TO.P,U1,36,VDD*%
%TO.N,VDD*%
X101950000Y-78750000D03*
D31*
%TO.P,U1,37,P1.09*%
%TO.N,unconnected-(U1-P1.09-Pad37)*%
X101200000Y-78000000D03*
%TO.P,U1,38,P1.10*%
%TO.N,unconnected-(U1-P1.10-Pad38)*%
X100800000Y-78000000D03*
%TO.P,U1,39,P1.11*%
%TO.N,unconnected-(U1-P1.11-Pad39)*%
X100400000Y-78000000D03*
%TO.P,U1,40,P1.12*%
%TO.N,unconnected-(U1-P1.12-Pad40)*%
X100000000Y-78000000D03*
%TO.P,U1,41,P1.13*%
%TO.N,unconnected-(U1-P1.13-Pad41)*%
X99600000Y-78000000D03*
%TO.P,U1,42,P1.14*%
%TO.N,unconnected-(U1-P1.14-Pad42)*%
X99200000Y-78000000D03*
%TO.P,U1,43,DECA*%
%TO.N,Net-(U1-DECA)*%
X98800000Y-78000000D03*
%TO.P,U1,44,VSS*%
%TO.N,GND*%
X98400000Y-78000000D03*
%TO.P,U1,45,DECD*%
%TO.N,Net-(U1-DECD)*%
X98000000Y-78000000D03*
%TO.P,U1,46,DCC*%
%TO.N,Net-(U1-DCC)*%
X97600000Y-78000000D03*
%TO.P,U1,47,VDD*%
%TO.N,VDD*%
X97200000Y-78000000D03*
%TO.P,U1,48,VDD*%
X96800000Y-78000000D03*
D32*
%TO.P,U1,49,VSS*%
%TO.N,GND*%
X99000000Y-80950000D03*
%TD*%
D16*
%TO.P,L2,1,1*%
%TO.N,Net-(C7-Pad1)*%
X104800000Y-80745000D03*
%TO.P,L2,2,2*%
%TO.N,Net-(C8-Pad1)*%
X105440000Y-80745000D03*
%TD*%
D21*
%TO.P,C2,1*%
%TO.N,VDD*%
X95700000Y-76500000D03*
%TO.P,C2,2*%
%TO.N,GND*%
X95700000Y-75540000D03*
%TD*%
D15*
%TO.P,R1,1*%
%TO.N,Net-(U1-~{RESET})*%
X103230000Y-85300000D03*
%TO.P,R1,2*%
%TO.N,/nRF54L15 RFSoC/NRST*%
X104250000Y-85300000D03*
%TD*%
D17*
%TO.P,C20,1*%
%TO.N,Net-(T1-SB)*%
X100448361Y-92574577D03*
%TO.P,C20,2*%
%TO.N,Net-(U3-C2)*%
X99488361Y-92574577D03*
%TD*%
D16*
%TO.P,L1,1,1*%
%TO.N,Net-(U1-ANT)*%
X103323073Y-80779344D03*
%TO.P,L1,2,2*%
%TO.N,Net-(C7-Pad1)*%
X103963073Y-80779344D03*
%TD*%
D33*
%TO.P,FB2,1*%
%TO.N,Net-(U1-DECD)*%
X98615000Y-74600000D03*
%TO.P,FB2,2*%
%TO.N,Net-(U1-DECA)*%
X99585000Y-74600000D03*
%TD*%
D28*
%TO.P,C8,1*%
%TO.N,Net-(C8-Pad1)*%
X105500000Y-81635000D03*
%TO.P,C8,2*%
%TO.N,GND*%
X105500000Y-82275000D03*
%TD*%
D17*
%TO.P,C1,1*%
%TO.N,VDD*%
X94400000Y-82700000D03*
%TO.P,C1,2*%
%TO.N,GND*%
X93440000Y-82700000D03*
%TD*%
D34*
%TO.P,T1,1,AA*%
%TO.N,Net-(J2-Pin_1)*%
X106900000Y-90299018D03*
D35*
%TO.P,T1,2,AB*%
%TO.N,Net-(T1-AB)*%
X102675000Y-90274018D03*
D36*
%TO.P,T1,3,SA*%
%TO.N,GND*%
X102588347Y-94500000D03*
D37*
%TO.P,T1,4,SB*%
%TO.N,Net-(T1-SB)*%
X106900000Y-94499018D03*
%TD*%
D26*
%TO.P,C19,1*%
%TO.N,/Thermal Energy Harvesting Chain/VSTORE*%
X96660000Y-87200000D03*
D27*
%TO.P,C19,2*%
%TO.N,GND*%
X99200000Y-87200000D03*
%TD*%
D38*
%TO.N,GND*%
X92900000Y-90600000D03*
X107800000Y-75800000D03*
X97200000Y-80900000D03*
X96490000Y-93770000D03*
X92000000Y-76500000D03*
X96490000Y-91710000D03*
X107800000Y-77800000D03*
X94800000Y-87800000D03*
X107150000Y-98300000D03*
X100500000Y-74400000D03*
X104750000Y-95050000D03*
X107800000Y-76800000D03*
X96475000Y-92687500D03*
X93800000Y-82000000D03*
X104900000Y-82300000D03*
X99855001Y-76429753D03*
X101100000Y-95200000D03*
X99000000Y-82700000D03*
X101200000Y-86000000D03*
X104500000Y-91000000D03*
X103300000Y-74400000D03*
X93800000Y-81300000D03*
X109350000Y-82800000D03*
X104200000Y-88300000D03*
X92900000Y-75400000D03*
X98000000Y-89250000D03*
X110250000Y-82800000D03*
X100400000Y-79200000D03*
X100800000Y-82800000D03*
X98900000Y-79200000D03*
X102750000Y-78050000D03*
X108900000Y-96100000D03*
X107800000Y-74800000D03*
X107800000Y-82500000D03*
X104200000Y-83450000D03*
X107800000Y-78600000D03*
X100800000Y-81000000D03*
X92100000Y-84500000D03*
X98900000Y-80900000D03*
X108500000Y-82800000D03*
%TO.N,VDD*%
X101950000Y-77400000D03*
X94600000Y-75432298D03*
D39*
X93400000Y-87700000D03*
D38*
X99600000Y-85700000D03*
X95400000Y-78200000D03*
D39*
X92300000Y-91700000D03*
D38*
X95200000Y-82100000D03*
%TO.N,Net-(U1-DECA)*%
X103100000Y-79800000D03*
X101000000Y-77211376D03*
%TO.N,Net-(U3-VAUX)*%
X95025000Y-90800000D03*
X94237500Y-93437500D03*
%TO.N,/nRF54L15 RFSoC/RF*%
X107700000Y-80700000D03*
%TO.N,/nRF54L15 RFSoC/SWDIO*%
X99400000Y-89395000D03*
%TO.N,/nRF54L15 RFSoC/NRST*%
X98800000Y-89900000D03*
%TO.N,/nRF54L15 RFSoC/SWCLK*%
X100300003Y-89395000D03*
%TO.N,Net-(U1-P2.06)*%
X98700000Y-85000000D03*
%TO.N,Net-(U1-P2.05)*%
X97996000Y-85003000D03*
%TO.N,Net-(U1-P2.01)*%
X95157089Y-82857089D03*
%TO.N,Net-(U1-P2.04)*%
X97400000Y-84700000D03*
%TO.N,Net-(U1-P2.02)*%
X95800000Y-84200000D03*
%TO.N,Net-(U3-VS2)*%
X96300000Y-94900000D03*
%TO.N,Net-(U3-VS1)*%
X96300000Y-95800000D03*
%TO.N,Net-(U1-P1.03)*%
X94940601Y-80144997D03*
%TO.N,Net-(U1-P1.05)*%
X94940601Y-80800000D03*
%TO.N,Net-(U1-P1.07)*%
X94940601Y-81498553D03*
%TD*%
D40*
%TO.N,Net-(U1-~{RESET})*%
X102446360Y-81150000D02*
X101950000Y-81150000D01*
X103230000Y-81933640D02*
X102446360Y-81150000D01*
X103230000Y-85300000D02*
X103230000Y-81933640D01*
D41*
%TO.N,GND*%
X98640000Y-75600000D02*
X98640000Y-75628510D01*
D40*
X101950000Y-80350000D02*
X103017599Y-80350000D01*
X103289834Y-80324344D02*
X104100000Y-79514178D01*
X97225000Y-93437500D02*
X96475000Y-92687500D01*
X103043255Y-80324344D02*
X103289834Y-80324344D01*
X105475000Y-82300000D02*
X105500000Y-82275000D01*
X98400000Y-78000000D02*
X98400000Y-80350000D01*
X104100000Y-79514178D02*
X104100000Y-79500000D01*
X101950000Y-80350000D02*
X99600000Y-80350000D01*
X96725000Y-92937500D02*
X96475000Y-92687500D01*
D41*
X98640000Y-75600000D02*
X98640000Y-75532892D01*
D40*
X103017599Y-80350000D02*
X103043255Y-80324344D01*
X99600000Y-80350000D02*
X99000000Y-80950000D01*
X104900000Y-82300000D02*
X105475000Y-82300000D01*
X98400000Y-80350000D02*
X99000000Y-80950000D01*
X97925000Y-92937500D02*
X96725000Y-92937500D01*
X97137500Y-93937500D02*
X97100000Y-93900000D01*
X104340000Y-79260000D02*
X104800000Y-79260000D01*
X104100000Y-79500000D02*
X104340000Y-79260000D01*
%TO.N,Net-(C7-Pad1)*%
X103940000Y-80745000D02*
X104800000Y-80745000D01*
X104800000Y-80745000D02*
X104800000Y-79920000D01*
%TO.N,Net-(C8-Pad1)*%
X105500000Y-81525000D02*
X105500000Y-80805000D01*
X105440000Y-80745000D02*
X106300000Y-80745000D01*
X105500000Y-80805000D02*
X105440000Y-80745000D01*
D41*
%TO.N,Net-(U1-DECD)*%
X98700000Y-74700000D02*
X97300000Y-74700000D01*
X98800000Y-74600000D02*
X98700000Y-74700000D01*
D40*
X98000000Y-75600000D02*
X98000000Y-78000000D01*
D41*
X97300000Y-74700000D02*
X97200000Y-74800000D01*
D40*
X97200000Y-74800000D02*
X98000000Y-75600000D01*
%TO.N,/Thermal Energy Harvesting Chain/VSTORE*%
X95025000Y-91937500D02*
X94540000Y-91937500D01*
X97300000Y-87200000D02*
X100000000Y-84500000D01*
X94540000Y-91937500D02*
X94420000Y-91817500D01*
X94420000Y-91817500D02*
X94420000Y-90480000D01*
X96900000Y-88000000D02*
X96900000Y-87200000D01*
X94420000Y-90480000D02*
X96900000Y-88000000D01*
X96500000Y-87200000D02*
X97300000Y-87200000D01*
X100000000Y-84500000D02*
X100000000Y-83900000D01*
D42*
%TO.N,VDD*%
X92300000Y-92500000D02*
X92300000Y-91700000D01*
D40*
X101950000Y-77000000D02*
X102550000Y-76400000D01*
X95553640Y-82350000D02*
X96050000Y-82350000D01*
X101950000Y-77400000D02*
X101950000Y-77000000D01*
D42*
X92500000Y-92700000D02*
X92300000Y-92500000D01*
D40*
X101950000Y-78750000D02*
X101950000Y-77400000D01*
X95303640Y-82100000D02*
X95553640Y-82350000D01*
X95617278Y-82350000D02*
X96050000Y-82350000D01*
X99600000Y-85700000D02*
X100400000Y-84900000D01*
X95200000Y-82100000D02*
X94600000Y-82700000D01*
X100400000Y-84900000D02*
X100400000Y-83900000D01*
D43*
X93400000Y-86050000D02*
X93400000Y-87700000D01*
D42*
X92790000Y-92700000D02*
X92500000Y-92700000D01*
D40*
X95200000Y-82100000D02*
X95303640Y-82100000D01*
%TO.N,Net-(U1-DECA)*%
X102777732Y-79950000D02*
X101950000Y-79950000D01*
X99003640Y-77300000D02*
X99840000Y-77300000D01*
X99585000Y-74600000D02*
X99585000Y-75585000D01*
X99600000Y-75600000D02*
X100540000Y-75600000D01*
X99840000Y-77300000D02*
X100540000Y-76600000D01*
X98800000Y-77503640D02*
X99003640Y-77300000D01*
X99585000Y-75585000D02*
X99600000Y-75600000D01*
X101000000Y-77211376D02*
X101000000Y-77060000D01*
X102927732Y-79800000D02*
X102777732Y-79950000D01*
X101000000Y-77060000D02*
X100540000Y-76600000D01*
X98800000Y-78000000D02*
X98800000Y-77503640D01*
X100540000Y-75600000D02*
X100540000Y-76600000D01*
X103100000Y-79800000D02*
X102927732Y-79800000D01*
D41*
%TO.N,Net-(U3-C1)*%
X99320000Y-93420000D02*
X99520000Y-93420000D01*
X97925000Y-92437500D02*
X98337500Y-92437500D01*
X98337500Y-92437500D02*
X99320000Y-93420000D01*
%TO.N,Net-(J2-Pin_1)*%
X108600000Y-87175000D02*
X108800000Y-86975000D01*
X106900000Y-90299018D02*
X105900000Y-89299018D01*
%TO.N,Net-(U3-C2)*%
X99337077Y-92574577D02*
X99488361Y-92574577D01*
X97925000Y-91937500D02*
X98700000Y-91937500D01*
X98700000Y-91937500D02*
X99075355Y-91562145D01*
X99510000Y-92552938D02*
X99510000Y-92450000D01*
X99488361Y-92574577D02*
X99510000Y-92552938D01*
X98700000Y-91937500D02*
X99337077Y-92574577D01*
X99075355Y-91562145D02*
X99422597Y-91562145D01*
D40*
%TO.N,Net-(U3-VAUX)*%
X95975000Y-89850000D02*
X96220000Y-89850000D01*
X94237500Y-93437500D02*
X95025000Y-93437500D01*
X95025000Y-90800000D02*
X95975000Y-89850000D01*
X95025000Y-90800000D02*
X95025000Y-91437500D01*
%TO.N,/nRF54L15 RFSoC/RF*%
X106940000Y-80756509D02*
X106996509Y-80700000D01*
X107000000Y-81480000D02*
X107000000Y-80805000D01*
X107000000Y-80805000D02*
X106940000Y-80745000D01*
%TO.N,/nRF54L15 RFSoC/SWDIO*%
X99600003Y-89395000D02*
X99795003Y-89200000D01*
X100410000Y-88890000D02*
X102100000Y-87200000D01*
X102100000Y-87200000D02*
X102100000Y-83300000D01*
X99400000Y-89395000D02*
X99600003Y-89395000D01*
X99795003Y-89185822D02*
X100090825Y-88890000D01*
X100090825Y-88890000D02*
X100410000Y-88890000D01*
X102100000Y-83300000D02*
X101950000Y-83150000D01*
X99795003Y-89200000D02*
X99795003Y-89185822D01*
%TO.N,/nRF54L15 RFSoC/NRST*%
X100600000Y-89900000D02*
X104250000Y-86250000D01*
X98800000Y-89900000D02*
X100600000Y-89900000D01*
X104250000Y-86250000D02*
X104250000Y-85300000D01*
%TO.N,/nRF54L15 RFSoC/SWCLK*%
X100505000Y-89395000D02*
X102605000Y-87295000D01*
X102605000Y-87295000D02*
X102605000Y-83795000D01*
X102605000Y-83795000D02*
X102605000Y-82905000D01*
X102605000Y-82905000D02*
X102450000Y-82750000D01*
X100300003Y-89395000D02*
X100505000Y-89395000D01*
X102450000Y-82750000D02*
X101950000Y-82750000D01*
%TO.N,Net-(U1-ANT)*%
X103313432Y-80747049D02*
X103310481Y-80750000D01*
X103310481Y-80750000D02*
X101950000Y-80750000D01*
%TO.N,Net-(U1-DCC)*%
X97600000Y-76775000D02*
X97600000Y-78000000D01*
X97200000Y-76375000D02*
X97600000Y-76775000D01*
%TO.N,Net-(T1-AB)*%
X98462500Y-90900000D02*
X102669700Y-90900000D01*
X102669700Y-90900000D02*
X102947350Y-90622350D01*
X97925000Y-91437500D02*
X98462500Y-90900000D01*
%TO.N,Net-(U1-P1.00)*%
X93250000Y-78750000D02*
X93200000Y-78800000D01*
X96050000Y-78750000D02*
X93250000Y-78750000D01*
%TO.N,Net-(U1-XC1)*%
X105300000Y-77625000D02*
X105300000Y-77300000D01*
X101950000Y-79550000D02*
X102612046Y-79550000D01*
X103962046Y-78200000D02*
X104725000Y-78200000D01*
X102612046Y-79550000D02*
X103962046Y-78200000D01*
X104725000Y-78200000D02*
X105300000Y-77625000D01*
%TO.N,Net-(U1-P2.06)*%
X98400000Y-84700000D02*
X98400000Y-83900000D01*
X98700000Y-85000000D02*
X98400000Y-84700000D01*
%TO.N,Net-(U1-P2.05)*%
X97996000Y-85003000D02*
X97996000Y-84504000D01*
X97996000Y-84504000D02*
X98000000Y-84500000D01*
X98000000Y-84500000D02*
X98000000Y-83900000D01*
%TO.N,Net-(U1-P1.01)*%
X96050000Y-79150000D02*
X94750000Y-79150000D01*
X94750000Y-79150000D02*
X93700000Y-80200000D01*
%TO.N,Net-(U1-P2.01)*%
X95450000Y-83150000D02*
X96050000Y-83150000D01*
X95157089Y-82857089D02*
X95450000Y-83150000D01*
%TO.N,Net-(U1-P2.04)*%
X97400000Y-84700000D02*
X97600000Y-84500000D01*
X97600000Y-84500000D02*
X97600000Y-83900000D01*
%TO.N,Net-(U1-XC2)*%
X102446360Y-79150000D02*
X103300000Y-78296360D01*
X101950000Y-79150000D02*
X102446360Y-79150000D01*
X103300000Y-76800000D02*
X104200000Y-75900000D01*
X103300000Y-78296360D02*
X103300000Y-76800000D01*
%TO.N,Net-(U1-P2.02)*%
X95800000Y-84200000D02*
X96230000Y-84630000D01*
X96800411Y-84460411D02*
X96800000Y-84460000D01*
X96630822Y-84630000D02*
X96800411Y-84460411D01*
X96800000Y-84460000D02*
X96800000Y-83900000D01*
X96230000Y-84630000D02*
X96630822Y-84630000D01*
D42*
%TO.N,Net-(U3-VOUT)*%
X93810000Y-92700000D02*
X95200000Y-92700000D01*
D41*
%TO.N,Net-(U3-VS2)*%
X96300000Y-94900000D02*
X97337500Y-94900000D01*
X97925000Y-94312500D02*
X97925000Y-93937500D01*
X97337500Y-94900000D02*
X97925000Y-94312500D01*
%TO.N,Net-(U3-VS1)*%
X98800000Y-94300000D02*
X98800000Y-93712500D01*
X98800000Y-93712500D02*
X98525000Y-93437500D01*
X97300000Y-95800000D02*
X98800000Y-94300000D01*
X96300000Y-95800000D02*
X97300000Y-95800000D01*
X98525000Y-93437500D02*
X97925000Y-93437500D01*
%TO.N,Net-(U1-P1.03)*%
X94940601Y-80144997D02*
X95135598Y-79950000D01*
X95135598Y-79950000D02*
X96050000Y-79950000D01*
D40*
%TO.N,Net-(U1-P1.05)*%
X94990601Y-80750000D02*
X96050000Y-80750000D01*
X94940601Y-80800000D02*
X94990601Y-80750000D01*
D41*
%TO.N,Net-(U1-P1.07)*%
X94992048Y-81550000D02*
X96050000Y-81550000D01*
X94940601Y-81498553D02*
X94992048Y-81550000D01*
%TD*%
%TA.AperFunction,Conductor*%
%TO.N,VDD*%
G36*
X95216834Y-75019685D02*
G01*
X95262589Y-75072489D01*
X95272533Y-75141647D01*
X95251370Y-75195123D01*
X95246776Y-75201682D01*
X95196027Y-75310514D01*
X95189500Y-75360097D01*
X95189500Y-75719894D01*
X95189501Y-75719900D01*
X95196028Y-75769487D01*
X95196029Y-75769489D01*
X95196029Y-75769490D01*
X95222074Y-75825342D01*
X95246776Y-75878316D01*
X95331684Y-75963224D01*
X95440513Y-76013972D01*
X95490099Y-76020500D01*
X95909900Y-76020499D01*
X95959487Y-76013972D01*
X96068316Y-75963224D01*
X96145987Y-75885552D01*
X96193939Y-75859368D01*
X96187442Y-75841946D01*
X96198745Y-75780695D01*
X96203972Y-75769487D01*
X96210500Y-75719901D01*
X96210499Y-75390270D01*
X96230183Y-75323232D01*
X96282987Y-75277477D01*
X96352146Y-75267533D01*
X96415701Y-75296558D01*
X96422180Y-75302590D01*
X96463681Y-75344091D01*
X96497166Y-75405414D01*
X96500000Y-75431772D01*
X96500000Y-75768228D01*
X96480315Y-75835267D01*
X96463681Y-75855910D01*
X96398807Y-75920783D01*
X96350851Y-75946967D01*
X96357349Y-75964389D01*
X96344151Y-76029528D01*
X96340049Y-76037578D01*
X96340047Y-76037582D01*
X96324500Y-76135748D01*
X96324500Y-76639251D01*
X96340047Y-76737417D01*
X96340049Y-76737420D01*
X96400342Y-76855751D01*
X96400344Y-76855753D01*
X96400346Y-76855756D01*
X96494247Y-76949657D01*
X96494249Y-76949658D01*
X96500000Y-76952588D01*
X96500000Y-77000000D01*
X96593050Y-77000000D01*
X96612580Y-77009951D01*
X96612582Y-77009952D01*
X96710749Y-77025500D01*
X97175500Y-77025500D01*
X97242539Y-77045185D01*
X97288294Y-77097989D01*
X97299500Y-77149500D01*
X97299500Y-78325500D01*
X97279815Y-78392539D01*
X97227011Y-78438294D01*
X97175500Y-78449500D01*
X96680249Y-78449500D01*
X96621769Y-78461132D01*
X96610483Y-78465807D01*
X96609452Y-78463318D01*
X96559787Y-78478866D01*
X96510425Y-78465321D01*
X96509023Y-78468707D01*
X96497740Y-78464033D01*
X96424676Y-78449500D01*
X96424674Y-78449500D01*
X96089562Y-78449500D01*
X95200862Y-78449500D01*
X95133823Y-78429815D01*
X95113181Y-78413181D01*
X93837925Y-77137925D01*
X93822506Y-77119138D01*
X93821311Y-77117350D01*
X93802792Y-77072617D01*
X93802374Y-77070518D01*
X93800000Y-77046368D01*
X93800000Y-75124663D01*
X93809415Y-75077268D01*
X93809611Y-75076794D01*
X93853425Y-75022372D01*
X93876873Y-75009579D01*
X93877355Y-75009379D01*
X93924664Y-75000000D01*
X95149795Y-75000000D01*
X95216834Y-75019685D01*
G37*
%TD.AperFunction*%
%TD*%
%TA.AperFunction,Conductor*%
%TO.N,Net-(T1-SB)*%
G36*
X100968727Y-91246240D02*
G01*
X100974866Y-91251082D01*
X101500000Y-91700000D01*
X105257225Y-91700000D01*
X105315416Y-91718907D01*
X105329317Y-91731149D01*
X106834173Y-93330059D01*
X106860286Y-93385392D01*
X106848889Y-93445506D01*
X106832085Y-93467914D01*
X105875594Y-94424405D01*
X105821077Y-94452182D01*
X105760645Y-94442611D01*
X105730426Y-94418831D01*
X104915355Y-93467914D01*
X104600001Y-93100000D01*
X104600000Y-93100000D01*
X101390000Y-93100000D01*
X101200000Y-93295000D01*
X101009999Y-93490000D01*
X101017667Y-93819706D01*
X101000118Y-93878321D01*
X100951467Y-93915426D01*
X100919684Y-93921003D01*
X100119145Y-93929008D01*
X100060768Y-93910684D01*
X100024311Y-93861546D01*
X100019159Y-93830852D01*
X100019064Y-93819706D01*
X99997931Y-91327172D01*
X100016344Y-91268823D01*
X100065537Y-91232441D01*
X100096927Y-91227333D01*
X100910536Y-91227333D01*
X100968727Y-91246240D01*
G37*
%TD.AperFunction*%
%TD*%
%TA.AperFunction,Conductor*%
%TO.N,GND*%
G36*
X104462712Y-81064407D02*
G01*
X104474523Y-81074495D01*
X104491509Y-81091480D01*
X104497235Y-81097206D01*
X104600009Y-81142585D01*
X104625135Y-81145500D01*
X104974864Y-81145499D01*
X104999991Y-81142585D01*
X105060513Y-81115861D01*
X105121381Y-81109654D01*
X105174275Y-81140410D01*
X105198989Y-81196382D01*
X105199500Y-81206427D01*
X105199500Y-81239521D01*
X105180593Y-81297712D01*
X105170505Y-81309523D01*
X105147795Y-81332233D01*
X105102414Y-81435011D01*
X105099500Y-81460130D01*
X105099500Y-81809859D01*
X105099501Y-81809864D01*
X105102414Y-81834990D01*
X105102415Y-81834992D01*
X105113904Y-81861011D01*
X105120113Y-81921881D01*
X105089358Y-81974774D01*
X105033386Y-81999489D01*
X105023340Y-82000000D01*
X104600000Y-82000000D01*
X104600000Y-82600000D01*
X104600001Y-82600000D01*
X105199999Y-82600000D01*
X105200000Y-82600000D01*
X105200000Y-82156746D01*
X105218907Y-82098555D01*
X105268407Y-82062591D01*
X105324997Y-82061220D01*
X105329997Y-82062580D01*
X105330009Y-82062585D01*
X105355135Y-82065500D01*
X105644864Y-82065499D01*
X105669991Y-82062585D01*
X105772765Y-82017206D01*
X105852206Y-81937765D01*
X105897585Y-81834991D01*
X105900500Y-81809865D01*
X105900499Y-81460136D01*
X105897585Y-81435009D01*
X105852206Y-81332235D01*
X105852204Y-81332233D01*
X105852205Y-81332233D01*
X105829495Y-81309523D01*
X105801719Y-81255006D01*
X105800500Y-81239521D01*
X105800500Y-81150987D01*
X105819407Y-81092796D01*
X105868907Y-81056832D01*
X105930093Y-81056832D01*
X105969501Y-81080981D01*
X105997235Y-81108715D01*
X106100009Y-81154094D01*
X106125135Y-81157009D01*
X106474864Y-81157008D01*
X106499991Y-81154094D01*
X106517353Y-81146428D01*
X106578223Y-81140219D01*
X106631116Y-81170974D01*
X106655831Y-81226946D01*
X106647907Y-81276980D01*
X106647794Y-81277234D01*
X106647794Y-81277235D01*
X106634761Y-81306752D01*
X106602414Y-81380011D01*
X106599500Y-81405130D01*
X106599500Y-81754859D01*
X106599501Y-81754864D01*
X106602414Y-81779990D01*
X106621831Y-81823964D01*
X106647794Y-81882765D01*
X106727235Y-81962206D01*
X106830009Y-82007585D01*
X106855135Y-82010500D01*
X107144864Y-82010499D01*
X107169991Y-82007585D01*
X107272765Y-81962206D01*
X107352206Y-81882765D01*
X107397585Y-81779991D01*
X107400500Y-81754865D01*
X107400499Y-81405136D01*
X107397585Y-81380009D01*
X107352206Y-81277235D01*
X107352204Y-81277233D01*
X107352205Y-81277233D01*
X107329495Y-81254523D01*
X107301719Y-81200006D01*
X107300500Y-81184521D01*
X107300500Y-81164500D01*
X107319407Y-81106309D01*
X107368907Y-81070345D01*
X107399500Y-81065500D01*
X107406389Y-81065500D01*
X107459910Y-81081215D01*
X107510931Y-81114004D01*
X107635228Y-81150500D01*
X107635230Y-81150500D01*
X107764770Y-81150500D01*
X107764772Y-81150500D01*
X107889069Y-81114004D01*
X107940089Y-81081215D01*
X107993611Y-81065500D01*
X108001000Y-81065500D01*
X108059191Y-81084407D01*
X108095155Y-81133907D01*
X108100000Y-81164500D01*
X108100000Y-81768320D01*
X108096627Y-81793940D01*
X108094500Y-81801876D01*
X108094500Y-81813443D01*
X108093281Y-81828930D01*
X108090243Y-81848115D01*
X108089944Y-81850000D01*
X108091516Y-81859928D01*
X108093281Y-81871067D01*
X108094500Y-81886555D01*
X108094500Y-81898118D01*
X108096627Y-81906056D01*
X108100000Y-81931679D01*
X108100000Y-82500000D01*
X108100001Y-82500000D01*
X110601000Y-82500000D01*
X110659191Y-82518907D01*
X110695155Y-82568407D01*
X110700000Y-82599000D01*
X110700000Y-100200479D01*
X110681093Y-100258670D01*
X110631593Y-100294634D01*
X110600482Y-100299478D01*
X91698482Y-100200515D01*
X91640391Y-100181303D01*
X91604687Y-100131615D01*
X91600000Y-100101516D01*
X91600000Y-99497824D01*
X92209999Y-99497824D01*
X92216401Y-99557370D01*
X92216403Y-99557381D01*
X92266646Y-99692088D01*
X92266647Y-99692090D01*
X92352807Y-99807184D01*
X92352815Y-99807192D01*
X92467909Y-99893352D01*
X92467911Y-99893353D01*
X92602618Y-99943596D01*
X92602629Y-99943598D01*
X92662176Y-99950000D01*
X93309999Y-99950000D01*
X93310000Y-99949999D01*
X93310000Y-99033012D01*
X93367007Y-99065925D01*
X93494174Y-99100000D01*
X93625826Y-99100000D01*
X93752993Y-99065925D01*
X93810000Y-99033012D01*
X93810000Y-99949999D01*
X93810001Y-99950000D01*
X94457824Y-99950000D01*
X94517370Y-99943598D01*
X94517381Y-99943596D01*
X94652088Y-99893353D01*
X94652090Y-99893352D01*
X94767184Y-99807192D01*
X94767192Y-99807184D01*
X94853352Y-99692090D01*
X94853353Y-99692088D01*
X94903596Y-99557381D01*
X94903598Y-99557370D01*
X94910000Y-99497824D01*
X94910000Y-98963361D01*
X94928907Y-98905170D01*
X94978407Y-98869206D01*
X95039593Y-98869206D01*
X95089093Y-98905170D01*
X95103737Y-98934623D01*
X95124768Y-99003954D01*
X95222316Y-99186452D01*
X95353585Y-99346404D01*
X95353590Y-99346410D01*
X95353595Y-99346414D01*
X95513547Y-99477683D01*
X95513548Y-99477683D01*
X95513550Y-99477685D01*
X95696046Y-99575232D01*
X95833997Y-99617078D01*
X95894065Y-99635300D01*
X95894070Y-99635301D01*
X96099997Y-99655583D01*
X96100000Y-99655583D01*
X96100003Y-99655583D01*
X96305929Y-99635301D01*
X96305934Y-99635300D01*
X96503954Y-99575232D01*
X96686450Y-99477685D01*
X96846410Y-99346410D01*
X96977685Y-99186450D01*
X97075232Y-99003954D01*
X97135300Y-98805934D01*
X97135301Y-98805929D01*
X97155583Y-98600003D01*
X97155583Y-98599996D01*
X97584417Y-98599996D01*
X97584417Y-98600003D01*
X97604698Y-98805929D01*
X97604699Y-98805934D01*
X97664768Y-99003954D01*
X97762316Y-99186452D01*
X97893585Y-99346404D01*
X97893590Y-99346410D01*
X97893595Y-99346414D01*
X98053547Y-99477683D01*
X98053548Y-99477683D01*
X98053550Y-99477685D01*
X98236046Y-99575232D01*
X98373997Y-99617078D01*
X98434065Y-99635300D01*
X98434070Y-99635301D01*
X98639997Y-99655583D01*
X98640000Y-99655583D01*
X98640003Y-99655583D01*
X98845929Y-99635301D01*
X98845934Y-99635300D01*
X99043954Y-99575232D01*
X99226450Y-99477685D01*
X99386410Y-99346410D01*
X99517685Y-99186450D01*
X99615232Y-99003954D01*
X99675300Y-98805934D01*
X99675301Y-98805929D01*
X99695583Y-98600003D01*
X99695583Y-98599996D01*
X100124417Y-98599996D01*
X100124417Y-98600003D01*
X100144698Y-98805929D01*
X100144699Y-98805934D01*
X100204768Y-99003954D01*
X100302316Y-99186452D01*
X100433585Y-99346404D01*
X100433590Y-99346410D01*
X100433595Y-99346414D01*
X100593547Y-99477683D01*
X100593548Y-99477683D01*
X100593550Y-99477685D01*
X100776046Y-99575232D01*
X100913997Y-99617078D01*
X100974065Y-99635300D01*
X100974070Y-99635301D01*
X101179997Y-99655583D01*
X101180000Y-99655583D01*
X101180003Y-99655583D01*
X101385929Y-99635301D01*
X101385934Y-99635300D01*
X101583954Y-99575232D01*
X101766450Y-99477685D01*
X101926410Y-99346410D01*
X102057685Y-99186450D01*
X102155232Y-99003954D01*
X102215300Y-98805934D01*
X102215301Y-98805929D01*
X102235583Y-98600003D01*
X102235583Y-98599996D01*
X102664417Y-98599996D01*
X102664417Y-98600003D01*
X102684698Y-98805929D01*
X102684699Y-98805934D01*
X102744768Y-99003954D01*
X102842316Y-99186452D01*
X102973585Y-99346404D01*
X102973590Y-99346410D01*
X102973595Y-99346414D01*
X103133547Y-99477683D01*
X103133548Y-99477683D01*
X103133550Y-99477685D01*
X103316046Y-99575232D01*
X103453997Y-99617078D01*
X103514065Y-99635300D01*
X103514070Y-99635301D01*
X103719997Y-99655583D01*
X103720000Y-99655583D01*
X103720003Y-99655583D01*
X103925929Y-99635301D01*
X103925934Y-99635300D01*
X104123954Y-99575232D01*
X104306450Y-99477685D01*
X104466410Y-99346410D01*
X104597685Y-99186450D01*
X104695232Y-99003954D01*
X104755300Y-98805934D01*
X104755301Y-98805929D01*
X104775583Y-98600003D01*
X104775583Y-98599996D01*
X104755301Y-98394070D01*
X104755300Y-98394065D01*
X104717384Y-98269073D01*
X104695232Y-98196046D01*
X104597685Y-98013550D01*
X104466410Y-97853590D01*
X104466404Y-97853585D01*
X104306452Y-97722316D01*
X104123954Y-97624768D01*
X103925934Y-97564699D01*
X103925929Y-97564698D01*
X103720003Y-97544417D01*
X103719997Y-97544417D01*
X103514070Y-97564698D01*
X103514065Y-97564699D01*
X103316045Y-97624768D01*
X103133547Y-97722316D01*
X102973595Y-97853585D01*
X102973585Y-97853595D01*
X102842316Y-98013547D01*
X102744768Y-98196045D01*
X102684699Y-98394065D01*
X102684698Y-98394070D01*
X102664417Y-98599996D01*
X102235583Y-98599996D01*
X102215301Y-98394070D01*
X102215300Y-98394065D01*
X102177384Y-98269073D01*
X102155232Y-98196046D01*
X102057685Y-98013550D01*
X101926410Y-97853590D01*
X101926404Y-97853585D01*
X101766452Y-97722316D01*
X101583954Y-97624768D01*
X101385934Y-97564699D01*
X101385929Y-97564698D01*
X101180003Y-97544417D01*
X101179997Y-97544417D01*
X100974070Y-97564698D01*
X100974065Y-97564699D01*
X100776045Y-97624768D01*
X100593547Y-97722316D01*
X100433595Y-97853585D01*
X100433585Y-97853595D01*
X100302316Y-98013547D01*
X100204768Y-98196045D01*
X100144699Y-98394065D01*
X100144698Y-98394070D01*
X100124417Y-98599996D01*
X99695583Y-98599996D01*
X99675301Y-98394070D01*
X99675300Y-98394065D01*
X99637384Y-98269073D01*
X99615232Y-98196046D01*
X99517685Y-98013550D01*
X99386410Y-97853590D01*
X99386404Y-97853585D01*
X99226452Y-97722316D01*
X99043954Y-97624768D01*
X98845934Y-97564699D01*
X98845929Y-97564698D01*
X98640003Y-97544417D01*
X98639997Y-97544417D01*
X98434070Y-97564698D01*
X98434065Y-97564699D01*
X98236045Y-97624768D01*
X98053547Y-97722316D01*
X97893595Y-97853585D01*
X97893585Y-97853595D01*
X97762316Y-98013547D01*
X97664768Y-98196045D01*
X97604699Y-98394065D01*
X97604698Y-98394070D01*
X97584417Y-98599996D01*
X97155583Y-98599996D01*
X97135301Y-98394070D01*
X97135300Y-98394065D01*
X97097384Y-98269073D01*
X97075232Y-98196046D01*
X96977685Y-98013550D01*
X96846410Y-97853590D01*
X96846404Y-97853585D01*
X96686452Y-97722316D01*
X96503954Y-97624768D01*
X96305934Y-97564699D01*
X96305929Y-97564698D01*
X96100003Y-97544417D01*
X96099997Y-97544417D01*
X95894070Y-97564698D01*
X95894065Y-97564699D01*
X95696045Y-97624768D01*
X95513547Y-97722316D01*
X95353595Y-97853585D01*
X95353585Y-97853595D01*
X95222316Y-98013547D01*
X95124768Y-98196045D01*
X95103737Y-98265376D01*
X95068752Y-98315573D01*
X95010943Y-98335619D01*
X94952393Y-98317858D01*
X94915464Y-98269073D01*
X94910000Y-98236638D01*
X94910000Y-97702175D01*
X94903598Y-97642629D01*
X94903596Y-97642618D01*
X94853353Y-97507911D01*
X94853352Y-97507909D01*
X94767192Y-97392815D01*
X94767184Y-97392807D01*
X94652090Y-97306647D01*
X94652088Y-97306646D01*
X94517381Y-97256403D01*
X94517370Y-97256401D01*
X94457824Y-97250000D01*
X93810001Y-97250000D01*
X93810000Y-97250001D01*
X93810000Y-98166988D01*
X93752993Y-98134075D01*
X93625826Y-98100000D01*
X93494174Y-98100000D01*
X93367007Y-98134075D01*
X93310000Y-98166988D01*
X93310000Y-97250001D01*
X93309999Y-97250000D01*
X92662176Y-97250000D01*
X92602629Y-97256401D01*
X92602618Y-97256403D01*
X92467911Y-97306646D01*
X92467909Y-97306647D01*
X92352815Y-97392807D01*
X92352807Y-97392815D01*
X92266647Y-97507909D01*
X92266646Y-97507911D01*
X92216403Y-97642618D01*
X92216401Y-97642629D01*
X92210000Y-97702175D01*
X92210000Y-98349999D01*
X92210001Y-98350000D01*
X93126988Y-98350000D01*
X93094075Y-98407007D01*
X93060000Y-98534174D01*
X93060000Y-98665826D01*
X93094075Y-98792993D01*
X93126988Y-98850000D01*
X92210001Y-98850000D01*
X92210000Y-98850001D01*
X92210000Y-99497824D01*
X92209999Y-99497824D01*
X91600000Y-99497824D01*
X91600000Y-94899997D01*
X95844867Y-94899997D01*
X95844867Y-94900002D01*
X95863302Y-95028225D01*
X95917117Y-95146061D01*
X95917118Y-95146063D01*
X95999567Y-95241216D01*
X96001951Y-95243967D01*
X96037349Y-95266716D01*
X96076080Y-95314083D01*
X96079572Y-95375168D01*
X96046493Y-95426640D01*
X96037349Y-95433284D01*
X96001951Y-95456032D01*
X95917117Y-95553938D01*
X95863302Y-95671774D01*
X95844867Y-95799997D01*
X95844867Y-95800002D01*
X95863302Y-95928225D01*
X95917117Y-96046061D01*
X95917118Y-96046063D01*
X95999567Y-96141216D01*
X96001952Y-96143968D01*
X96110926Y-96214001D01*
X96110931Y-96214004D01*
X96235228Y-96250500D01*
X96235230Y-96250500D01*
X96364770Y-96250500D01*
X96364772Y-96250500D01*
X96489069Y-96214004D01*
X96563495Y-96166173D01*
X96602330Y-96141216D01*
X96655853Y-96125500D01*
X97342851Y-96125500D01*
X97342853Y-96125500D01*
X97425639Y-96103318D01*
X97425641Y-96103316D01*
X97425643Y-96103316D01*
X97499857Y-96060468D01*
X97499857Y-96060467D01*
X97499862Y-96060465D01*
X99060465Y-94499862D01*
X99089541Y-94449500D01*
X99103318Y-94425638D01*
X99125500Y-94342853D01*
X99125500Y-94176170D01*
X99144407Y-94117979D01*
X99193907Y-94082015D01*
X99252203Y-94081125D01*
X99258868Y-94083067D01*
X99258874Y-94083070D01*
X99308460Y-94089598D01*
X99668261Y-94089597D01*
X99717848Y-94083070D01*
X99808209Y-94040933D01*
X99868936Y-94033477D01*
X99912601Y-94057679D01*
X99914220Y-94055701D01*
X99920248Y-94060632D01*
X99999224Y-94106752D01*
X100057601Y-94125076D01*
X100121200Y-94134498D01*
X100921739Y-94126493D01*
X100955201Y-94123411D01*
X100986984Y-94117834D01*
X100992851Y-94116716D01*
X101076089Y-94078826D01*
X101124740Y-94041721D01*
X101151915Y-94016842D01*
X101196984Y-93937262D01*
X101214533Y-93878647D01*
X101223111Y-93814928D01*
X101218417Y-93613150D01*
X101235965Y-93554537D01*
X101246471Y-93541774D01*
X101347185Y-93438412D01*
X101347185Y-93438411D01*
X101447544Y-93335411D01*
X101501696Y-93306928D01*
X101518451Y-93305500D01*
X104459952Y-93305500D01*
X104518143Y-93324407D01*
X104535114Y-93340067D01*
X104747792Y-93588192D01*
X104747803Y-93588207D01*
X105135855Y-94040934D01*
X105545666Y-94519047D01*
X105569181Y-94575532D01*
X105569500Y-94583474D01*
X105569500Y-95699019D01*
X105574651Y-95744745D01*
X105601260Y-95799997D01*
X105614334Y-95827145D01*
X105685837Y-95884167D01*
X105775000Y-95904518D01*
X106899999Y-95904518D01*
X106900000Y-95904518D01*
X106967872Y-95892986D01*
X107045310Y-95844328D01*
X108220310Y-94669328D01*
X108260149Y-94613181D01*
X108280500Y-94524018D01*
X108280500Y-93399018D01*
X108275348Y-93353290D01*
X108235666Y-93270891D01*
X108196187Y-93239407D01*
X108164162Y-93213868D01*
X108075000Y-93193518D01*
X107030642Y-93193518D01*
X106972451Y-93174611D01*
X106958550Y-93162369D01*
X105478961Y-91590306D01*
X105478960Y-91590305D01*
X105465133Y-91576928D01*
X105465114Y-91576911D01*
X105451236Y-91564689D01*
X105451233Y-91564687D01*
X105451232Y-91564686D01*
X105378918Y-91523464D01*
X105378914Y-91523462D01*
X105378913Y-91523462D01*
X105320724Y-91504556D01*
X105320725Y-91504556D01*
X105257228Y-91494500D01*
X105257225Y-91494500D01*
X103109146Y-91494500D01*
X103050955Y-91475593D01*
X103014991Y-91426093D01*
X103014991Y-91364907D01*
X103039142Y-91325496D01*
X103436414Y-90928224D01*
X103920310Y-90444328D01*
X103960149Y-90388181D01*
X103980500Y-90299018D01*
X103980500Y-89099018D01*
X103975348Y-89053290D01*
X103935666Y-88970891D01*
X103923541Y-88961221D01*
X103864162Y-88913868D01*
X103775000Y-88893518D01*
X102650000Y-88893518D01*
X102638469Y-88895477D01*
X102582129Y-88905049D01*
X102504693Y-88953705D01*
X101329693Y-90128704D01*
X101289851Y-90184854D01*
X101269500Y-90274019D01*
X101269500Y-90500500D01*
X101250593Y-90558691D01*
X101201093Y-90594655D01*
X101170500Y-90599500D01*
X98502062Y-90599500D01*
X98422938Y-90599500D01*
X98376161Y-90612033D01*
X98346507Y-90619979D01*
X98277993Y-90659536D01*
X98277988Y-90659540D01*
X97854524Y-91083004D01*
X97800008Y-91110781D01*
X97784521Y-91112000D01*
X97555252Y-91112000D01*
X97555251Y-91112000D01*
X97555241Y-91112001D01*
X97496772Y-91123632D01*
X97496766Y-91123634D01*
X97430451Y-91167945D01*
X97430445Y-91167951D01*
X97386134Y-91234266D01*
X97386132Y-91234272D01*
X97374501Y-91292741D01*
X97374500Y-91292753D01*
X97374500Y-91582246D01*
X97374501Y-91582258D01*
X97386132Y-91640730D01*
X97389814Y-91649619D01*
X97394611Y-91710616D01*
X97389814Y-91725381D01*
X97386132Y-91734269D01*
X97374501Y-91792741D01*
X97374500Y-91792753D01*
X97374500Y-92082246D01*
X97374501Y-92082258D01*
X97386132Y-92140730D01*
X97389814Y-92149619D01*
X97394611Y-92210616D01*
X97389814Y-92225381D01*
X97386132Y-92234269D01*
X97374501Y-92292741D01*
X97374500Y-92292753D01*
X97374500Y-92582246D01*
X97374501Y-92582258D01*
X97386132Y-92640727D01*
X97386134Y-92640733D01*
X97425880Y-92700216D01*
X97430448Y-92707052D01*
X97496769Y-92751367D01*
X97541231Y-92760211D01*
X97555241Y-92762998D01*
X97555246Y-92762998D01*
X97555252Y-92763000D01*
X97882147Y-92763000D01*
X98161665Y-92763000D01*
X98219856Y-92781907D01*
X98231669Y-92791996D01*
X98382669Y-92942996D01*
X98410446Y-92997513D01*
X98400875Y-93057945D01*
X98357610Y-93101210D01*
X98312665Y-93112000D01*
X98294748Y-93112000D01*
X97555252Y-93112000D01*
X97555251Y-93112000D01*
X97555241Y-93112001D01*
X97496772Y-93123632D01*
X97496766Y-93123634D01*
X97430451Y-93167945D01*
X97430445Y-93167951D01*
X97386134Y-93234266D01*
X97386132Y-93234272D01*
X97374501Y-93292741D01*
X97374500Y-93292753D01*
X97374500Y-93582246D01*
X97374501Y-93582258D01*
X97386132Y-93640730D01*
X97389814Y-93649619D01*
X97394611Y-93710616D01*
X97389814Y-93725381D01*
X97386132Y-93734269D01*
X97374501Y-93792741D01*
X97374500Y-93792753D01*
X97374500Y-94082246D01*
X97374501Y-94082258D01*
X97386132Y-94140727D01*
X97386134Y-94140733D01*
X97435865Y-94215159D01*
X97434844Y-94215840D01*
X97458058Y-94261401D01*
X97448487Y-94321833D01*
X97430281Y-94346891D01*
X97231670Y-94545503D01*
X97177153Y-94573281D01*
X97161666Y-94574500D01*
X96655853Y-94574500D01*
X96602330Y-94558784D01*
X96489073Y-94485998D01*
X96489070Y-94485996D01*
X96489069Y-94485996D01*
X96489066Y-94485995D01*
X96364774Y-94449500D01*
X96364772Y-94449500D01*
X96235228Y-94449500D01*
X96235225Y-94449500D01*
X96110933Y-94485995D01*
X96110926Y-94485998D01*
X96001952Y-94556031D01*
X95917117Y-94653938D01*
X95863302Y-94771774D01*
X95844867Y-94899997D01*
X91600000Y-94899997D01*
X91600000Y-92065815D01*
X91618907Y-92007624D01*
X91668407Y-91971660D01*
X91729593Y-91971660D01*
X91777540Y-92005546D01*
X91871718Y-92128282D01*
X91883549Y-92137360D01*
X91885766Y-92139061D01*
X91920423Y-92189485D01*
X91924500Y-92217604D01*
X91924500Y-92549435D01*
X91950090Y-92644938D01*
X91982005Y-92700216D01*
X91985952Y-92707052D01*
X91999524Y-92730561D01*
X91999526Y-92730563D01*
X92269437Y-93000475D01*
X92337135Y-93039560D01*
X92369200Y-93074549D01*
X92370969Y-93073311D01*
X92375934Y-93080402D01*
X92375935Y-93080404D01*
X92459596Y-93164065D01*
X92459597Y-93164065D01*
X92459598Y-93164066D01*
X92566824Y-93214067D01*
X92566825Y-93214067D01*
X92566827Y-93214068D01*
X92615684Y-93220500D01*
X92615685Y-93220500D01*
X92964314Y-93220500D01*
X92964316Y-93220500D01*
X93013173Y-93214068D01*
X93120404Y-93164065D01*
X93204065Y-93080404D01*
X93210275Y-93067085D01*
X93252003Y-93022337D01*
X93312064Y-93010662D01*
X93367517Y-93036519D01*
X93389724Y-93067084D01*
X93395935Y-93080404D01*
X93479596Y-93164065D01*
X93479597Y-93164065D01*
X93479598Y-93164066D01*
X93586824Y-93214067D01*
X93586825Y-93214067D01*
X93586827Y-93214068D01*
X93635684Y-93220500D01*
X93699314Y-93220500D01*
X93757505Y-93239407D01*
X93793469Y-93288907D01*
X93797306Y-93333589D01*
X93782367Y-93437496D01*
X93782367Y-93437502D01*
X93800802Y-93565725D01*
X93835057Y-93640731D01*
X93854618Y-93683563D01*
X93939451Y-93781467D01*
X93939452Y-93781468D01*
X94048426Y-93851501D01*
X94048431Y-93851504D01*
X94172728Y-93888000D01*
X94172730Y-93888000D01*
X94302270Y-93888000D01*
X94302272Y-93888000D01*
X94347609Y-93874688D01*
X94408769Y-93876435D01*
X94457222Y-93913798D01*
X94474500Y-93969678D01*
X94474500Y-94082246D01*
X94474501Y-94082258D01*
X94484893Y-94134497D01*
X94486133Y-94140731D01*
X94530448Y-94207052D01*
X94596769Y-94251367D01*
X94641231Y-94260211D01*
X94655241Y-94262998D01*
X94655246Y-94262998D01*
X94655252Y-94263000D01*
X94655253Y-94263000D01*
X95394747Y-94263000D01*
X95394748Y-94263000D01*
X95453231Y-94251367D01*
X95519552Y-94207052D01*
X95563867Y-94140731D01*
X95575500Y-94082248D01*
X95575500Y-93792752D01*
X95563867Y-93734269D01*
X95563864Y-93734265D01*
X95560187Y-93725387D01*
X95555386Y-93664390D01*
X95560187Y-93649613D01*
X95563863Y-93640736D01*
X95563867Y-93640731D01*
X95575500Y-93582248D01*
X95575500Y-93292752D01*
X95563867Y-93234269D01*
X95563864Y-93234265D01*
X95560187Y-93225387D01*
X95555386Y-93164390D01*
X95560187Y-93149613D01*
X95563863Y-93140736D01*
X95563867Y-93140731D01*
X95575500Y-93082248D01*
X95575500Y-92792752D01*
X95575059Y-92790536D01*
X95575114Y-92788844D01*
X95575023Y-92787914D01*
X95575145Y-92787901D01*
X95576191Y-92756068D01*
X95574653Y-92755866D01*
X95575500Y-92749435D01*
X95575500Y-92650563D01*
X95573676Y-92643758D01*
X95572204Y-92598815D01*
X95575500Y-92582248D01*
X95575500Y-92292752D01*
X95563867Y-92234269D01*
X95563864Y-92234265D01*
X95560187Y-92225387D01*
X95555386Y-92164390D01*
X95560187Y-92149613D01*
X95563863Y-92140736D01*
X95563867Y-92140731D01*
X95575500Y-92082248D01*
X95575500Y-91792752D01*
X95563867Y-91734269D01*
X95563864Y-91734265D01*
X95560187Y-91725387D01*
X95555386Y-91664390D01*
X95560187Y-91649613D01*
X95563863Y-91640736D01*
X95563867Y-91640731D01*
X95575500Y-91582248D01*
X95575500Y-91292752D01*
X95563867Y-91234269D01*
X95519552Y-91167948D01*
X95461392Y-91129086D01*
X95423513Y-91081036D01*
X95421111Y-91019898D01*
X95426341Y-91005644D01*
X95427819Y-91002405D01*
X95461697Y-90928226D01*
X95480133Y-90800000D01*
X95480132Y-90799998D01*
X95480508Y-90797389D01*
X95507503Y-90742481D01*
X95508429Y-90741540D01*
X95877040Y-90372929D01*
X95931555Y-90345154D01*
X95983077Y-90352397D01*
X95983237Y-90351851D01*
X95987006Y-90352949D01*
X95988887Y-90353213D01*
X95990513Y-90353972D01*
X96040099Y-90360500D01*
X96399900Y-90360499D01*
X96449487Y-90353972D01*
X96449488Y-90353972D01*
X96535198Y-90314004D01*
X96558316Y-90303224D01*
X96643224Y-90218316D01*
X96693972Y-90109487D01*
X96700500Y-90059901D01*
X96700499Y-89640100D01*
X96693972Y-89590513D01*
X96693972Y-89590511D01*
X96643225Y-89481686D01*
X96643224Y-89481685D01*
X96643224Y-89481684D01*
X96558316Y-89396776D01*
X96558314Y-89396775D01*
X96558313Y-89396774D01*
X96449489Y-89346029D01*
X96449488Y-89346028D01*
X96424694Y-89342764D01*
X96399901Y-89339500D01*
X96399900Y-89339500D01*
X96224477Y-89339500D01*
X96166286Y-89320593D01*
X96130322Y-89271093D01*
X96130322Y-89209907D01*
X96154474Y-89170496D01*
X97045476Y-88279496D01*
X97099992Y-88251719D01*
X97115479Y-88250500D01*
X97529747Y-88250500D01*
X97529748Y-88250500D01*
X97588231Y-88238867D01*
X97654552Y-88194552D01*
X97698867Y-88128231D01*
X97710500Y-88069748D01*
X97710500Y-87609089D01*
X97729407Y-87550898D01*
X97778907Y-87514934D01*
X97840093Y-87514934D01*
X97889593Y-87550898D01*
X97905127Y-87583466D01*
X97926569Y-87663490D01*
X98026399Y-87877577D01*
X98161886Y-88071073D01*
X98328926Y-88238113D01*
X98522422Y-88373600D01*
X98736509Y-88473430D01*
X98950000Y-88530634D01*
X98950000Y-87633012D01*
X99007007Y-87665925D01*
X99134174Y-87700000D01*
X99265826Y-87700000D01*
X99392993Y-87665925D01*
X99450000Y-87633012D01*
X99450000Y-88530633D01*
X99663490Y-88473430D01*
X99877577Y-88373600D01*
X100071073Y-88238113D01*
X100238113Y-88071073D01*
X100373600Y-87877577D01*
X100473430Y-87663489D01*
X100530636Y-87450000D01*
X99633012Y-87450000D01*
X99665925Y-87392993D01*
X99700000Y-87265826D01*
X99700000Y-87134174D01*
X99665925Y-87007007D01*
X99633012Y-86950000D01*
X100530636Y-86950000D01*
X100473429Y-86736505D01*
X100373605Y-86522432D01*
X100373601Y-86522424D01*
X100238113Y-86328926D01*
X100071073Y-86161886D01*
X99989714Y-86104918D01*
X99952892Y-86056053D01*
X99951824Y-85994877D01*
X99971678Y-85958993D01*
X99982882Y-85946063D01*
X100036697Y-85828226D01*
X100055133Y-85700000D01*
X100055132Y-85699998D01*
X100055508Y-85697389D01*
X100082503Y-85642481D01*
X100083429Y-85641540D01*
X100085476Y-85639493D01*
X100139991Y-85611718D01*
X100155465Y-85610499D01*
X100499900Y-85610499D01*
X100549487Y-85603972D01*
X100549488Y-85603972D01*
X100615535Y-85573173D01*
X100658316Y-85553224D01*
X100743224Y-85468316D01*
X100793972Y-85359487D01*
X100800500Y-85309901D01*
X100800499Y-84890100D01*
X100799872Y-84885340D01*
X100793972Y-84840513D01*
X100793972Y-84840511D01*
X100743225Y-84731686D01*
X100743223Y-84731682D01*
X100729495Y-84717954D01*
X100701718Y-84663437D01*
X100700500Y-84647952D01*
X100700500Y-84599500D01*
X100719407Y-84541309D01*
X100768907Y-84505345D01*
X100799500Y-84500500D01*
X100874673Y-84500500D01*
X100874674Y-84500500D01*
X100947740Y-84485966D01*
X100947746Y-84485961D01*
X100956752Y-84482233D01*
X100957586Y-84484248D01*
X101003880Y-84471189D01*
X101042610Y-84483773D01*
X101043248Y-84482233D01*
X101052255Y-84485962D01*
X101052260Y-84485966D01*
X101107248Y-84496904D01*
X101125315Y-84500498D01*
X101125320Y-84500498D01*
X101125326Y-84500500D01*
X101125327Y-84500500D01*
X101274673Y-84500500D01*
X101274674Y-84500500D01*
X101347740Y-84485966D01*
X101430601Y-84430601D01*
X101485966Y-84347740D01*
X101500500Y-84274674D01*
X101500500Y-83549500D01*
X101519407Y-83491309D01*
X101568907Y-83455345D01*
X101599500Y-83450500D01*
X101700500Y-83450500D01*
X101758691Y-83469407D01*
X101794655Y-83518907D01*
X101799500Y-83549500D01*
X101799500Y-87034521D01*
X101780593Y-87092712D01*
X101770504Y-87104525D01*
X100314525Y-88560504D01*
X100260008Y-88588281D01*
X100244521Y-88589500D01*
X100051260Y-88589500D01*
X99974836Y-88609978D01*
X99974832Y-88609980D01*
X99906314Y-88649539D01*
X99619617Y-88936235D01*
X99565101Y-88964012D01*
X99521724Y-88961221D01*
X99464777Y-88944501D01*
X99464773Y-88944500D01*
X99464772Y-88944500D01*
X99335228Y-88944500D01*
X99335225Y-88944500D01*
X99210933Y-88980995D01*
X99210926Y-88980998D01*
X99101952Y-89051031D01*
X99017117Y-89148938D01*
X98963302Y-89266774D01*
X98949239Y-89364589D01*
X98922243Y-89419497D01*
X98868129Y-89448050D01*
X98851247Y-89449500D01*
X98735225Y-89449500D01*
X98610933Y-89485995D01*
X98610926Y-89485998D01*
X98501952Y-89556031D01*
X98417117Y-89653938D01*
X98363302Y-89771774D01*
X98344867Y-89899997D01*
X98344867Y-89900002D01*
X98363302Y-90028225D01*
X98400415Y-90109489D01*
X98417118Y-90146063D01*
X98466517Y-90203073D01*
X98501952Y-90243968D01*
X98610926Y-90314001D01*
X98610931Y-90314004D01*
X98735228Y-90350500D01*
X98735230Y-90350500D01*
X98864770Y-90350500D01*
X98864772Y-90350500D01*
X98989069Y-90314004D01*
X99098049Y-90243967D01*
X99106105Y-90234670D01*
X99158500Y-90203073D01*
X99180925Y-90200500D01*
X100639563Y-90200500D01*
X100639563Y-90200499D01*
X100715989Y-90180021D01*
X100784511Y-90140460D01*
X100840460Y-90084511D01*
X104490460Y-86434511D01*
X104530022Y-86365988D01*
X104549873Y-86291898D01*
X104583197Y-86240586D01*
X104640318Y-86218659D01*
X104699419Y-86234494D01*
X104737924Y-86282044D01*
X104744500Y-86317523D01*
X104744500Y-87861823D01*
X104744500Y-90058992D01*
X104744536Y-90059899D01*
X104745134Y-90075123D01*
X104746353Y-90090602D01*
X104746354Y-90090607D01*
X104768115Y-90167769D01*
X104768117Y-90167775D01*
X104795894Y-90222291D01*
X104833681Y-90274300D01*
X104833683Y-90274302D01*
X104833686Y-90274306D01*
X106675694Y-92116314D01*
X106675707Y-92116326D01*
X106675714Y-92116333D01*
X106685570Y-92125444D01*
X106687544Y-92127269D01*
X106699357Y-92137358D01*
X106769315Y-92176536D01*
X106827506Y-92195443D01*
X106839560Y-92197352D01*
X106891004Y-92205500D01*
X106891008Y-92205500D01*
X110050993Y-92205500D01*
X110051000Y-92205500D01*
X110083144Y-92202970D01*
X110113737Y-92198125D01*
X110113748Y-92198123D01*
X110113793Y-92198116D01*
X110118281Y-92197353D01*
X110118280Y-92197353D01*
X110118287Y-92197352D01*
X110202383Y-92161408D01*
X110251883Y-92125444D01*
X110279628Y-92101203D01*
X110326536Y-92022693D01*
X110345443Y-91964502D01*
X110355500Y-91901000D01*
X110355500Y-88273059D01*
X110355500Y-88273053D01*
X110352737Y-88239478D01*
X110352735Y-88239468D01*
X110352735Y-88239463D01*
X110347443Y-88207528D01*
X110346360Y-88201544D01*
X110309217Y-88117970D01*
X110308516Y-88117034D01*
X110274109Y-88071073D01*
X110272549Y-88068989D01*
X110247917Y-88041595D01*
X110168744Y-87995814D01*
X110168742Y-87995813D01*
X110168738Y-87995811D01*
X110110296Y-87977742D01*
X110110292Y-87977741D01*
X110110289Y-87977740D01*
X110110284Y-87977739D01*
X110110269Y-87977735D01*
X110074259Y-87970055D01*
X110074252Y-87970054D01*
X109983300Y-87979553D01*
X109983291Y-87979555D01*
X109974604Y-87982516D01*
X109913425Y-87983386D01*
X109863418Y-87948130D01*
X109843685Y-87890214D01*
X109845577Y-87869496D01*
X109850500Y-87844748D01*
X109850500Y-86105252D01*
X109838867Y-86046769D01*
X109794552Y-85980448D01*
X109794548Y-85980445D01*
X109728233Y-85936134D01*
X109728231Y-85936133D01*
X109728228Y-85936132D01*
X109728227Y-85936132D01*
X109669758Y-85924501D01*
X109669748Y-85924500D01*
X109209090Y-85924500D01*
X109150899Y-85905593D01*
X109114935Y-85856093D01*
X109114935Y-85794907D01*
X109150899Y-85745407D01*
X109183467Y-85729873D01*
X109263489Y-85708430D01*
X109477577Y-85608600D01*
X109671073Y-85473113D01*
X109838113Y-85306073D01*
X109973600Y-85112577D01*
X110073430Y-84898489D01*
X110130636Y-84685000D01*
X109233012Y-84685000D01*
X109265925Y-84627993D01*
X109300000Y-84500826D01*
X109300000Y-84369174D01*
X109265925Y-84242007D01*
X109233012Y-84185000D01*
X110130636Y-84185000D01*
X110073429Y-83971505D01*
X109973605Y-83757432D01*
X109973601Y-83757424D01*
X109838113Y-83563926D01*
X109671073Y-83396886D01*
X109477577Y-83261399D01*
X109263489Y-83161569D01*
X109050000Y-83104364D01*
X109050000Y-84001988D01*
X108992993Y-83969075D01*
X108865826Y-83935000D01*
X108734174Y-83935000D01*
X108607007Y-83969075D01*
X108550000Y-84001988D01*
X108550000Y-83104364D01*
X108336505Y-83161570D01*
X108122432Y-83261394D01*
X108122424Y-83261398D01*
X107928926Y-83396886D01*
X107761886Y-83563926D01*
X107626398Y-83757424D01*
X107626394Y-83757432D01*
X107526570Y-83971505D01*
X107469364Y-84185000D01*
X108366988Y-84185000D01*
X108334075Y-84242007D01*
X108300000Y-84369174D01*
X108300000Y-84500826D01*
X108334075Y-84627993D01*
X108366988Y-84685000D01*
X107469364Y-84685000D01*
X107526569Y-84898489D01*
X107626399Y-85112577D01*
X107761886Y-85306073D01*
X107928926Y-85473113D01*
X108122422Y-85608600D01*
X108336510Y-85708430D01*
X108416533Y-85729873D01*
X108467847Y-85763197D01*
X108489774Y-85820319D01*
X108473938Y-85879419D01*
X108426388Y-85917924D01*
X108390910Y-85924500D01*
X107930252Y-85924500D01*
X107930251Y-85924500D01*
X107930241Y-85924501D01*
X107871772Y-85936132D01*
X107871767Y-85936134D01*
X107827255Y-85965876D01*
X107768367Y-85982484D01*
X107710963Y-85961306D01*
X107676971Y-85910432D01*
X107673653Y-85892441D01*
X107672688Y-85881713D01*
X107636744Y-85797617D01*
X107600780Y-85748117D01*
X107576539Y-85720372D01*
X107498029Y-85673464D01*
X107498027Y-85673463D01*
X107498025Y-85673462D01*
X107439835Y-85654556D01*
X107439836Y-85654556D01*
X107376339Y-85644500D01*
X107376336Y-85644500D01*
X105049000Y-85644500D01*
X105016856Y-85647030D01*
X104986206Y-85651883D01*
X104981718Y-85652646D01*
X104981713Y-85652647D01*
X104897616Y-85688591D01*
X104897615Y-85688592D01*
X104848316Y-85724410D01*
X104790125Y-85743317D01*
X104731935Y-85724409D01*
X104695971Y-85674909D01*
X104695972Y-85613724D01*
X104700399Y-85602485D01*
X104714068Y-85573173D01*
X104720500Y-85524316D01*
X104720500Y-85075684D01*
X104714068Y-85026827D01*
X104691142Y-84977663D01*
X104664066Y-84919598D01*
X104664065Y-84919597D01*
X104664065Y-84919596D01*
X104580404Y-84835935D01*
X104580402Y-84835934D01*
X104580401Y-84835933D01*
X104473175Y-84785932D01*
X104440601Y-84781644D01*
X104424316Y-84779500D01*
X104075684Y-84779500D01*
X104059398Y-84781644D01*
X104026825Y-84785932D01*
X104026824Y-84785932D01*
X103919598Y-84835933D01*
X103835933Y-84919598D01*
X103829724Y-84932915D01*
X103787995Y-84977663D01*
X103727934Y-84989337D01*
X103672482Y-84963478D01*
X103650276Y-84932915D01*
X103644066Y-84919598D01*
X103644065Y-84919597D01*
X103644065Y-84919596D01*
X103613005Y-84888536D01*
X103585230Y-84834022D01*
X103594801Y-84773590D01*
X103613005Y-84748534D01*
X103693224Y-84668316D01*
X103743972Y-84559487D01*
X103750500Y-84509901D01*
X103750499Y-84090100D01*
X103743972Y-84040513D01*
X103743972Y-84040511D01*
X103693225Y-83931686D01*
X103693224Y-83931685D01*
X103693224Y-83931684D01*
X103608316Y-83846776D01*
X103608314Y-83846775D01*
X103608312Y-83846773D01*
X103587660Y-83837143D01*
X103542912Y-83795414D01*
X103530500Y-83747419D01*
X103530500Y-81894077D01*
X103530499Y-81894075D01*
X103527468Y-81882765D01*
X103510021Y-81817651D01*
X103505522Y-81809859D01*
X103470460Y-81749129D01*
X103414511Y-81693179D01*
X103414511Y-81693180D01*
X103069862Y-81348531D01*
X103042085Y-81294014D01*
X103051656Y-81233582D01*
X103094921Y-81190317D01*
X103145580Y-81179692D01*
X103148190Y-81179842D01*
X103148208Y-81179844D01*
X103497937Y-81179843D01*
X103523064Y-81176929D01*
X103603086Y-81141595D01*
X103663953Y-81135387D01*
X103683054Y-81141593D01*
X103763082Y-81176929D01*
X103788208Y-81179844D01*
X104137937Y-81179843D01*
X104163064Y-81176929D01*
X104265838Y-81131550D01*
X104322893Y-81074494D01*
X104377408Y-81046719D01*
X104392895Y-81045500D01*
X104404521Y-81045500D01*
X104462712Y-81064407D01*
G37*
%TD.AperFunction*%
%TA.AperFunction,Conductor*%
G36*
X96523142Y-74025775D02*
G01*
X96581232Y-74044987D01*
X96616936Y-74094675D01*
X96616616Y-74155859D01*
X96580394Y-74205170D01*
X96567569Y-74212983D01*
X96494250Y-74250341D01*
X96400341Y-74344250D01*
X96340050Y-74462576D01*
X96340049Y-74462580D01*
X96324500Y-74560751D01*
X96324500Y-74978814D01*
X96305593Y-75037005D01*
X96256093Y-75072969D01*
X96245558Y-75075761D01*
X96229127Y-75079160D01*
X96148412Y-75122171D01*
X96095611Y-75167924D01*
X96095596Y-75167938D01*
X96077655Y-75185516D01*
X96033007Y-75265335D01*
X96013322Y-75332376D01*
X96013322Y-75332378D01*
X96004999Y-75390265D01*
X96004999Y-75694911D01*
X95986092Y-75753102D01*
X95976006Y-75764911D01*
X95969947Y-75770971D01*
X95960970Y-75779948D01*
X95932808Y-75799667D01*
X95919824Y-75805722D01*
X95877982Y-75814999D01*
X95522016Y-75814999D01*
X95480178Y-75805724D01*
X95467191Y-75799668D01*
X95439029Y-75779949D01*
X95430051Y-75770971D01*
X95410328Y-75742801D01*
X95407746Y-75737263D01*
X95407744Y-75737259D01*
X95404276Y-75729822D01*
X95395000Y-75687982D01*
X95395000Y-75392014D01*
X95404274Y-75350178D01*
X95432799Y-75289007D01*
X95435322Y-75283981D01*
X95442451Y-75270743D01*
X95447750Y-75257351D01*
X95447886Y-75257036D01*
X95447951Y-75256845D01*
X95463614Y-75217267D01*
X95468487Y-75203551D01*
X95475941Y-75112400D01*
X95465997Y-75043242D01*
X95464559Y-75036290D01*
X95460906Y-75018631D01*
X95460906Y-75018630D01*
X95460905Y-75018628D01*
X95460905Y-75018627D01*
X95417895Y-74937915D01*
X95372140Y-74885111D01*
X95354549Y-74867157D01*
X95354548Y-74867156D01*
X95354547Y-74867155D01*
X95354545Y-74867153D01*
X95274736Y-74822511D01*
X95274732Y-74822509D01*
X95207699Y-74802826D01*
X95207690Y-74802824D01*
X95161479Y-74796180D01*
X95149795Y-74794500D01*
X93924664Y-74794500D01*
X93924660Y-74794500D01*
X93884711Y-74798421D01*
X93837397Y-74807801D01*
X93837383Y-74807804D01*
X93798598Y-74819569D01*
X93798133Y-74819761D01*
X93798120Y-74819767D01*
X93778464Y-74829175D01*
X93778440Y-74829187D01*
X93755003Y-74841974D01*
X93693354Y-74893502D01*
X93693350Y-74893506D01*
X93649541Y-74947921D01*
X93649540Y-74947923D01*
X93619708Y-74998264D01*
X93619706Y-74998268D01*
X93619507Y-74998748D01*
X93607854Y-75037223D01*
X93599445Y-75079555D01*
X93598438Y-75084623D01*
X93594746Y-75122171D01*
X93594500Y-75124668D01*
X93594500Y-77046393D01*
X93595485Y-77066461D01*
X93595486Y-77066484D01*
X93597858Y-77090610D01*
X93597858Y-77090612D01*
X93600833Y-77110663D01*
X93601248Y-77112747D01*
X93601248Y-77112748D01*
X93612919Y-77151219D01*
X93612923Y-77151232D01*
X93631437Y-77195951D01*
X93631444Y-77195965D01*
X93650457Y-77231539D01*
X93651647Y-77233320D01*
X93651648Y-77233321D01*
X93663654Y-77249508D01*
X93663664Y-77249520D01*
X93679079Y-77268302D01*
X93691150Y-77281619D01*
X93692615Y-77283235D01*
X94204802Y-77795422D01*
X94689876Y-78280496D01*
X94717653Y-78335013D01*
X94708082Y-78395445D01*
X94664817Y-78438710D01*
X94619872Y-78449500D01*
X94145522Y-78449500D01*
X94087331Y-78430593D01*
X94051367Y-78381093D01*
X94048425Y-78369816D01*
X94041501Y-78335013D01*
X94038867Y-78321769D01*
X93994552Y-78255448D01*
X93994548Y-78255445D01*
X93928233Y-78211134D01*
X93928231Y-78211133D01*
X93928228Y-78211132D01*
X93928227Y-78211132D01*
X93869758Y-78199501D01*
X93869748Y-78199500D01*
X92530252Y-78199500D01*
X92530251Y-78199500D01*
X92530241Y-78199501D01*
X92471772Y-78211132D01*
X92471766Y-78211134D01*
X92405451Y-78255445D01*
X92405445Y-78255451D01*
X92361134Y-78321766D01*
X92361132Y-78321772D01*
X92349501Y-78380241D01*
X92349500Y-78380253D01*
X92349500Y-79219746D01*
X92349501Y-79219758D01*
X92361132Y-79278227D01*
X92361134Y-79278233D01*
X92405445Y-79344548D01*
X92405448Y-79344552D01*
X92471769Y-79388867D01*
X92516231Y-79397711D01*
X92530241Y-79400498D01*
X92530246Y-79400498D01*
X92530252Y-79400500D01*
X92530253Y-79400500D01*
X93835520Y-79400500D01*
X93893711Y-79419407D01*
X93929675Y-79468907D01*
X93929675Y-79530093D01*
X93905524Y-79569504D01*
X93904524Y-79570504D01*
X93850007Y-79598281D01*
X93834520Y-79599500D01*
X92530252Y-79599500D01*
X92530251Y-79599500D01*
X92530241Y-79599501D01*
X92471772Y-79611132D01*
X92471766Y-79611134D01*
X92405451Y-79655445D01*
X92405445Y-79655451D01*
X92361134Y-79721766D01*
X92361132Y-79721772D01*
X92349501Y-79780241D01*
X92349500Y-79780253D01*
X92349500Y-80619746D01*
X92349501Y-80619758D01*
X92360553Y-80675315D01*
X92361133Y-80678231D01*
X92405448Y-80744552D01*
X92471769Y-80788867D01*
X92516231Y-80797711D01*
X92530241Y-80800498D01*
X92530246Y-80800498D01*
X92530252Y-80800500D01*
X92530253Y-80800500D01*
X93869747Y-80800500D01*
X93869748Y-80800500D01*
X93928231Y-80788867D01*
X93994552Y-80744552D01*
X94038867Y-80678231D01*
X94050500Y-80619748D01*
X94050500Y-80315479D01*
X94069407Y-80257288D01*
X94079496Y-80245476D01*
X94326439Y-79998532D01*
X94380956Y-79970754D01*
X94441388Y-79980325D01*
X94484653Y-80023590D01*
X94494435Y-80082624D01*
X94485468Y-80144993D01*
X94485468Y-80144999D01*
X94503903Y-80273222D01*
X94557719Y-80391060D01*
X94572109Y-80407668D01*
X94595926Y-80464028D01*
X94582067Y-80523623D01*
X94572111Y-80537326D01*
X94557719Y-80553935D01*
X94557718Y-80553936D01*
X94503903Y-80671774D01*
X94485468Y-80799997D01*
X94485468Y-80800002D01*
X94503903Y-80928225D01*
X94557719Y-81046063D01*
X94590977Y-81084446D01*
X94614794Y-81140805D01*
X94600935Y-81200400D01*
X94590978Y-81214106D01*
X94557718Y-81252491D01*
X94503903Y-81370327D01*
X94485468Y-81498550D01*
X94485468Y-81498555D01*
X94503903Y-81626778D01*
X94540427Y-81706752D01*
X94557719Y-81744616D01*
X94636026Y-81834988D01*
X94642553Y-81842521D01*
X94716577Y-81890093D01*
X94755308Y-81937459D01*
X94761046Y-81987466D01*
X94744491Y-82102609D01*
X94717495Y-82157517D01*
X94716503Y-82158524D01*
X94707761Y-82167266D01*
X94653244Y-82195043D01*
X94624836Y-82195415D01*
X94579902Y-82189500D01*
X94220104Y-82189500D01*
X94220092Y-82189501D01*
X94170513Y-82196027D01*
X94170511Y-82196027D01*
X94061686Y-82246774D01*
X93976774Y-82331686D01*
X93926029Y-82440510D01*
X93926028Y-82440511D01*
X93919500Y-82490100D01*
X93919500Y-82909896D01*
X93919501Y-82909907D01*
X93926027Y-82959486D01*
X93926027Y-82959488D01*
X93976774Y-83068313D01*
X93976775Y-83068314D01*
X93976776Y-83068316D01*
X94061684Y-83153224D01*
X94170513Y-83203972D01*
X94220099Y-83210500D01*
X94579900Y-83210499D01*
X94629487Y-83203972D01*
X94727055Y-83158474D01*
X94787783Y-83151018D01*
X94841297Y-83180681D01*
X94843714Y-83183369D01*
X94859039Y-83201055D01*
X94859040Y-83201056D01*
X94905778Y-83231093D01*
X94968020Y-83271093D01*
X95092317Y-83307589D01*
X95141610Y-83307589D01*
X95199801Y-83326496D01*
X95211613Y-83336585D01*
X95265488Y-83390459D01*
X95265493Y-83390463D01*
X95334008Y-83430020D01*
X95334006Y-83430020D01*
X95334010Y-83430021D01*
X95334012Y-83430022D01*
X95410438Y-83450500D01*
X95410440Y-83450500D01*
X96400500Y-83450500D01*
X96458691Y-83469407D01*
X96494655Y-83518907D01*
X96499500Y-83549500D01*
X96499500Y-84230500D01*
X96480593Y-84288691D01*
X96431093Y-84324655D01*
X96400500Y-84329500D01*
X96395479Y-84329500D01*
X96337288Y-84310593D01*
X96325475Y-84300504D01*
X96283496Y-84258525D01*
X96255719Y-84204008D01*
X96255508Y-84202609D01*
X96255132Y-84199997D01*
X96244780Y-84127993D01*
X96236698Y-84071775D01*
X96182882Y-83953938D01*
X96182882Y-83953937D01*
X96098049Y-83856033D01*
X96098048Y-83856032D01*
X96098047Y-83856031D01*
X95989073Y-83785998D01*
X95989070Y-83785996D01*
X95989069Y-83785996D01*
X95989066Y-83785995D01*
X95864774Y-83749500D01*
X95864772Y-83749500D01*
X95735228Y-83749500D01*
X95735225Y-83749500D01*
X95610933Y-83785995D01*
X95610926Y-83785998D01*
X95501952Y-83856031D01*
X95417117Y-83953938D01*
X95363302Y-84071774D01*
X95344867Y-84199997D01*
X95344867Y-84200002D01*
X95363302Y-84328225D01*
X95410056Y-84430599D01*
X95417118Y-84446063D01*
X95472433Y-84509901D01*
X95501952Y-84543968D01*
X95588362Y-84599500D01*
X95610931Y-84614004D01*
X95735228Y-84650500D01*
X95784521Y-84650500D01*
X95842712Y-84669407D01*
X95854525Y-84679496D01*
X95989540Y-84814511D01*
X95989539Y-84814511D01*
X96045489Y-84870460D01*
X96114007Y-84910019D01*
X96114011Y-84910021D01*
X96190435Y-84930499D01*
X96190437Y-84930500D01*
X96190438Y-84930500D01*
X96670385Y-84930500D01*
X96670385Y-84930499D01*
X96746811Y-84910021D01*
X96815333Y-84870460D01*
X96829330Y-84856462D01*
X96883843Y-84828685D01*
X96944276Y-84838255D01*
X96987541Y-84881519D01*
X96989386Y-84885340D01*
X97017116Y-84946060D01*
X97017117Y-84946061D01*
X97017118Y-84946063D01*
X97101951Y-85043967D01*
X97101952Y-85043968D01*
X97210926Y-85114001D01*
X97210931Y-85114004D01*
X97335228Y-85150500D01*
X97335230Y-85150500D01*
X97464770Y-85150500D01*
X97464772Y-85150500D01*
X97473575Y-85147915D01*
X97534734Y-85149660D01*
X97583188Y-85187021D01*
X97591522Y-85201776D01*
X97613117Y-85249062D01*
X97613118Y-85249063D01*
X97689413Y-85337114D01*
X97697952Y-85346968D01*
X97802263Y-85414004D01*
X97806931Y-85417004D01*
X97931228Y-85453500D01*
X97931230Y-85453500D01*
X98060770Y-85453500D01*
X98060772Y-85453500D01*
X98185069Y-85417004D01*
X98294049Y-85346967D01*
X98294048Y-85346967D01*
X98296811Y-85345192D01*
X98355986Y-85329637D01*
X98403856Y-85345191D01*
X98498953Y-85406306D01*
X98537684Y-85453672D01*
X98541177Y-85514758D01*
X98515433Y-85559594D01*
X97825980Y-86249048D01*
X97771463Y-86276825D01*
X97711031Y-86267254D01*
X97673661Y-86234046D01*
X97654554Y-86205451D01*
X97654552Y-86205448D01*
X97589358Y-86161886D01*
X97588233Y-86161134D01*
X97588231Y-86161133D01*
X97588228Y-86161132D01*
X97588227Y-86161132D01*
X97529758Y-86149501D01*
X97529748Y-86149500D01*
X95790252Y-86149500D01*
X95790251Y-86149500D01*
X95790241Y-86149501D01*
X95731772Y-86161132D01*
X95731766Y-86161134D01*
X95665451Y-86205445D01*
X95665445Y-86205451D01*
X95621134Y-86271766D01*
X95621132Y-86271772D01*
X95609501Y-86330241D01*
X95609500Y-86330253D01*
X95609500Y-88069746D01*
X95609501Y-88069758D01*
X95621132Y-88128227D01*
X95621134Y-88128233D01*
X95665445Y-88194548D01*
X95665448Y-88194552D01*
X95731769Y-88238867D01*
X95776231Y-88247711D01*
X95790241Y-88250498D01*
X95790246Y-88250498D01*
X95790252Y-88250500D01*
X95985521Y-88250500D01*
X96043712Y-88269407D01*
X96079676Y-88318907D01*
X96079676Y-88380093D01*
X96055525Y-88419504D01*
X94235489Y-90239540D01*
X94235488Y-90239539D01*
X94179539Y-90295489D01*
X94139980Y-90364007D01*
X94139978Y-90364011D01*
X94119500Y-90440435D01*
X94119500Y-91857064D01*
X94139978Y-91933488D01*
X94139979Y-91933489D01*
X94165135Y-91977061D01*
X94165136Y-91977063D01*
X94165137Y-91977063D01*
X94179540Y-92002011D01*
X94255038Y-92077509D01*
X94282814Y-92132024D01*
X94273243Y-92192456D01*
X94229978Y-92235721D01*
X94169546Y-92245292D01*
X94143194Y-92237236D01*
X94100917Y-92217522D01*
X94033173Y-92185932D01*
X93984316Y-92179500D01*
X93635684Y-92179500D01*
X93619398Y-92181644D01*
X93586825Y-92185932D01*
X93586824Y-92185932D01*
X93479598Y-92235933D01*
X93395933Y-92319598D01*
X93389724Y-92332915D01*
X93347995Y-92377663D01*
X93287934Y-92389337D01*
X93232482Y-92363478D01*
X93210276Y-92332915D01*
X93204066Y-92319598D01*
X93204065Y-92319597D01*
X93204065Y-92319596D01*
X93120404Y-92235935D01*
X93120402Y-92235934D01*
X93120401Y-92235933D01*
X93013175Y-92185932D01*
X92980601Y-92181644D01*
X92964316Y-92179500D01*
X92964315Y-92179500D01*
X92889733Y-92179500D01*
X92831542Y-92160593D01*
X92795578Y-92111093D01*
X92795578Y-92049907D01*
X92811190Y-92020234D01*
X92811977Y-92019208D01*
X92824536Y-92002841D01*
X92885044Y-91856762D01*
X92905682Y-91700000D01*
X92885044Y-91543238D01*
X92876853Y-91523464D01*
X92824537Y-91397161D01*
X92824537Y-91397160D01*
X92728286Y-91271723D01*
X92728285Y-91271722D01*
X92728282Y-91271718D01*
X92728277Y-91271714D01*
X92728276Y-91271713D01*
X92657104Y-91217101D01*
X92602841Y-91175464D01*
X92602840Y-91175463D01*
X92602838Y-91175462D01*
X92456766Y-91114957D01*
X92456758Y-91114955D01*
X92300001Y-91094318D01*
X92299999Y-91094318D01*
X92143241Y-91114955D01*
X92143233Y-91114957D01*
X91997161Y-91175462D01*
X91997160Y-91175462D01*
X91871723Y-91271713D01*
X91871713Y-91271723D01*
X91777542Y-91394451D01*
X91727118Y-91429107D01*
X91665953Y-91427506D01*
X91617412Y-91390258D01*
X91600000Y-91334184D01*
X91600000Y-85495726D01*
X92024500Y-85495726D01*
X92024500Y-86604265D01*
X92027353Y-86634694D01*
X92072208Y-86762885D01*
X92152845Y-86872144D01*
X92152847Y-86872146D01*
X92152850Y-86872150D01*
X92152853Y-86872152D01*
X92152855Y-86872154D01*
X92262114Y-86952791D01*
X92262116Y-86952791D01*
X92262118Y-86952793D01*
X92390302Y-86997646D01*
X92420735Y-87000500D01*
X92900500Y-87000499D01*
X92958691Y-87019406D01*
X92994655Y-87068906D01*
X92999500Y-87099499D01*
X92999500Y-87202929D01*
X92980593Y-87261120D01*
X92973276Y-87269687D01*
X92875462Y-87397160D01*
X92875462Y-87397161D01*
X92814957Y-87543233D01*
X92814955Y-87543241D01*
X92794318Y-87699999D01*
X92794318Y-87700000D01*
X92814955Y-87856758D01*
X92814957Y-87856766D01*
X92875462Y-88002838D01*
X92875462Y-88002839D01*
X92971680Y-88128233D01*
X92971718Y-88128282D01*
X93097159Y-88224536D01*
X93097160Y-88224536D01*
X93097161Y-88224537D01*
X93229844Y-88279496D01*
X93243238Y-88285044D01*
X93360809Y-88300522D01*
X93399999Y-88305682D01*
X93400000Y-88305682D01*
X93400001Y-88305682D01*
X93431352Y-88301554D01*
X93556762Y-88285044D01*
X93702841Y-88224536D01*
X93828282Y-88128282D01*
X93924536Y-88002841D01*
X93985044Y-87856762D01*
X94005682Y-87700000D01*
X93985044Y-87543238D01*
X93946424Y-87450001D01*
X93924537Y-87397161D01*
X93924537Y-87397160D01*
X93824332Y-87266570D01*
X93825713Y-87265509D01*
X93801719Y-87218416D01*
X93800500Y-87202929D01*
X93800500Y-87099499D01*
X93819407Y-87041308D01*
X93868907Y-87005344D01*
X93899500Y-87000499D01*
X94379265Y-87000499D01*
X94385350Y-86999928D01*
X94409698Y-86997646D01*
X94537882Y-86952793D01*
X94541667Y-86950000D01*
X94574304Y-86925912D01*
X94647150Y-86872150D01*
X94727793Y-86762882D01*
X94772646Y-86634698D01*
X94775500Y-86604265D01*
X94775499Y-85495736D01*
X94772646Y-85465302D01*
X94727793Y-85337118D01*
X94727791Y-85337116D01*
X94727791Y-85337114D01*
X94647154Y-85227855D01*
X94647152Y-85227853D01*
X94647150Y-85227850D01*
X94647146Y-85227847D01*
X94647144Y-85227845D01*
X94537885Y-85147208D01*
X94468950Y-85123087D01*
X94409698Y-85102354D01*
X94409696Y-85102353D01*
X94409694Y-85102353D01*
X94379272Y-85099500D01*
X92420734Y-85099500D01*
X92390305Y-85102353D01*
X92262114Y-85147208D01*
X92152855Y-85227845D01*
X92152845Y-85227855D01*
X92072208Y-85337114D01*
X92027353Y-85465305D01*
X92024500Y-85495726D01*
X91600000Y-85495726D01*
X91600000Y-74099520D01*
X91618907Y-74041329D01*
X91668407Y-74005365D01*
X91699517Y-74000521D01*
X96523142Y-74025775D01*
G37*
%TD.AperFunction*%
%TA.AperFunction,Conductor*%
G36*
X99144945Y-74978944D02*
G01*
X99170000Y-74997147D01*
X99220654Y-75047801D01*
X99248430Y-75102316D01*
X99238859Y-75162748D01*
X99220653Y-75187806D01*
X99176776Y-75231683D01*
X99176774Y-75231686D01*
X99126029Y-75340510D01*
X99126028Y-75340511D01*
X99119500Y-75390100D01*
X99119500Y-75809896D01*
X99119501Y-75809907D01*
X99126027Y-75859486D01*
X99126027Y-75859488D01*
X99176774Y-75968313D01*
X99176775Y-75968314D01*
X99176776Y-75968316D01*
X99261684Y-76053224D01*
X99370513Y-76103972D01*
X99420099Y-76110500D01*
X99779900Y-76110499D01*
X99829487Y-76103972D01*
X99923080Y-76060328D01*
X99983806Y-76052872D01*
X100037320Y-76082534D01*
X100063179Y-76137987D01*
X100063070Y-76162972D01*
X100059500Y-76190090D01*
X100059500Y-76190099D01*
X100059501Y-76613140D01*
X100058075Y-76613140D01*
X100044276Y-76667319D01*
X100030589Y-76684438D01*
X99744526Y-76970503D01*
X99690009Y-76998281D01*
X99674522Y-76999500D01*
X98964075Y-76999500D01*
X98887651Y-77019978D01*
X98841946Y-77046367D01*
X98841945Y-77046367D01*
X98819129Y-77059539D01*
X98559539Y-77319129D01*
X98519980Y-77387647D01*
X98519978Y-77387651D01*
X98499500Y-77464075D01*
X98499500Y-78374672D01*
X98499501Y-78374684D01*
X98514033Y-78447736D01*
X98514035Y-78447742D01*
X98569397Y-78530599D01*
X98569400Y-78530602D01*
X98620307Y-78564616D01*
X98652260Y-78585966D01*
X98707808Y-78597015D01*
X98725315Y-78600498D01*
X98725320Y-78600498D01*
X98725326Y-78600500D01*
X98725327Y-78600500D01*
X98874673Y-78600500D01*
X98874674Y-78600500D01*
X98947740Y-78585966D01*
X98947746Y-78585961D01*
X98956752Y-78582233D01*
X98957586Y-78584248D01*
X99003880Y-78571189D01*
X99042610Y-78583773D01*
X99043248Y-78582233D01*
X99052255Y-78585962D01*
X99052260Y-78585966D01*
X99107808Y-78597015D01*
X99125315Y-78600498D01*
X99125320Y-78600498D01*
X99125326Y-78600500D01*
X99125327Y-78600500D01*
X99274673Y-78600500D01*
X99274674Y-78600500D01*
X99347740Y-78585966D01*
X99347746Y-78585961D01*
X99356752Y-78582233D01*
X99357586Y-78584248D01*
X99403880Y-78571189D01*
X99442610Y-78583773D01*
X99443248Y-78582233D01*
X99452255Y-78585962D01*
X99452260Y-78585966D01*
X99507808Y-78597015D01*
X99525315Y-78600498D01*
X99525320Y-78600498D01*
X99525326Y-78600500D01*
X99525327Y-78600500D01*
X99674673Y-78600500D01*
X99674674Y-78600500D01*
X99747740Y-78585966D01*
X99747746Y-78585961D01*
X99756752Y-78582233D01*
X99757586Y-78584248D01*
X99803880Y-78571189D01*
X99842610Y-78583773D01*
X99843248Y-78582233D01*
X99852255Y-78585962D01*
X99852260Y-78585966D01*
X99907808Y-78597015D01*
X99925315Y-78600498D01*
X99925320Y-78600498D01*
X99925326Y-78600500D01*
X99925327Y-78600500D01*
X100074673Y-78600500D01*
X100074674Y-78600500D01*
X100147740Y-78585966D01*
X100147746Y-78585961D01*
X100156752Y-78582233D01*
X100157586Y-78584248D01*
X100203880Y-78571189D01*
X100242610Y-78583773D01*
X100243248Y-78582233D01*
X100252255Y-78585962D01*
X100252260Y-78585966D01*
X100307808Y-78597015D01*
X100325315Y-78600498D01*
X100325320Y-78600498D01*
X100325326Y-78600500D01*
X100325327Y-78600500D01*
X100474673Y-78600500D01*
X100474674Y-78600500D01*
X100547740Y-78585966D01*
X100547746Y-78585961D01*
X100556752Y-78582233D01*
X100557586Y-78584248D01*
X100603880Y-78571189D01*
X100642610Y-78583773D01*
X100643248Y-78582233D01*
X100652255Y-78585962D01*
X100652260Y-78585966D01*
X100707808Y-78597015D01*
X100725315Y-78600498D01*
X100725320Y-78600498D01*
X100725326Y-78600500D01*
X100725327Y-78600500D01*
X100874673Y-78600500D01*
X100874674Y-78600500D01*
X100947740Y-78585966D01*
X100947746Y-78585961D01*
X100956752Y-78582233D01*
X100957586Y-78584248D01*
X101003880Y-78571189D01*
X101042610Y-78583773D01*
X101043248Y-78582233D01*
X101052255Y-78585962D01*
X101052260Y-78585966D01*
X101107808Y-78597015D01*
X101125315Y-78600498D01*
X101125320Y-78600498D01*
X101125326Y-78600500D01*
X101125327Y-78600500D01*
X101250500Y-78600500D01*
X101308691Y-78619407D01*
X101344655Y-78668907D01*
X101349500Y-78699500D01*
X101349500Y-78824672D01*
X101349501Y-78824684D01*
X101364033Y-78897736D01*
X101364034Y-78897740D01*
X101364035Y-78897742D01*
X101367766Y-78906749D01*
X101365751Y-78907583D01*
X101378811Y-78953888D01*
X101366227Y-78992613D01*
X101367766Y-78993251D01*
X101364033Y-79002263D01*
X101349501Y-79075315D01*
X101349500Y-79075327D01*
X101349500Y-79224672D01*
X101349501Y-79224684D01*
X101364033Y-79297736D01*
X101364034Y-79297740D01*
X101364035Y-79297742D01*
X101367766Y-79306749D01*
X101365751Y-79307583D01*
X101378811Y-79353888D01*
X101366227Y-79392613D01*
X101367766Y-79393251D01*
X101364033Y-79402263D01*
X101349501Y-79475315D01*
X101349500Y-79475327D01*
X101349500Y-79624672D01*
X101349501Y-79624684D01*
X101362402Y-79689535D01*
X101364034Y-79697740D01*
X101364035Y-79697742D01*
X101367766Y-79706749D01*
X101365751Y-79707583D01*
X101378811Y-79753888D01*
X101366227Y-79792613D01*
X101367766Y-79793251D01*
X101364033Y-79802263D01*
X101349501Y-79875315D01*
X101349500Y-79875327D01*
X101349500Y-80024672D01*
X101349501Y-80024684D01*
X101364033Y-80097736D01*
X101364035Y-80097742D01*
X101419397Y-80180599D01*
X101419400Y-80180602D01*
X101451819Y-80202263D01*
X101502260Y-80235966D01*
X101556263Y-80246708D01*
X101575315Y-80250498D01*
X101575320Y-80250498D01*
X101575326Y-80250500D01*
X101910438Y-80250500D01*
X102671000Y-80250500D01*
X102729191Y-80269407D01*
X102765155Y-80318907D01*
X102770000Y-80349500D01*
X102770000Y-80350500D01*
X102751093Y-80408691D01*
X102701593Y-80444655D01*
X102671000Y-80449500D01*
X102324674Y-80449500D01*
X101575326Y-80449500D01*
X101575325Y-80449500D01*
X101575315Y-80449501D01*
X101502263Y-80464033D01*
X101502257Y-80464035D01*
X101419400Y-80519397D01*
X101419397Y-80519400D01*
X101364035Y-80602257D01*
X101364033Y-80602263D01*
X101349501Y-80675315D01*
X101349500Y-80675327D01*
X101349500Y-80824672D01*
X101349501Y-80824684D01*
X101364033Y-80897736D01*
X101364034Y-80897740D01*
X101364035Y-80897742D01*
X101367766Y-80906749D01*
X101365751Y-80907583D01*
X101378811Y-80953888D01*
X101366227Y-80992613D01*
X101367766Y-80993251D01*
X101364033Y-81002263D01*
X101349501Y-81075315D01*
X101349500Y-81075327D01*
X101349500Y-81224672D01*
X101349501Y-81224684D01*
X101359955Y-81277235D01*
X101364034Y-81297740D01*
X101364035Y-81297742D01*
X101367766Y-81306749D01*
X101365751Y-81307583D01*
X101378811Y-81353888D01*
X101366227Y-81392613D01*
X101367766Y-81393251D01*
X101364033Y-81402263D01*
X101349501Y-81475315D01*
X101349500Y-81475327D01*
X101349500Y-81624672D01*
X101349501Y-81624684D01*
X101363127Y-81693180D01*
X101364034Y-81697740D01*
X101364035Y-81697742D01*
X101367766Y-81706749D01*
X101365751Y-81707583D01*
X101378811Y-81753888D01*
X101366227Y-81792613D01*
X101367766Y-81793251D01*
X101364033Y-81802263D01*
X101349501Y-81875315D01*
X101349500Y-81875327D01*
X101349500Y-82024672D01*
X101349501Y-82024684D01*
X101364033Y-82097736D01*
X101364034Y-82097740D01*
X101364035Y-82097742D01*
X101367766Y-82106749D01*
X101365751Y-82107583D01*
X101378811Y-82153888D01*
X101366227Y-82192613D01*
X101367766Y-82193251D01*
X101364033Y-82202263D01*
X101349501Y-82275315D01*
X101349500Y-82275327D01*
X101349500Y-82424672D01*
X101349501Y-82424684D01*
X101362514Y-82490099D01*
X101364034Y-82497740D01*
X101364035Y-82497742D01*
X101367766Y-82506749D01*
X101365751Y-82507583D01*
X101378811Y-82553888D01*
X101366227Y-82592613D01*
X101367766Y-82593251D01*
X101364033Y-82602263D01*
X101349501Y-82675315D01*
X101349500Y-82675327D01*
X101349500Y-82824672D01*
X101349501Y-82824684D01*
X101364033Y-82897736D01*
X101364034Y-82897740D01*
X101364035Y-82897742D01*
X101367766Y-82906749D01*
X101365751Y-82907583D01*
X101378811Y-82953888D01*
X101366227Y-82992613D01*
X101367766Y-82993251D01*
X101364033Y-83002263D01*
X101349501Y-83075315D01*
X101349500Y-83075327D01*
X101349500Y-83200500D01*
X101330593Y-83258691D01*
X101281093Y-83294655D01*
X101250500Y-83299500D01*
X101125326Y-83299500D01*
X101125325Y-83299500D01*
X101125315Y-83299501D01*
X101052263Y-83314033D01*
X101052261Y-83314033D01*
X101052260Y-83314034D01*
X101052259Y-83314034D01*
X101043251Y-83317766D01*
X101042416Y-83315751D01*
X100996112Y-83328811D01*
X100957386Y-83316227D01*
X100956749Y-83317766D01*
X100947742Y-83314035D01*
X100947740Y-83314034D01*
X100947736Y-83314033D01*
X100874684Y-83299501D01*
X100874674Y-83299500D01*
X100725326Y-83299500D01*
X100725325Y-83299500D01*
X100725315Y-83299501D01*
X100652263Y-83314033D01*
X100652261Y-83314033D01*
X100652260Y-83314034D01*
X100652259Y-83314034D01*
X100643251Y-83317766D01*
X100642416Y-83315751D01*
X100596112Y-83328811D01*
X100557386Y-83316227D01*
X100556749Y-83317766D01*
X100547742Y-83314035D01*
X100547740Y-83314034D01*
X100547736Y-83314033D01*
X100474684Y-83299501D01*
X100474674Y-83299500D01*
X100325326Y-83299500D01*
X100325325Y-83299500D01*
X100325315Y-83299501D01*
X100252263Y-83314033D01*
X100252261Y-83314033D01*
X100252260Y-83314034D01*
X100252259Y-83314034D01*
X100243251Y-83317766D01*
X100242416Y-83315751D01*
X100196112Y-83328811D01*
X100157386Y-83316227D01*
X100156749Y-83317766D01*
X100147742Y-83314035D01*
X100147740Y-83314034D01*
X100147736Y-83314033D01*
X100074684Y-83299501D01*
X100074674Y-83299500D01*
X99925326Y-83299500D01*
X99925325Y-83299500D01*
X99925315Y-83299501D01*
X99852263Y-83314033D01*
X99852261Y-83314033D01*
X99852260Y-83314034D01*
X99852259Y-83314034D01*
X99843251Y-83317766D01*
X99842416Y-83315751D01*
X99796112Y-83328811D01*
X99757386Y-83316227D01*
X99756749Y-83317766D01*
X99747742Y-83314035D01*
X99747740Y-83314034D01*
X99747736Y-83314033D01*
X99674684Y-83299501D01*
X99674674Y-83299500D01*
X99525326Y-83299500D01*
X99525325Y-83299500D01*
X99525315Y-83299501D01*
X99452263Y-83314033D01*
X99452261Y-83314033D01*
X99452260Y-83314034D01*
X99452259Y-83314034D01*
X99443251Y-83317766D01*
X99442416Y-83315751D01*
X99396112Y-83328811D01*
X99357386Y-83316227D01*
X99356749Y-83317766D01*
X99347742Y-83314035D01*
X99347740Y-83314034D01*
X99347736Y-83314033D01*
X99274684Y-83299501D01*
X99274674Y-83299500D01*
X99125326Y-83299500D01*
X99125325Y-83299500D01*
X99125315Y-83299501D01*
X99052263Y-83314033D01*
X99052261Y-83314033D01*
X99052260Y-83314034D01*
X99052259Y-83314034D01*
X99043251Y-83317766D01*
X99042416Y-83315751D01*
X98996112Y-83328811D01*
X98957386Y-83316227D01*
X98956749Y-83317766D01*
X98947742Y-83314035D01*
X98947740Y-83314034D01*
X98947736Y-83314033D01*
X98874684Y-83299501D01*
X98874674Y-83299500D01*
X98725326Y-83299500D01*
X98725325Y-83299500D01*
X98725315Y-83299501D01*
X98652263Y-83314033D01*
X98652261Y-83314033D01*
X98652260Y-83314034D01*
X98652259Y-83314034D01*
X98643251Y-83317766D01*
X98642416Y-83315751D01*
X98596112Y-83328811D01*
X98557386Y-83316227D01*
X98556749Y-83317766D01*
X98547742Y-83314035D01*
X98547740Y-83314034D01*
X98547736Y-83314033D01*
X98474684Y-83299501D01*
X98474674Y-83299500D01*
X98325326Y-83299500D01*
X98325325Y-83299500D01*
X98325315Y-83299501D01*
X98252263Y-83314033D01*
X98252261Y-83314033D01*
X98252260Y-83314034D01*
X98252259Y-83314034D01*
X98243251Y-83317766D01*
X98242416Y-83315751D01*
X98196112Y-83328811D01*
X98157386Y-83316227D01*
X98156749Y-83317766D01*
X98147742Y-83314035D01*
X98147740Y-83314034D01*
X98147736Y-83314033D01*
X98074684Y-83299501D01*
X98074674Y-83299500D01*
X97925326Y-83299500D01*
X97925325Y-83299500D01*
X97925315Y-83299501D01*
X97852263Y-83314033D01*
X97852261Y-83314033D01*
X97852260Y-83314034D01*
X97852259Y-83314034D01*
X97843251Y-83317766D01*
X97842416Y-83315751D01*
X97796112Y-83328811D01*
X97757386Y-83316227D01*
X97756749Y-83317766D01*
X97747742Y-83314035D01*
X97747740Y-83314034D01*
X97747736Y-83314033D01*
X97674684Y-83299501D01*
X97674674Y-83299500D01*
X97525326Y-83299500D01*
X97525325Y-83299500D01*
X97525315Y-83299501D01*
X97452263Y-83314033D01*
X97452261Y-83314033D01*
X97452260Y-83314034D01*
X97452259Y-83314034D01*
X97443251Y-83317766D01*
X97442416Y-83315751D01*
X97396112Y-83328811D01*
X97357386Y-83316227D01*
X97356749Y-83317766D01*
X97347742Y-83314035D01*
X97347740Y-83314034D01*
X97347736Y-83314033D01*
X97274684Y-83299501D01*
X97274674Y-83299500D01*
X97125326Y-83299500D01*
X97125325Y-83299500D01*
X97125315Y-83299501D01*
X97052263Y-83314033D01*
X97052261Y-83314033D01*
X97052260Y-83314034D01*
X97052259Y-83314034D01*
X97043251Y-83317766D01*
X97042416Y-83315751D01*
X96996112Y-83328811D01*
X96957386Y-83316227D01*
X96956749Y-83317766D01*
X96947742Y-83314035D01*
X96947740Y-83314034D01*
X96947736Y-83314033D01*
X96874684Y-83299501D01*
X96874674Y-83299500D01*
X96749500Y-83299500D01*
X96691309Y-83280593D01*
X96655345Y-83231093D01*
X96650500Y-83200500D01*
X96650500Y-83075327D01*
X96650498Y-83075315D01*
X96647015Y-83057808D01*
X96635966Y-83002260D01*
X96635962Y-83002255D01*
X96632233Y-82993248D01*
X96634248Y-82992413D01*
X96621189Y-82946120D01*
X96633773Y-82907389D01*
X96632233Y-82906752D01*
X96635961Y-82897746D01*
X96635966Y-82897740D01*
X96650500Y-82824674D01*
X96650500Y-82675326D01*
X96648354Y-82664540D01*
X96640233Y-82623712D01*
X96635966Y-82602260D01*
X96635962Y-82602255D01*
X96632233Y-82593248D01*
X96634248Y-82592413D01*
X96621189Y-82546120D01*
X96633773Y-82507389D01*
X96632233Y-82506752D01*
X96635961Y-82497746D01*
X96635966Y-82497740D01*
X96650500Y-82424674D01*
X96650500Y-82275326D01*
X96635966Y-82202260D01*
X96635962Y-82202255D01*
X96632233Y-82193248D01*
X96634248Y-82192413D01*
X96621189Y-82146120D01*
X96633773Y-82107389D01*
X96632233Y-82106752D01*
X96635961Y-82097746D01*
X96635966Y-82097740D01*
X96650500Y-82024674D01*
X96650500Y-81875326D01*
X96635966Y-81802260D01*
X96635962Y-81802255D01*
X96632233Y-81793248D01*
X96634248Y-81792413D01*
X96621189Y-81746120D01*
X96633773Y-81707389D01*
X96632233Y-81706752D01*
X96635961Y-81697746D01*
X96635966Y-81697740D01*
X96650500Y-81624674D01*
X96650500Y-81475326D01*
X96635966Y-81402260D01*
X96635962Y-81402255D01*
X96632233Y-81393248D01*
X96634248Y-81392413D01*
X96621189Y-81346120D01*
X96633773Y-81307389D01*
X96632233Y-81306752D01*
X96635961Y-81297746D01*
X96635966Y-81297740D01*
X96650500Y-81224674D01*
X96650500Y-81075326D01*
X96648545Y-81065500D01*
X96645562Y-81050500D01*
X96635966Y-81002260D01*
X96635962Y-81002255D01*
X96632233Y-80993248D01*
X96634248Y-80992413D01*
X96621189Y-80946120D01*
X96633773Y-80907389D01*
X96632233Y-80906752D01*
X96635961Y-80897746D01*
X96635966Y-80897740D01*
X96650500Y-80824674D01*
X96650500Y-80675326D01*
X96649793Y-80671774D01*
X96647015Y-80657808D01*
X96635966Y-80602260D01*
X96635962Y-80602255D01*
X96632233Y-80593248D01*
X96634248Y-80592413D01*
X96621189Y-80546120D01*
X96633773Y-80507389D01*
X96632233Y-80506752D01*
X96635961Y-80497746D01*
X96635966Y-80497740D01*
X96650500Y-80424674D01*
X96650500Y-80275326D01*
X96650081Y-80273222D01*
X96644562Y-80245476D01*
X96635966Y-80202260D01*
X96635962Y-80202255D01*
X96632233Y-80193248D01*
X96634248Y-80192413D01*
X96621189Y-80146120D01*
X96633773Y-80107389D01*
X96632233Y-80106752D01*
X96635961Y-80097746D01*
X96635966Y-80097740D01*
X96650500Y-80024674D01*
X96650500Y-79875326D01*
X96635966Y-79802260D01*
X96635962Y-79802255D01*
X96632233Y-79793248D01*
X96634248Y-79792413D01*
X96621189Y-79746120D01*
X96633773Y-79707389D01*
X96632233Y-79706752D01*
X96635961Y-79697746D01*
X96635966Y-79697740D01*
X96650500Y-79624674D01*
X96650500Y-79475326D01*
X96635966Y-79402260D01*
X96635962Y-79402255D01*
X96632233Y-79393248D01*
X96634248Y-79392413D01*
X96621189Y-79346120D01*
X96633773Y-79307389D01*
X96632233Y-79306752D01*
X96635961Y-79297746D01*
X96635966Y-79297740D01*
X96650500Y-79224674D01*
X96650500Y-79075326D01*
X96635966Y-79002260D01*
X96635962Y-79002255D01*
X96632233Y-78993248D01*
X96634248Y-78992413D01*
X96621189Y-78946120D01*
X96633773Y-78907389D01*
X96632233Y-78906752D01*
X96635961Y-78897746D01*
X96635966Y-78897740D01*
X96650500Y-78824674D01*
X96650500Y-78754000D01*
X96669407Y-78695809D01*
X96718907Y-78659845D01*
X96749500Y-78655000D01*
X97175495Y-78655000D01*
X97175500Y-78655000D01*
X97219184Y-78650303D01*
X97270695Y-78639097D01*
X97280873Y-78636610D01*
X97361585Y-78593600D01*
X97361585Y-78593599D01*
X97366492Y-78590985D01*
X97367616Y-78593094D01*
X97416958Y-78578468D01*
X97452131Y-78585940D01*
X97452259Y-78585965D01*
X97452260Y-78585966D01*
X97490638Y-78593600D01*
X97525315Y-78600498D01*
X97525320Y-78600498D01*
X97525326Y-78600500D01*
X97525327Y-78600500D01*
X97674673Y-78600500D01*
X97674674Y-78600500D01*
X97747740Y-78585966D01*
X97747746Y-78585961D01*
X97756752Y-78582233D01*
X97757586Y-78584248D01*
X97803880Y-78571189D01*
X97842610Y-78583773D01*
X97843248Y-78582233D01*
X97852255Y-78585962D01*
X97852260Y-78585966D01*
X97907808Y-78597015D01*
X97925315Y-78600498D01*
X97925320Y-78600498D01*
X97925326Y-78600500D01*
X97925327Y-78600500D01*
X98074673Y-78600500D01*
X98074674Y-78600500D01*
X98147740Y-78585966D01*
X98230601Y-78530601D01*
X98285966Y-78447740D01*
X98300500Y-78374674D01*
X98300500Y-77625326D01*
X98300500Y-77159499D01*
X98319407Y-77101308D01*
X98368907Y-77065344D01*
X98396678Y-77060945D01*
X98396663Y-77060711D01*
X98399219Y-77060543D01*
X98399500Y-77060499D01*
X98399897Y-77060499D01*
X98399900Y-77060499D01*
X98449487Y-77053972D01*
X98449488Y-77053972D01*
X98522387Y-77019978D01*
X98558316Y-77003224D01*
X98643224Y-76918316D01*
X98693972Y-76809487D01*
X98700500Y-76759901D01*
X98700499Y-76340100D01*
X98693972Y-76290513D01*
X98693972Y-76290511D01*
X98643225Y-76181686D01*
X98643224Y-76181685D01*
X98643224Y-76181684D01*
X98558316Y-76096776D01*
X98558314Y-76096775D01*
X98558313Y-76096774D01*
X98449489Y-76046029D01*
X98449488Y-76046028D01*
X98424694Y-76042764D01*
X98399901Y-76039500D01*
X98399900Y-76039500D01*
X98399500Y-76039500D01*
X98399398Y-76039467D01*
X98396666Y-76039288D01*
X98396711Y-76038593D01*
X98341309Y-76020593D01*
X98305345Y-75971093D01*
X98300500Y-75940500D01*
X98300500Y-75560437D01*
X98300499Y-75560435D01*
X98280021Y-75484011D01*
X98280019Y-75484007D01*
X98240460Y-75415489D01*
X98184511Y-75359539D01*
X98184511Y-75359540D01*
X98019475Y-75194504D01*
X97991698Y-75139987D01*
X98001269Y-75079555D01*
X98044534Y-75036290D01*
X98089479Y-75025500D01*
X98187346Y-75025500D01*
X98245537Y-75044407D01*
X98257343Y-75054490D01*
X98262489Y-75059636D01*
X98366830Y-75110645D01*
X98434472Y-75120500D01*
X98434475Y-75120500D01*
X98795524Y-75120500D01*
X98795528Y-75120500D01*
X98863170Y-75110645D01*
X98967511Y-75059636D01*
X99029998Y-74997148D01*
X99084513Y-74969373D01*
X99144945Y-74978944D01*
G37*
%TD.AperFunction*%
%TA.AperFunction,Conductor*%
G36*
X108001523Y-74085871D02*
G01*
X108059609Y-74105082D01*
X108095313Y-74154770D01*
X108100000Y-74184869D01*
X108100000Y-80235500D01*
X108081093Y-80293691D01*
X108031593Y-80329655D01*
X108001000Y-80334500D01*
X107993611Y-80334500D01*
X107940089Y-80318784D01*
X107889069Y-80285996D01*
X107889066Y-80285995D01*
X107764774Y-80249500D01*
X107764772Y-80249500D01*
X107635228Y-80249500D01*
X107635225Y-80249500D01*
X107510933Y-80285995D01*
X107510930Y-80285996D01*
X107498957Y-80293691D01*
X107459910Y-80318784D01*
X107406389Y-80334500D01*
X107051881Y-80334500D01*
X107014559Y-80344500D01*
X106984193Y-80352636D01*
X106958572Y-80356009D01*
X106765138Y-80356009D01*
X106765135Y-80356010D01*
X106740009Y-80358923D01*
X106659987Y-80394257D01*
X106599117Y-80400465D01*
X106580018Y-80394259D01*
X106499991Y-80358924D01*
X106499988Y-80358923D01*
X106474868Y-80356009D01*
X106125140Y-80356009D01*
X106125135Y-80356010D01*
X106100009Y-80358923D01*
X106023300Y-80392794D01*
X105997235Y-80404303D01*
X105986032Y-80415505D01*
X105931518Y-80443281D01*
X105916031Y-80444500D01*
X105835479Y-80444500D01*
X105777288Y-80425593D01*
X105765477Y-80415505D01*
X105742766Y-80392795D01*
X105742765Y-80392794D01*
X105639991Y-80347415D01*
X105639990Y-80347414D01*
X105639988Y-80347414D01*
X105614868Y-80344500D01*
X105265140Y-80344500D01*
X105265122Y-80344501D01*
X105260392Y-80345050D01*
X105200412Y-80332965D01*
X105158991Y-80287932D01*
X105150000Y-80246708D01*
X105150000Y-80228644D01*
X105158434Y-80188659D01*
X105197585Y-80099991D01*
X105200500Y-80074865D01*
X105200499Y-79725136D01*
X105197585Y-79700009D01*
X105158434Y-79611341D01*
X105150000Y-79571355D01*
X105150000Y-78850001D01*
X105150000Y-78850000D01*
X105149999Y-78850000D01*
X103976025Y-78850000D01*
X103917834Y-78831093D01*
X103881870Y-78781593D01*
X103881870Y-78720407D01*
X103906021Y-78680996D01*
X104057521Y-78529496D01*
X104112038Y-78501719D01*
X104127525Y-78500500D01*
X104764563Y-78500500D01*
X104764563Y-78500499D01*
X104840989Y-78480021D01*
X104909511Y-78440460D01*
X104965460Y-78384511D01*
X105370475Y-77979496D01*
X105424992Y-77951719D01*
X105440479Y-77950500D01*
X105719747Y-77950500D01*
X105719748Y-77950500D01*
X105778231Y-77938867D01*
X105844552Y-77894552D01*
X105888867Y-77828231D01*
X105900500Y-77769748D01*
X105900500Y-76830252D01*
X105888867Y-76771769D01*
X105844552Y-76705448D01*
X105844548Y-76705445D01*
X105778233Y-76661134D01*
X105778231Y-76661133D01*
X105778228Y-76661132D01*
X105778227Y-76661132D01*
X105719758Y-76649501D01*
X105719748Y-76649500D01*
X104880252Y-76649500D01*
X104880248Y-76649500D01*
X104837523Y-76657999D01*
X104779898Y-76651178D01*
X104759147Y-76696193D01*
X104760865Y-76697341D01*
X104711134Y-76771766D01*
X104711132Y-76771772D01*
X104699501Y-76830241D01*
X104699500Y-76830253D01*
X104699500Y-77759521D01*
X104680593Y-77817712D01*
X104670504Y-77829524D01*
X104629526Y-77870503D01*
X104575010Y-77898281D01*
X104559522Y-77899500D01*
X103922481Y-77899500D01*
X103846058Y-77919978D01*
X103813342Y-77938867D01*
X103813341Y-77938866D01*
X103777533Y-77959541D01*
X103769501Y-77967573D01*
X103714983Y-77995349D01*
X103654551Y-77985775D01*
X103611289Y-77942509D01*
X103600500Y-77897567D01*
X103600500Y-76965479D01*
X103619407Y-76907288D01*
X103629496Y-76895475D01*
X103945475Y-76579496D01*
X103999992Y-76551719D01*
X104015479Y-76550500D01*
X104619747Y-76550500D01*
X104619748Y-76550500D01*
X104619749Y-76550499D01*
X104619755Y-76550499D01*
X104645279Y-76545421D01*
X104662474Y-76542001D01*
X104720100Y-76548820D01*
X104740851Y-76503806D01*
X104739135Y-76502659D01*
X104765146Y-76463731D01*
X104788867Y-76428231D01*
X104800500Y-76369748D01*
X104800500Y-75430252D01*
X104788867Y-75371769D01*
X104744552Y-75305448D01*
X104744548Y-75305445D01*
X104678233Y-75261134D01*
X104678231Y-75261133D01*
X104678228Y-75261132D01*
X104678227Y-75261132D01*
X104619758Y-75249501D01*
X104619748Y-75249500D01*
X103780252Y-75249500D01*
X103780251Y-75249500D01*
X103780241Y-75249501D01*
X103721772Y-75261132D01*
X103721766Y-75261134D01*
X103655451Y-75305445D01*
X103655445Y-75305451D01*
X103611134Y-75371766D01*
X103611132Y-75371772D01*
X103599501Y-75430241D01*
X103599500Y-75430253D01*
X103599500Y-76034521D01*
X103580593Y-76092712D01*
X103570503Y-76104525D01*
X103229502Y-76445525D01*
X103174986Y-76473302D01*
X103114554Y-76463731D01*
X103071289Y-76420466D01*
X103060499Y-76375521D01*
X103060499Y-76220104D01*
X103060498Y-76220092D01*
X103053972Y-76170513D01*
X103053972Y-76170511D01*
X103003225Y-76061686D01*
X103003224Y-76061685D01*
X103003224Y-76061684D01*
X102918316Y-75976776D01*
X102918314Y-75976775D01*
X102918313Y-75976774D01*
X102809489Y-75926029D01*
X102809488Y-75926028D01*
X102792958Y-75923852D01*
X102759901Y-75919500D01*
X102759899Y-75919500D01*
X102340103Y-75919500D01*
X102340092Y-75919501D01*
X102290513Y-75926027D01*
X102290511Y-75926027D01*
X102181686Y-75976774D01*
X102096774Y-76061686D01*
X102046029Y-76170510D01*
X102046028Y-76170511D01*
X102039500Y-76220100D01*
X102039500Y-76444521D01*
X102020593Y-76502712D01*
X102010509Y-76514518D01*
X101765489Y-76759540D01*
X101765488Y-76759539D01*
X101709539Y-76815489D01*
X101669980Y-76884007D01*
X101669978Y-76884011D01*
X101649500Y-76960435D01*
X101649500Y-77021937D01*
X101630593Y-77080128D01*
X101625318Y-77086769D01*
X101603758Y-77111650D01*
X101551362Y-77143245D01*
X101490401Y-77138009D01*
X101444161Y-77097940D01*
X101438887Y-77087945D01*
X101410127Y-77024971D01*
X101382882Y-76965313D01*
X101298049Y-76867409D01*
X101298048Y-76867408D01*
X101298047Y-76867407D01*
X101189068Y-76797371D01*
X101189066Y-76797370D01*
X101175477Y-76793380D01*
X101133366Y-76768395D01*
X101049411Y-76684440D01*
X101021634Y-76629923D01*
X101020866Y-76613142D01*
X101020500Y-76613142D01*
X101020499Y-76190103D01*
X101020498Y-76190092D01*
X101013972Y-76140513D01*
X101013972Y-76140511D01*
X100963225Y-76031686D01*
X100963224Y-76031685D01*
X100963224Y-76031684D01*
X100901541Y-75970001D01*
X100873766Y-75915487D01*
X100883337Y-75855055D01*
X100901540Y-75829999D01*
X100963224Y-75768316D01*
X101013972Y-75659487D01*
X101020500Y-75609901D01*
X101020499Y-75190100D01*
X101013972Y-75140513D01*
X101013972Y-75140511D01*
X100963225Y-75031686D01*
X100963224Y-75031685D01*
X100963224Y-75031684D01*
X100878316Y-74946776D01*
X100878314Y-74946775D01*
X100878313Y-74946774D01*
X100769489Y-74896029D01*
X100769488Y-74896028D01*
X100750300Y-74893502D01*
X100719901Y-74889500D01*
X100719899Y-74889500D01*
X100360104Y-74889500D01*
X100360092Y-74889501D01*
X100310515Y-74896027D01*
X100215839Y-74940175D01*
X100155110Y-74947631D01*
X100101596Y-74917968D01*
X100075738Y-74862515D01*
X100076033Y-74836181D01*
X100080500Y-74805528D01*
X100080500Y-74394472D01*
X100070645Y-74326830D01*
X100019636Y-74222489D01*
X100010549Y-74213402D01*
X99982774Y-74158888D01*
X99992345Y-74098456D01*
X100035610Y-74055191D01*
X100081066Y-74044403D01*
X108001523Y-74085871D01*
G37*
%TD.AperFunction*%
%TA.AperFunction,Conductor*%
G36*
X102972903Y-76873248D02*
G01*
X102998762Y-76928700D01*
X102999500Y-76940766D01*
X102999500Y-78130881D01*
X102980593Y-78189072D01*
X102970503Y-78200885D01*
X102634548Y-78536839D01*
X102580032Y-78564616D01*
X102519600Y-78555045D01*
X102482226Y-78521831D01*
X102480601Y-78519399D01*
X102480599Y-78519397D01*
X102397742Y-78464035D01*
X102397737Y-78464033D01*
X102330184Y-78450595D01*
X102276801Y-78420698D01*
X102251186Y-78365132D01*
X102250500Y-78353498D01*
X102250500Y-77778063D01*
X102269407Y-77719872D01*
X102274680Y-77713232D01*
X102332882Y-77646063D01*
X102386697Y-77528226D01*
X102395920Y-77464078D01*
X102405133Y-77400002D01*
X102405133Y-77399997D01*
X102386697Y-77271774D01*
X102332883Y-77153939D01*
X102332255Y-77152962D01*
X102332008Y-77152023D01*
X102329941Y-77147497D01*
X102330724Y-77147139D01*
X102316700Y-77093787D01*
X102338899Y-77036770D01*
X102345536Y-77029434D01*
X102465476Y-76909495D01*
X102519992Y-76881718D01*
X102535479Y-76880499D01*
X102759897Y-76880499D01*
X102759900Y-76880499D01*
X102809487Y-76873972D01*
X102858660Y-76851041D01*
X102919389Y-76843585D01*
X102972903Y-76873248D01*
G37*
%TD.AperFunction*%
%TD*%
%TA.AperFunction,Conductor*%
%TO.N,Net-(J2-Pin_1)*%
G36*
X107434527Y-85868907D02*
G01*
X107470491Y-85918407D01*
X107470491Y-85979593D01*
X107469094Y-85983597D01*
X107456403Y-86017622D01*
X107456401Y-86017629D01*
X107450000Y-86077175D01*
X107450000Y-86724999D01*
X107450001Y-86725000D01*
X108366988Y-86725000D01*
X108334075Y-86782007D01*
X108300000Y-86909174D01*
X108300000Y-87040826D01*
X108334075Y-87167993D01*
X108366988Y-87225000D01*
X107450001Y-87225000D01*
X107450000Y-87225001D01*
X107450000Y-87872824D01*
X107449999Y-87872824D01*
X107456401Y-87932370D01*
X107456403Y-87932381D01*
X107506646Y-88067088D01*
X107506647Y-88067090D01*
X107592807Y-88182184D01*
X107592815Y-88182192D01*
X107707909Y-88268352D01*
X107707911Y-88268353D01*
X107842618Y-88318596D01*
X107842629Y-88318598D01*
X107902176Y-88325000D01*
X108549999Y-88325000D01*
X108550000Y-88324999D01*
X108550000Y-87408012D01*
X108607007Y-87440925D01*
X108734174Y-87475000D01*
X108865826Y-87475000D01*
X108992993Y-87440925D01*
X109050000Y-87408012D01*
X109050000Y-88324999D01*
X109050001Y-88325000D01*
X109697824Y-88325000D01*
X109757370Y-88318598D01*
X109757381Y-88318596D01*
X109892088Y-88268353D01*
X109892090Y-88268352D01*
X109991671Y-88193806D01*
X110049585Y-88174069D01*
X110108040Y-88192143D01*
X110144708Y-88241124D01*
X110150000Y-88273059D01*
X110150000Y-91901000D01*
X110131093Y-91959191D01*
X110081593Y-91995155D01*
X110051000Y-92000000D01*
X106891008Y-92000000D01*
X106832817Y-91981093D01*
X106821004Y-91971004D01*
X104978996Y-90128996D01*
X104951219Y-90074479D01*
X104950000Y-90058992D01*
X104950000Y-85949000D01*
X104968907Y-85890809D01*
X105018407Y-85854845D01*
X105049000Y-85850000D01*
X107376336Y-85850000D01*
X107434527Y-85868907D01*
G37*
%TD.AperFunction*%
%TD*%
M02*
