M48
; DRILL file {KiCad 8.0.6} date 2025-03-14T11:14:25-0400
; FORMAT={-:-/ absolute / inch / decimal}
; #@! TF.CreationDate,2025-03-14T11:14:25-04:00
; #@! TF.GenerationSoftware,Kicad,Pcbnew,8.0.6
; #@! TF.FileFunction,Plated,1,2,PTH
FMAT,2
INCH
; #@! TA.AperFunction,Plated,PTH,ViaDrill
T1C0.0079
; #@! TA.AperFunction,Plated,PTH,ComponentDrill
T2C0.0197
; #@! TA.AperFunction,Plated,PTH,ComponentDrill
T3C0.0472
%
G90
G05
T1
X3.622Y-3.0118
X3.6614Y-2.9685
X3.6614Y-3.5315
X3.6867Y-3.0346
X3.6929Y-3.0897
X3.7008Y-3.2323
X3.7008Y-3.4252
X3.7101Y-3.6786
X3.7205Y-2.9678
X3.7411Y-3.5748
X3.75Y-3.2576
X3.752Y-3.0787
X3.7795Y-3.3228
X3.7982Y-3.6491
X3.8189Y-3.3346
X3.8268Y-3.1181
X3.8268Y-3.185
X3.8268Y-3.2598
X3.8386Y-3.3543
X3.8583Y-3.3701
X3.8898Y-3.5433
X3.8898Y-3.7087
X3.8937Y-3.1181
X3.8937Y-3.185
X3.8976Y-3.2559
X3.9134Y-3.5315
X3.9134Y-3.7087
X3.9291Y-3.0079
X3.937Y-3.5315
X3.937Y-3.7087
X3.9528Y-3.3472
X3.9606Y-3.1181
X3.9685Y-3.189
X3.9685Y-3.2598
X3.9783Y-3.0398
X4.0Y-3.7598
X4.0145Y-3.0394
X4.0958Y-3.1037
X4.122Y-3.3858
X4.122Y-3.5079
X4.1299Y-3.2402
X4.2439Y-3.0038
X4.2441Y-2.9252
X4.2441Y-2.9449
X4.2441Y-2.9646
X4.2441Y-2.9843
X4.2441Y-3.0236
X4.2441Y-3.0433
X4.2441Y-3.063
X4.2441Y-3.0827
X4.2441Y-3.1024
X4.2441Y-3.122
X4.2441Y-3.1417
X4.2441Y-3.1634
X4.2441Y-3.2953
X4.2443Y-3.197
X4.2443Y-3.2167
X4.2443Y-3.2364
X4.2638Y-3.2953
X4.2835Y-3.2953
X4.3031Y-3.2953
X4.3228Y-3.2953
T2
X3.6575Y-3.5827
X3.6575Y-3.622
X3.6575Y-3.6614
X3.6575Y-3.7008
X3.6575Y-3.7402
X4.1969Y-3.3543
X4.2362Y-3.3543
T3
X3.815Y-3.4331
X4.0118Y-3.4331
M30
