M48
; DRILL file {KiCad 8.0.6} date 2025-03-21T04:24:13-0400
; FORMAT={-:-/ absolute / inch / decimal}
; #@! TF.CreationDate,2025-03-21T04:24:13-04:00
; #@! TF.GenerationSoftware,Kicad,Pcbnew,8.0.6
; #@! TF.FileFunction,Plated,1,4,PTH
FMAT,2
INCH
; #@! TA.AperFunction,Plated,PTH,ViaDrill
T1C0.0118
; #@! TA.AperFunction,Plated,PTH,ViaDrill
T2C0.0157
; #@! TA.AperFunction,Plated,PTH,ComponentDrill
T3C0.0394
%
G90
G05
T1
X3.622Y-3.0118
X3.626Y-3.3268
X3.6575Y-2.9685
X3.6575Y-3.5669
X3.6929Y-3.2008
X3.6929Y-3.2283
X3.7101Y-3.6786
X3.7244Y-2.9698
X3.7323Y-3.4567
X3.7378Y-3.1553
X3.7378Y-3.1811
X3.7378Y-3.2086
X3.7411Y-3.5748
X3.7463Y-3.2621
X3.748Y-3.2323
X3.7559Y-3.0787
X3.7717Y-3.315
X3.7913Y-3.7362
X3.7913Y-3.7717
X3.7982Y-3.6491
X3.7988Y-3.6106
X3.7988Y-3.6917
X3.8268Y-3.185
X3.8346Y-3.3346
X3.8581Y-3.3466
X3.8583Y-3.5138
X3.8858Y-3.3465
X3.8898Y-3.5394
X3.8937Y-3.1181
X3.8937Y-3.185
X3.8976Y-3.2559
X3.9134Y-3.5195
X3.9213Y-3.374
X3.9313Y-3.009
X3.9488Y-3.5195
X3.9528Y-3.1181
X3.9567Y-2.9291
X3.9685Y-3.189
X3.9685Y-3.2598
X3.9764Y-3.0398
X3.9803Y-3.748
X3.9843Y-3.3858
X4.0138Y-3.0472
X4.0453Y-3.0728
X4.0591Y-3.1417
X4.0669Y-2.9291
X4.1024Y-3.2854
X4.1024Y-3.4764
X4.1142Y-3.5827
X4.124Y-3.7421
X4.1299Y-3.2402
X4.2185Y-3.8701
X4.2402Y-3.1772
X4.2441Y-2.9449
X4.2441Y-2.9843
X4.2441Y-3.0236
X4.2441Y-3.063
X4.2441Y-3.0945
X4.2441Y-3.248
X4.2717Y-3.2598
X4.2874Y-3.7835
X4.3051Y-3.2598
X4.3406Y-3.2598
T2
X3.6339Y-3.6102
X3.6772Y-3.4528
T3
X3.6835Y-3.8819
X3.7835Y-3.8819
X3.8055Y-3.4331
X3.8835Y-3.8819
X3.9055Y-3.4331
X3.9835Y-3.8819
X4.0835Y-3.8819
X4.2835Y-3.3242
X4.2835Y-3.4242
M30
